<svg xmlns="http://www.w3.org/2000/svg" xmlns:xlink="http://www.w3.org/1999/xlink" data-name="Layer 2" viewBox="0 0 40 45.28"><defs><linearGradient id="b" x1="6.59" x2="9.97" y1="1.57" y2="27.22" gradientUnits="userSpaceOnUse"><stop offset="0" stop-color="#d02e8d"/><stop offset="1" stop-color="#d02e8d"/></linearGradient><linearGradient id="c" x1=".7" x2="25.89" y1="31.85" y2="31.85" gradientUnits="userSpaceOnUse"><stop offset="0" stop-color="#b9328d"/><stop offset="1" stop-color="#8d3c8c"/></linearGradient><linearGradient id="d" x1="13.99" x2="36.98" y1="3.09" y2="11.62" gradientUnits="userSpaceOnUse"><stop offset="0" stop-color="#2f5788"/><stop offset=".04" stop-color="#2e5e8f"/><stop offset=".2" stop-color="#2b7aad"/><stop offset=".37" stop-color="#2990c5"/><stop offset=".55" stop-color="#28a0d5"/><stop offset=".75" stop-color="#27aadf"/><stop offset="1" stop-color="#27ade3"/></linearGradient><linearGradient id="e" x1="36.01" x2="36.23" y1="14.36" y2="28.38" gradientUnits="userSpaceOnUse"><stop offset="0" stop-color="#0b96d0"/><stop offset=".27" stop-color="#19a2da"/><stop offset=".59" stop-color="#23aae0"/><stop offset="1" stop-color="#27ade3"/></linearGradient><linearGradient id="f" x1="24.2" x2="40.4" y1="25.73" y2="39.25" gradientUnits="userSpaceOnUse"><stop offset="0" stop-color="#c3308e"/><stop offset=".13" stop-color="#d02d8e"/><stop offset=".32" stop-color="#de2a8e"/><stop offset=".56" stop-color="#e6298e"/><stop offset="1" stop-color="#e9298e"/></linearGradient><linearGradient id="g" x1="13.17" x2="25.64" y1="16" y2="27.38" gradientUnits="userSpaceOnUse"><stop offset="0" stop-color="#8d3c8c"/><stop offset=".05" stop-color="#943a8c"/><stop offset=".33" stop-color="#b8338d"/><stop offset=".58" stop-color="#d22e8e"/><stop offset=".82" stop-color="#e12c8e"/><stop offset="1" stop-color="#e72b8f"/></linearGradient><linearGradient id="a" x1="9.29" x2="15.8" y1="18.57" y2="30.16" gradientUnits="userSpaceOnUse"><stop offset="0" stop-color="#27ade3"/><stop offset="1" stop-color="#2a5684"/></linearGradient><linearGradient xlink:href="#a" id="h" x1="9.95" x2="40" y1="36.9" y2="36.9"/></defs><g data-name="Layer 1"><path d="M15.59.38a41 41 0 0 0-3.46 6.57l-.2.48c-4.3 2.81-7.16 7.82-7.16 13.52 0 2.41.58 4.7 1.61 6.74L.7 24.81c-.46-1.59-.7-3.26-.7-4.99C0 10.21 6.7 2.19 15.59.38" style="fill:url(#b)"/><path d="M25.89 37.57c-1.99.85-4.17 1.32-6.51 1.32-3.34 0-6.6-.86-9.51-2.37-4.36-2.65-7.76-6.81-9.16-11.71l5.66 2.89c1.94 3.9 5.47 6.92 9.57 8.31 2.24 1.17 4.74 1.83 7.3 1.83.92 0 1.81-.1 2.66-.28Z" style="fill:url(#c)"/><path d="m36.45 9.56-1.57 7.78c-.81-4.69-3.66-8.42-7.56-10.5-2.18-1.16-4.7-1.8-7.37-1.8-2.94 0-5.69.88-8.01 2.4l.2-.48c.96-2.29 2.12-4.49 3.46-6.57 1.23-.25 2.51-.38 3.81-.38 3.41 0 6.61.79 9.39 2.23 3.23 1.66 5.89 4.18 7.65 7.33Z" style="fill:url(#d)"/><path d="M36.41 29.18c1.16 1.87 1.65 6.14 1.65 6.14-.22-1.2-2.51-4.59-2.51-4.59-.12-.18-.24-.35-.36-.53a86 86 0 0 0-1.69-2.31c1.04-2.36 1.61-5.03 1.61-7.77q0-1.44-.24-2.79l1.57-7.78c1.5 2.67 2.35 5.8 2.35 9.23 0 3.7-.85 7.28-2.39 10.39Z" style="fill:url(#e)"/><path d="M39.2 40.69c-6.64-9.51-6.56-8.23-10.88-10.58-1.97-1.07-3.85-1.46-5.95-2.18 1.95-.76 3.83-1.68 5.61-2.76 1.25 1.52 2.73 3.09 4.26 4.18 4.18 2.99 6.9 11.19 6.95 11.34Z" style="fill:url(#f)"/><path d="M27.99 25.17a35.6 35.6 0 0 1-5.61 2.76c-2.15-.73-4.54-1.82-7.49-4.33C9.43 18.94 11.5 9.82 11.5 9.82c2.4 11.51 6.59 12.05 6.59 12.05-1.06-3.33 0-6.25 0-6.25 1.45 7.59 7.1 9.95 7.19 9.98-1.46-1.46-.73-5.26-.73-5.26s1.42 2.36 3.46 4.84Z" style="fill:url(#g)"/><path d="M20.21 28.52c-1.97.4-4.32.46-6.33.43l-3.93-.06c-2.61-2.36-3.04-5.7-3.04-5.7 2.01 4.39 5.15 4.44 5.15 4.44-6.08-4.85-2.53-16.06-1.44-16.78-1.47 7.83 1.16 14.31 9.25 17.54l.04.02c.09.04.18.07.27.1h.04Z" style="fill:url(#a)"/><path d="M40 45.28c-3.07-5.19-6.11-7.27-6.11-7.27s-2.06-1.44-3.68-1.42c-1.43.02-6.75-.44-6.75-.44-6.26-.71-9-3.15-9-3.15 7.54 1.51 8.12-1.07 8.12-1.07s-4.48.49-9.72-1.33a8.4 8.4 0 0 1-2.91-1.71l3.93.06c2.01.03 4.36-.02 6.33-.43.05.02.1.04.16.06 8.75 3.26 5.12 1.73 10.78 4.63 5.61 2.87 8.8 11.94 8.85 12.08Z" style="fill:url(#h)"/></g></svg>