<svg xmlns="http://www.w3.org/2000/svg" width="135" height="146" fill="none" xmlns:v="https://vecta.io/nano"><g clip-path="url(#A)"><path d="M67.111 145.45c-1.29-.3-2.2-1.29-3.32-1.88l-5.69-3.11-6.21-3.66-8.55-4.83c-3.4-1.86-6.67-3.96-10.11-5.77-2.1-1.1-4.01-2.59-5.95-3.97-2.89-2.07-5.63-4.29-8.14-6.84-8.63-8.79-14.38-19.16-17.22-31.1C.721 79.24.051 74.1.061 68.88l.04-53.21c0-.52-.42-1.27.47-1.57 1.52.99 3 2 4.61 2.87 3.59 1.93 7.07 4.07 10.59 6.12l9.55 5.53.02 34.48v19.33c0 .46-.2 1.05.53 1.21.1 1.22 1.25 1.38 2.01 1.83l12.51 7.17c.43.25.85.67 1.36.4.56-.3 0-.81.07-1.23.07-.4 0-.83 0-1.25l.01-15.75c.45-.85-.02-1.7-.02-2.55l.01-18.9.02-13.71c0-.44-.16-.92.24-1.29l5.03 2.69 18.55 10.68c1.07.6 1.43 1.23 1.43 2.43l-.02 87.55.03 3.75.01-.01z" fill="#f5a713"/><path d="M67.11 145.45l-.03-3.75.02-87.55c0-1.19-.37-1.83-1.43-2.43L47.12 41.04l-5.03-2.69c.01-.26.1-.48.32-.64 2.55-1.86 5.2-3.55 8.06-4.9.62.09 1.13-.17 1.64-.47l13.94-8.05c.79-.46 1.45-.4 2.2.06 4.77 2.97 9.83 5.44 14.53 8.52.32.21.58.31.86 0 .28.42.65.71 1.1.95l6.23 3.35c1.04.55 1.4 1.35 1.38 2.53-.05 5.3.14 10.6-.08 15.89-.17 3.9.24 7.77.08 11.66-.11 2.45 0 4.9 0 7.35-.07 5.97.13 11.93-.11 17.9-.02.48.27.54.6.61-.06.66.35.81.86.68.56-.14 1.13-.32 1.62-.61 1.69-.96 3.34-1.98 5.02-2.96.95-.55 1.9-1.14 2.91-1.57 1.76-.74 3.15-.85 4.71 1.01 2.72 3.26 6 6.04 8.91 9.15.58.62 1.64.91 1.71 1.96.08 1.22 1.21 1.71 1.75 2.61.13.22.43.18.68.07.72-.31 2.11-2.63 2.02-3.43-.02-.22-.28-.48.07-.64.3-.13.41.22.61.3.76.3 1.21 1.18 2.15 1.13l-1.07 1.74c-.64.06-1.31.1-.68 1.01-.84 2.15-2.33 3.88-3.68 5.7-2.05 2.78-4.4 5.3-6.92 7.67-2.3 2.16-4.84 4-7.39 5.84-3.66 2.66-7.73 4.64-11.53 7.06-2.13 1.36-4.45 2.43-6.65 3.68l-9.51 5.46c-3.58 2.08-7.27 3.98-10.72 6.28-.16.11-.39.11-.59.16l-.01.04z" fill="#f6cd0f"/><path d="M125.85 100.84c-.94.05-1.39-.84-2.15-1.13-.21-.08-.32-.43-.61-.3-.35.15-.09.41-.07.64.08.8-1.3 3.12-2.02 3.43-.26.11-.55.14-.68-.07-.54-.9-1.67-1.38-1.75-2.61-.07-1.05-1.13-1.34-1.71-1.96-2.91-3.11-6.19-5.89-8.91-9.15-1.55-1.86-2.94-1.75-4.71-1.01-1.01.43-1.96 1.01-2.91 1.57l-5.02 2.96c-.5.28-1.07.46-1.62.61-.51.13-.92-.02-.86-.68 4.97-2.86 9.87-5.84 14.93-8.52.42-.22.79-.48.84-1 .39-.48.21-1.04.21-1.56l.07-50.97c.01-2.09-.76-3.12-2.42-3.9-.26-.12-.53-.24-.78-.39l-2.86-1.68c.04-.35-.03-.93.57-.56 1.33.82 2.93 1.01 4.17 2.1 1.49 1.31 2.31 1.12 3.61-.37.29-.34.66-.68 1.07-.83 3.04-1.16 5.69-3.05 8.58-4.5 1.95-.98 3.77-2.25 5.62-3.42.34-.21.98-.7.19-.94-1.11-.34-1.09-1.06-1.07-1.92 0-.23-.03-.56-.17-.69-.8-.73-.68-1.7-.84-2.62-.13-.77.54-1.51 0-2.25.74-.39 1.18.34 1.61.6 2.23 1.37 4.58 2.52 6.87 3.78.72.4 1.13 1.01 1 1.65-.23 1.18-.16 2.33-.11 3.5 0 .19-.02.37-.03.56v.58.42 1.33.67.33.67.33.66.34.66.34.66.34.66.34.66.33.42.58.67.34.66.34.66.59.41.34.41 7.59.41 9.59.66.34.66.34.66.34.65 2.34.41 2.84.41 5.59.4l.01 1.34c-.01.04-.04.08-.03.11.02.08.06.15.09.22.39 4.97-.43 9.82-1.48 14.65-.38 1.76-.59 3.58-1.21 5.25-.52 1.38-1 2.79-1.6 4.14l-2.76 6.19c-.27.64-.67 1.19-1.03 1.77l-.03-.01z" fill="#f7d60d"/><path d="M102.82 25.1l2.86 1.68c.25.15.52.27.78.39 1.66.77 2.44 1.81 2.42 3.9l-.07 50.97c0 .52.18 1.09-.21 1.56-.53-.9-1.6-.38-2.34-.93-3.43-2.57-7.33-4.37-10.99-6.55-.93-.55-1.73-1.45-2.93-1.51 0-2.45-.1-4.91 0-7.35.17-3.89-.24-7.76-.08-11.66.23-5.29.03-10.59.08-15.89.01-1.18-.34-1.98-1.38-2.53l-6.23-3.35c-.46-.24-.82-.54-1.1-.95l-.12-17.7c0-.37 0-.78.54-.82.8.06 1.08.86 1.69 1.2l10.71 5.98 6.38 3.57-.01-.01z" fill="#f5a713"/><path d="M25.32 28.6l-9.55-5.53-10.59-6.12c-1.61-.86-3.09-1.88-4.61-2.87 1.36-1.12 2.97-1.84 4.49-2.71l10.43-5.95L24.4.31c.74-.45 1.37-.4 2.08.04 5.7 3.53 11.64 6.66 17.44 10.03 1.92 1.11 3.9 2.11 5.85 3.17.42.23 1 .35.79 1.05-.57.04-1.13-.1-1.68.29-2.58 1.87-5.38 3.38-8.18 4.89-3.42 1.85-6.78 3.83-10.14 5.78-1.74 1.01-3.77 1.56-5.24 3.04z" fill="#f6cd0f"/><path d="M25.32 28.6c1.47-1.47 3.5-2.03 5.24-3.04l10.14-5.78 8.18-4.89c.54-.39 1.11-.25 1.68-.29.14.25.28.49.27.8l-.11 14.73c0 .16-.06.33-.09.49 0 .09-.01.17-.02.26l-.15 1.92c-2.86 1.35-5.51 3.05-8.06 4.9-.22.16-.3.38-.32.64-.4.37-.24.85-.24 1.29l-.02 13.71c-.41-.05-.8.51-1.25-.02-.46-.54-.6-1.5-1.55-1.45-.9.04-.96 1.08-1.57 1.48-.1.07-.18.17-.27.26-2.64 2.62-5.14 5.41-8.27 7.48-1.13.75-1.96 2.1-3.57 1.99l-.02-34.48z" fill="#f7d60d"/><path d="M102.819 25.1l-6.38-3.57-10.71-5.98c-.61-.34-.88-1.14-1.69-1.2.17-.75.88-.91 1.41-1.22l10.56-6.06 6.54-3.72a3.14 3.14 0 0 1 .25-.14l.29-.09c.07-.06.14-.12.22-.17l.27-.08c1.46.09 1.4 1.51 2.04 2.33.24.31.26.93.79.8.55-.14.38-.62.24-1.03-.09-.27-.17-.6.18-.76.31-.14.42.12.53.36.13.29.36.33.61.2.29-.16.65-.41.51-.76-.34-.85.07-1.43.58-2.01.09-.11.17-.31.14-.43-.05-.16-.3-.23-.42-.12-.94.89-1.81.11-2.71-.08l1.38-.91c1.31-.84 2.38-.28 3.41.56-.27.88-.41 1.8-1.03 2.55-.36.43-.49 1.02 0 1.42.34.27 2.05-.94 1.92-1.36-.21-.69.12-1.2.33-1.77l1.74.83c.01.42-.02.81-.31 1.16s-.23.73.19.93c.43.21.72-.03.84-.45.11-.4.3-.68.75-.69a20.55 20.55 0 0 0 .79.47c.07.51-.21.86-.54 1.2-.21.22-.19.46.05.64.25.2.46.05.65-.13.39-.36.38-.91.64-1.33.44.36 1.25.14 1.44.91-.44.75-1.27.85-1.93 1.26-1.6.98.95 1.11.48 2-.17.32.3.52.68.39.1-.03.19-.16.23-.26l1.05-3.15c.9.39 1.96.51 2.51 1.5-.36.03-.85-.02-.68.56.12.42.49.54.89.3.24-.15.45-.36.77-.35l.51.27c.13.39.09.92.52 1.1.3.12.42-.26.54-.51.39.03.38.49.68.62.53.74-.13 1.48 0 2.25.16.92.04 1.9.84 2.62.15.13.18.46.17.69-.02.86-.04 1.58 1.07 1.92.78.24.14.73-.19.94l-5.62 3.42c-2.89 1.45-5.54 3.34-8.58 4.5-.41.15-.78.5-1.07.83-1.3 1.48-2.11 1.68-3.61.37-1.24-1.09-2.84-1.28-4.17-2.1-.6-.37-.53.21-.57.56l-.02-.03zm12.66-17.42c-.98-.04-.72-1.5-1.78-1.57-.62-.04-.88-.33-.89-.93 0-.26.11-.66-.28-.71-.33-.04-.59.21-.78.52-.32.53-.43.96 0 1.55.8 1.07 1.93 1.47 3.13 1.77.3.07.56-.1.6-.63zm6.07 2.78c-.08-.36-.26-.57-.84-.46-.52.1-1.38.59-1.25-.71.04-.37-.38-.44-.75-.19-1.21.8 0 1.38.3 1.84.31.49 1.09.81 1.77.51.34-.15.79-.34.78-.99h-.01zm-4.89 2.23c.13.93.28 1.77-.02 2.63-.17.47-.07.76.61.62 1.53-.3.73-1.58.91-2.33.21-.85-.82-.73-1.5-.91v-.01zm6.63 2.64c.04.3.04.6.11.88.18.7.75.8 1.28.61.7-.26.09-.68-.03-.99-.16-.43-.35-.83-.36-1.31 0-.26-.13-.51-.42-.53-.31-.02-.4.28-.46.5-.08.27-.09.57-.12.84zm-3.03 4.15c-.08-.14-.12-.29-.2-.33a33.95 33.95 0 0 0-2.12-.99c-.18-.07-.41.09-.48.31-.09.29.13.38.34.38.5.02.68.4.93.73.3.38.74.33 1.15.21.14-.04.25-.19.39-.31h-.01zm-9.19-.11c-.31.12-1.1.08-.93.8.18.78 1.04.02 1.55.39.25.17.63-.2.59-.58-.06-.61-.56-.6-1.21-.6v-.01zm3.03 1.16l.79 1.02c.2.23.45.38.77.25.25-.1.4-.31.37-.58-.03-.33-.24-.56-.56-.56-.41 0-.76-.35-1.38-.13h.01zm-2.58 2.3c-.33-.28-.26-.99-.83-1.14-.35-.09-.65.24-.57.61.12.54.5.93 1.07 1.03.22.04.36-.15.32-.5h.01zm10.66-6.43c-.29 0-.59.11-.48.31.25.47.56.96.97 1.28.17.13.41-.32.39-.63-.04-.57-.39-.87-.87-.96h-.01zm-5.7 3.07c-.26 0-.37.11-.37.3 0 .28.17.53.42.54.5.04.78.69 1.35.47.16-.06.23-.34.11-.42-.51-.32-1.14-.42-1.5-.9l-.01.01zm6.74-7.89c-.82-.23-1.35-.38-1.76.13-.16.19-.03.43.17.52.67.34.92-.3 1.59-.66v.01zm-10.41 9.84c-.29-.01-.46.11-.44.35.04.41.29.7.69.76.28.04.46-.19.47-.46.01-.5-.42-.53-.72-.65zm1.73-10.08c-.39-.28-.66-.6-1.06-.29-.05.04-.03.26.03.32.29.28.61.4 1.03-.03zm-3.52-2.11a.31.31 0 0 0-.32-.3c-.17 0-.32.1-.32.29 0 .24.13.38.38.35.2-.02.25-.17.26-.34zm-1.54-.2c0-.27-.12-.36-.3-.35-.18 0-.3.13-.31.31 0 .18.1.34.28.29.13-.03.24-.18.33-.25zm-.92 3.4c0-.17 0-.35-.19-.39-.23-.06-.27.16-.26.31.01.14.09.35.18.39.23.08.23-.15.26-.3l.01-.01zm7.98 4.25c-.11-.11-.18-.22-.26-.23-.1-.02-.26.03-.3.1-.08.18.04.29.21.29.1 0 .19-.08.34-.16h.01zm4.69 1.38l-.21-.09c-.03.07-.1.15-.08.2s.13.06.2.09l.09-.21v.01z" fill="#f6cd0f"/><g fill="#f7d60d"><path d="M106.06 1.34c.9.19 1.77.97 2.71.08.12-.11.37-.05.42.12.04.12-.04.33-.14.43-.51.58-.92 1.16-.58 2.01.14.36-.22.6-.51.76-.25.14-.49.09-.61-.2-.1-.24-.22-.5-.53-.36-.35.15-.27.49-.18.76.14.42.31.9-.24 1.03-.53.13-.55-.49-.79-.8-.64-.81-.58-2.24-2.04-2.33.67-.76 1.7-.94 2.48-1.51l.01.01zm6.02.49c-.21.57-.53 1.09-.33 1.77.13.42-1.58 1.63-1.92 1.36-.5-.4-.37-.99 0-1.42.63-.75.76-1.67 1.03-2.55.42.26.93.38 1.22.83v.01zm6.739 3.77l-1.05 3.15c-.04.1-.13.23-.23.26-.38.13-.85-.07-.68-.39.46-.89-2.08-1.02-.48-2 .66-.4 1.49-.51 1.93-1.26.18.05.4.01.51.23v.01zm-3.529-1.99c-.45.01-.64.29-.75.69-.11.42-.41.66-.84.45-.42-.2-.48-.58-.19-.93s.32-.75.31-1.16l1.47.95zm1.58.86c-.26.42-.25.97-.64 1.33-.19.18-.4.33-.65.13-.23-.19-.26-.43-.05-.64.33-.34.6-.69.54-1.2l.8.38zm5.44 3.14c-.31 0-.52.2-.77.35-.4.24-.77.12-.89-.3-.17-.58.32-.53.68-.56.39.05.68.28.98.51zm1.561.86c-.11.25-.24.63-.54.51-.43-.18-.39-.71-.52-1.1.53-.12.68.44 1.06.6v-.01zm.229 95.12c-.62-.91.05-.95.68-1.01l-.68 1.01z"/></g><g fill="#ffda46"><path d="M133.881 22.18v-.67c.16.22.16.45 0 .67z"/><use href="#B"/><path d="M133.881 31.18v-.66a.51.51 0 0 1 0 .66zm0 .99v-.66a.51.51 0 0 1 0 .66z"/><use href="#C"/><path d="M133.881 24.18v-.66a.51.51 0 0 1 0 .66zm0 1v-.66a.51.51 0 0 1 0 .66zm.01-6c0-.19.02-.37.03-.56.13.19.1.38-.03.56zm-.01 11v-.67c.16.22.16.44 0 .67z"/><path d="M133.881 26.18v-.66a.51.51 0 0 1 0 .66zm0 25.99v-.66a.51.51 0 0 1 0 .66zm0 1v-.66a.51.51 0 0 1 0 .66zm0-24.99v-.66a.51.51 0 0 1 0 .66zm0 25.99v-.66a.51.51 0 0 1 0 .66zm0 1v-.65c.16.22.16.44 0 .65zM50.6 30.89c0-.09.01-.17.02-.26.02.06.04.12.04.18 0 .02-.04.05-.06.08z"/><use href="#D"/><path d="M133.881 67.16v-.4a.25.25 0 0 1 0 .4zm.059 1.67c-.03-.07-.07-.14-.09-.22 0-.03.02-.08.03-.11.03.07.08.14.1.22 0 .03-.03.08-.04.11zm-.059-10.91v-.41a.26.26 0 0 1 0 .41zm.01-28.99v-.42c.13.14.14.28 0 .42zm-.01-8.75v-.42c.13.14.13.28 0 .42zm0 13.74v-.41a.26.26 0 0 1 0 .41zm0-.75v-.41c.13.14.13.28 0 .41zm0 8.75v-.41a.26.26 0 0 1 0 .41z"/></g><path d="M25.33 63.09c1.62.11 2.44-1.24 3.57-1.99 3.13-2.07 5.63-4.86 8.27-7.48.09-.09.16-.19.27-.26.62-.41.68-1.44 1.57-1.48.95-.05 1.09.91 1.55 1.45.45.53.84-.03 1.25.02l-.01 18.9c0 .85.47 1.7.02 2.55-.52.02-.98.23-1.39.5-1.93 1.3-3.96 2.42-5.99 3.55-2.86 1.6-5.59 3.42-8.58 4.77-.74-.15-.53-.75-.53-1.21V63.08v.01z" fill="#f6cd0f"/><g fill="#af810b"><path d="M25.859 83.62c2.99-1.35 5.72-3.18 8.58-4.77l5.99-3.55c.41-.28.87-.49 1.39-.5l-.01 15.75c0 .42.06.84 0 1.25-.08.42.49.93-.07 1.23-.51.27-.93-.15-1.36-.4l-12.51-7.17c-.76-.45-1.9-.61-2.01-1.83v-.01zM92.34 74.6c1.2.06 2 .96 2.93 1.51 3.67 2.18 7.56 3.98 10.99 6.55.74.55 1.81.03 2.34.93-.05.52-.42.78-.84 1-5.07 2.69-9.96 5.67-14.93 8.52-.33-.08-.62-.13-.6-.61.24-5.96.05-11.93.11-17.9z"/></g><g fill="#f7d60d"><path d="M115.48 7.68c-.04.52-.3.7-.6.63-1.2-.3-2.33-.7-3.13-1.77-.44-.59-.32-1.02 0-1.55.19-.31.44-.56.78-.52.4.04.28.44.28.71 0 .61.26.9.89.93 1.07.06.8 1.52 1.78 1.57zm6.07 2.77c.02.65-.44.85-.78.99-.68.3-1.46-.02-1.77-.51-.29-.46-1.5-1.04-.3-1.84.37-.25.79-.18.75.19-.13 1.3.73.81 1.25.71.57-.11.76.1.84.46h.01zm-4.879 2.23c.68.18 1.71.07 1.5.91-.19.76.62 2.03-.91 2.33-.68.14-.78-.15-.61-.62.31-.85.15-1.69.02-2.63v.01zm6.618 2.64c.04-.28.04-.57.12-.84.07-.22.15-.52.46-.5.29.02.42.27.42.53 0 .47.19.88.36 1.31.12.31.72.73.03.99-.53.19-1.1.09-1.28-.61-.07-.28-.07-.57-.11-.88zm-3.029 4.14c-.14.12-.25.27-.39.31-.41.12-.85.17-1.15-.21-.26-.32-.43-.71-.93-.73-.21 0-.43-.09-.34-.38.07-.22.3-.38.48-.31l2.12.99c.09.04.12.19.2.33h.01zm-9.189-.11c.64 0 1.14 0 1.21.6.04.38-.34.75-.59.58-.52-.36-1.38.39-1.55-.39-.16-.71.62-.68.93-.8v.01zm3.029 1.161c.62-.22.97.12 1.38.13.32 0 .53.23.56.56.02.28-.13.48-.37.58-.31.13-.57-.01-.77-.25-.26-.3-.49-.63-.79-1.02h-.01zm-2.58 2.29c.04.34-.1.54-.32.5-.57-.1-.95-.49-1.07-1.03-.08-.37.22-.7.57-.61.57.15.5.86.83 1.14h-.01zm10.659-6.431c.48.09.83.39.87.96.02.3-.22.76-.39.63-.41-.32-.71-.81-.97-1.28-.11-.2.19-.31.48-.31h.01zm-5.699 3.07c.35.48.99.57 1.5.9.13.08.05.35-.11.42-.56.22-.84-.43-1.35-.47-.24-.02-.41-.26-.42-.54 0-.19.11-.29.37-.3l.01-.01zm6.74-7.89c-.67.36-.93 1-1.59.66-.19-.1-.32-.33-.17-.52.41-.52.93-.37 1.76-.13v-.01zm-10.419 9.84c.29.12.73.15.72.65 0 .27-.18.5-.47.46-.4-.06-.65-.35-.69-.76-.02-.24.15-.36.44-.35zm1.739-10.08c-.42.43-.74.31-1.03.03-.06-.06-.08-.29-.03-.32.4-.31.67.01 1.06.29zm-3.521-2.11c-.01.17-.07.32-.27.34-.25.03-.38-.1-.38-.35 0-.19.15-.3.32-.29.17 0 .3.1.32.3h.01zM109.48 9c-.09.07-.19.22-.33.25-.18.04-.29-.11-.28-.29 0-.18.13-.3.31-.31.18 0 .3.09.3.35zm-.919 3.4c-.04.15-.04.38-.27.3-.1-.03-.17-.25-.18-.39-.01-.15.03-.36.26-.31.18.04.19.23.19.4zm7.969 4.251c-.15.07-.25.16-.34.16-.18 0-.3-.12-.21-.29.03-.07.2-.11.3-.1.08.01.15.13.26.23h-.01zm4.689 1.379l-.09.21c-.07-.03-.18-.04-.2-.09s.05-.13.08-.2l.21.09v-.01z"/></g></g><defs><clipPath id="A"><path fill="#fff" d="M0 0h134.05v145.45H0z"/></clipPath><path id="B" d="M133.881 27.18v-.66a.51.51 0 0 1 0 .66z"/><path id="C" d="M133.881 23.18v-.67c.16.22.16.44 0 .67z"/><path id="D" d="M133.881 61.17v-.41a.26.26 0 0 1 0 .41z"/></defs></svg>