<svg xmlns="http://www.w3.org/2000/svg" width="225" height="125" fill="none" xmlns:v="https://vecta.io/nano"><g clip-path="url(#A)"><g fill="#545454"><path d="M0 25.04c.07.03.21.07.21.1l-.02 7.5c0 .05-.12.1-.18.15v-7.75H0zm0 82.49c.18-.08.29-.03.25.18-.03.18-.15.1-.25.07v-.25zm0 1c.18-.08.29-.03.25.18-.03.17-.15.1-.25.07v-.25z"/></g><path d="M75.68 56.29c-8.79 0-18-.02-27.2.03-1.24 0-1.56-.38-1.52-1.56.08-2.5.02-5 .03-7.5 0-4.23 2.92-8.19 7-9.32 1.26-.35 2.59-.43 3.92-.43l44.73-.04c3.59-.03 6.85-1.25 8.7-4.7 1.05-1.96 1.49-4.04.92-6.29-.65-2.58-1.87-4.75-4.16-6.16-1.82-1.12-3.87-1.54-5.99-1.54h-53.6c-1.59 0-1.54 0-1.53-1.66l.01-15.37c0-1.74 0-1.73 1.63-1.73l29.86-.03h19.74c4.28 0 8.56.14 12.7 1.33 3.55 1.02 6.83 2.64 9.64 5.09 1.53 1.34 3.25 2.59 4.39 4.22.81 1.16 1.79 2.27 2.41 3.6.37.8.64 1.69 1.42 2.27.19.14.25.5.31.77.63 2.84 1.39 5.67 1.84 8.54.36 2.37-.08 4.77-.45 7.13-.68 4.32-2.56 8.09-4.94 11.73-2.44 3.72-5.95 6.07-9.62 8.23a22.39 22.39 0 0 1-10.01 3.07c-9.93.6-19.87.07-30.22.3l-.01.02z" fill="#feac00"/><path d="M174.2.03l31.73.03c2.08.01 4.16.21 6.08 1.26 2.86 1.56 4.52 3.92 5.46 7.01.96 3.14.18 5.98-1.08 8.74-.41.9-1.08 1.88-2.15 2.24-.69.24-.54.93-.97 1.34l-24.21 24.22c-1.51 1.46-3 2.02-5.07 1.96-5.54-.14-11.08-.05-16.62-.05h-5.01c-.3 0-.64.03-.77-.27-.16-.35.22-.49.41-.67 7.54-7.06 14.65-14.55 22-21.8l4.11-4.12c.25-.25.7-.47.54-.9-.17-.45-.65-.23-.99-.24-4.46-.01-8.91 0-13.37 0-10.74 0-21.49-.02-32.23.03-1.31 0-1.52-.36-1.5-1.62.11-5.08.06-10.16.05-15.24 0-1.93-.02-1.92 1.85-1.92h31.73V.01l.01.02z" fill="#058ff6"/><path d="M145.17 74.71l.03-.67c.02-.07.02-.14.02-.21-.22-2.67 3.04-7.07 6.62-7.79.75-.15 1.49-.48 2.29-.31.09 0 .19-.02.28-.03l5.48-.04 34.85.06c3.55.03 6.64-.97 8.9-3.59 1.93-2.24 2.9-4.99 1.94-8.09-1.05-3.39-3.11-5.75-6.59-6.78-.86-.25-.43-.65-.04-1.03L209.17 36c.81-.81 1.65-1.6 2.4-2.45.68-.77 1.28-.59 1.92-.01 2.44 2.19 4.77 4.45 6.56 7.25 2.59 4.07 3.76 8.53 4.15 13.27.05.74-.15 1.49.13 2.21v.55c-.16.15-.16.3 0 .46 0 .18 0 .37-.01.55-.24.46-.09.96-.13 1.44-.08 2.63-.91 5.08-1.79 7.52-.74 2.06-1.76 4.03-3.02 5.76-1.37 1.88-3.01 3.59-4.78 5.15-2.27 2-4.88 3.47-7.62 4.61-2.77 1.15-5.71 1.97-8.76 1.98l-51.84.04c-1.01 0-1.48-.37-1.41-1.38l.2-2.81v-.26c-.13-.62-.14-1.25-.01-1.87.04-.05.04-.09 0-.14-.1-.29-.12-.57 0-.86.05-.05.05-.09 0-.14-.14-.62-.15-1.25 0-1.87 0-.09.01-.17.02-.26l-.01-.03z" fill="#0272f2"/><path d="M88.98 84.33c-13.62 0-27.24-.01-40.86.03-.99 0-1.16-.32-1.15-1.2l-.01-16.24c-.01-1.16.38-1.37 1.42-1.37l78.47.03h3.12c.77 0 1.14.32 1.13 1.12l-.03 16.62c0 .85-.32 1.03-1.11 1.03l-40.99-.02h.01z" fill="#feac00"/><g fill="#00a063"><path d="M33.04 56.94l.02 26.48c0 .82-.24 1.18-1.05 1.12-5.56-.44-11.14-.14-16.71-.22-.93-.01-.83-.59-.83-1.18V71.03l-.02-29.85c0-.76.27-1.49.06-2.28-.1-.38.25-.87.74-.98 2.4-.55 4.28-2.15 6.45-3.16 2.68-1.25 5.29-2.65 7.96-3.94a9.89 9.89 0 0 0 1.76-1.08c.46-.35.98-.25 1.43-.15.39.08.18.57.18.87v26.48h.01zM33.03 9.3l.05 7.49c.13 1.6-.69 2.22-1.84 2.72-2.51 1.09-4.86 2.48-7.3 3.7l-9.44 4.63-8.67 4.39-4.19 2.15c-.54.28-.99.27-.96-.53C.87 29.23.49 24.6.97 20c.29-2.76 1.98-4.88 4.38-6.11l24.21-12.2c.82-.42 1.65-.8 2.49-1.18.79-.36 1.01-.21 1 .66l-.02 8.12v.01z"/></g><g fill="#545454"><path d="M80.15 110.37c-.98-.05-.97.83-1.12 1.36-.63 2.39-1.57 4.65-2.48 6.94-.57 1.44-.88 2.98-1.38 4.44-.2.58-.37 1.22-1.12 1.49-1.3.48-2.03.25-2.48-1.02l-3.11-8.91c-.57-1.46-.82-3.08-1.85-4.35-.59.26-.37.73-.37 1.11 0 4.03.39 8.04.32 12.07-.02 1.08-.33 1.32-1.29 1.16-.45-.08-.91-.05-1.37-.05-1.67.02-1.78.02-1.65-1.7.43-5.73.08-11.47.2-17.21 0-.29.04-.59 0-.87-.23-1.56-.24-1.56 1.37-1.57.75 0 1.52.09 2.25-.03 1.49-.26 1.99.55 2.39 1.78l4.73 14c.67-1.87 1.31-3.42 1.77-5.01.95-3.29 2.44-6.4 3.16-9.76.14-.68.5-.98 1.18-.98l4.12-.05c.56-.02.76.25.74.75-.08 2.65.25 5.31-.12 7.96-.06.42.16.88.17 1.32l.04 10.37c.01.71-.33 1.03-.87 1.09-.99.1-1.99.08-2.99.08-.53 0-.4-.44-.4-.74l.02-11.37c0-.76.42-1.5.15-2.28l-.01-.02zm16.82 2.89v-9.61c0-.48-.15-1.04.66-1.03 3.18.01 6.37-.29 9.53.36 1.77.36 3.39.92 4.33 2.69 1.23 2.33.5 5.32-1.73 6.65-.64.38-.72.71.02.94 1.48.48 2.57 1.39 2.67 2.94.14 2.17.34 4.48-1.79 5.98-1.26.88-2.69 1.47-4.25 1.58-2.87.21-5.74.03-8.6.05-.79 0-.85-.32-.84-.96l.01-9.61-.01.02zm4.23 4.14v2.37c-.01.47.06.81.65.8l3.86-.06c1.09-.1 2.17-.48 2.5-1.7.75-2.8-.31-4.2-3.17-4.31-.29-.01-.58 0-.87-.01-1.967-.02-2.953.95-2.96 2.91h-.01zm.05-8.7v1.74c-.08.88.26 1.19 1.14 1.12.95-.08 1.91 0 2.86-.05.91-.05 1.96-.21 2.37-1.03.92-1.85.09-4.37-2.35-4.44-.46-.01-.91 0-1.37 0-1.773.02-2.653.907-2.64 2.66h-.01zm-55.23 11.91v3.37c0 .56-.18.81-.82.74-.87-.09-1.75-.07-2.62-.07-.76 0-1.23-.16-.88-1.07.1-.26.04-.58.04-.87l-.01-18.24c0-.93.14-1.24 1.2-1.26 2.83-.06 5.63.24 8.44.34 2.05.07 3.8 1.03 4.96 2.78 1.38 2.09.65 6.31-1.28 8.02-.37.33-.61.82-1.02 1.07-.56.34-.42.63-.19 1.07l3.65 6.99c.43.81.27 1.13-.66 1.07-.5-.04-1.01-.07-1.5-.02-1.36.16-2.16-.43-2.73-1.64l-2.84-5.57c-.2-.4-.42-.57-.84-.56-.42.02-.88-.09-1.24.05-.56.23-1.32-.5-1.63.19-.23.52-.04 1.23-.04 1.85v1.75l.01.01zm-.03-10.83v2.62c-.02.62.15.93.84.89l2.74-.04c1.32-.11 2.57-.58 3.09-1.88 1.03-2.56-.5-4.75-3.27-4.84-2.26-.073-3.39 1.01-3.39 3.25h-.01zm166.51-7.01c1.7-.17 3.27.15 4.83-.23.91-.22 1.52.68 2.37.87 2.59.56 3.38 2.7 3.97 4.87.53 1.97-1.15 5.34-3.15 6.4-.67.35-.62.55-.32 1.09l3.4 6.28c.99 1.94.92 1.9-1.22 2.01-1.89.1-2.96-.65-3.65-2.41-.69-1.77-1.7-3.42-2.52-5.14-.3-.63-.81-.46-1.27-.47-2.45-.04-2.45-.04-2.46 2.36l.02 4.49c.03.79-.13 1.17-1.01 1.1-1.07-.09-2.46.32-3.15-.22-.7-.55-.15-1.99-.16-3.03l-.06-16.98c-.01-.9.27-1.03 1.03-1l3.36.01h-.01zm-.08 6.48h-.02l-.02 2.49c-.07.76.17 1.07.95 1.04l2.87-.02c2.16-.11 3.66-2.13 3.14-4.19-.52-2.05-1.5-2.65-4.23-2.72-1.78-.047-2.673.797-2.68 2.53v.87h-.01zm-43.68 4v-9.61c0-.49-.12-1.07.66-1.07 2.63 0 5.38-.49 7.87.11 3.04.73 5.68 2.63 6.75 5.88 1.16 3.52 1.08 7.03-.43 10.46-1.37 3.11-4.02 4.38-7.16 4.74-2.13.25-4.3.16-6.45.31-.96.06-1.23-.3-1.22-1.2l.01-9.61h-.03v-.01zm11.93.15c.23-1.02-.01-2.05-.24-3.03-.37-1.61-.91-3.2-2.77-3.75-1.4-.41-3-.75-4.21-.15-.73.36-.19 1.99-.24 3.05-.14 3.27.2 6.55-.18 9.81-.06.56.34.76.77.94.92.38 1.87.11 2.76-.04 1.71-.28 3.08-1.17 3.59-2.94.36-1.26.76-2.52.53-3.89h-.01zM36 114.35c.21 2.89-.63 5.6-2.74 7.75-2.14 2.19-5.92 3.34-9.21 2.1-4.11-1.54-5.71-4.69-6.03-8.78-.24-3.06.24-5.96 2.02-8.52 1.43-2.06 3.34-3.4 5.98-3.38 1.6.01 3.22-.14 4.75.57 3.45 1.62 4.85 4.55 5.23 8.13.07.66 0 1.33 0 2.12v.01zm-8.86-7.32c-2.34 0-3.58.81-4.4 3.03-.95 2.58-.98 5.2-.03 7.8.74 2.02 2.18 3.29 4.79 3.16 1.77-.08 3.51-1.69 4.02-3.57.53-1.96.41-3.91.27-5.9-.16-2.16-1.74-4.94-4.65-4.52zm175 4.16c-.28.99-.2 1.82-.15 2.63.04.76-.17 1-.96.98-2.12-.06-4.25.02-6.37-.04-.94-.03-1.27.3-1.21 1.22.06.91.01 1.83.02 2.75 0 1.51.15 1.65 1.62 1.65l7.37-.03c.79-.02 1.04.23 1.02.98-.07 3.16.44 2.56-2.52 2.58-3.46.03-6.91-.04-10.37-.03-.95 0-1.24-.29-1.24-1.3l-.02-18.99c0-.76.27-.98.91-.98l12.49.06c.04 0 .09-.02.12 0 1.33.8.39 2.05.57 3.07.12.65-.34.7-1.05.64-1.89-.16-3.81-.27-5.71.04-.58.09-1.11.05-1.69-.13-.77-.25-1.4-.04-1.35 1.01.04.91.05 1.84-.02 2.75-.07.9.3 1.15 1.14 1.14 2.41-.04 4.83-.01 7.39-.01l.01.01zm-84.4-.49l-.02-7.12c-.01-.65.14-.89.81-.84 1.11.07 2.53-.32 3.25.23.67.52.18 2.02.19 3.09l.02 10.11c.02 1.38.3 2.58 1.66 3.49 2.2 1.48 4.53.8 5.37-1.74.22-.67.42-1.33.42-2.03l-.01-11.36c-.02-1.77-.06-1.77 1.74-1.77 1.52 0 2.277.767 2.27 2.3l-.01 11.36c-.04 2.13-.42 4.2-2.19 5.7-1.17.99-2.54 1.54-4.05 1.63-2.53.14-5 .1-7.19-1.57-1.5-1.15-2.11-2.67-2.21-4.37-.14-2.36-.03-4.74-.03-7.11h-.02zM9.06 107.03c-1.25 0-2.5.04-3.75-.01-.67-.03-.85.21-.83.85v3.24c-.11 1.17.42 1.43 1.44 1.41h5.49c.86-.01 1.38.16 1.1 1.18-.17.65.37 1.58-.14 1.94-.49.34-1.36.13-2.07.13-1.54 0-3.08.04-4.62-.01-.85-.03-1.16.2-1.13 1.12v6.74c0 .52-.07.97-.67.97-.97 0-1.94-.02-2.89-.15-.4-.05-.26-.57-.24-.87.45-6.27.14-12.55.13-18.82 0-1.34.88-1.36 1.74-1.38h8.87.25c2.29.05 2.24.05 2.29 2.42.02.95-.38 1.25-1.22 1.23l-1.87-.01H9.07l-.01.02zm140.86 6.19l-.02-9.49c0-.76.19-.98.97-.98 3.1-.01 3.1-.04 3.1 3.04l-.02 13.49c0 .87.25 1.14 1.12 1.12l7.49-.04c.66 0 .86.25.91.87.21 2.7.22 2.69-2.41 2.71l-7.23.07c-1.1-.03-2.21-.27-3.33-.21-.81.05-.56-.56-.56-.96v-9.62h-.03.01zm-6.25-.57l.01 7.62c.01 1.05-.52 2.08-.03 3.17.2.44-.39.48-.66.48-.91.03-1.83-.02-2.75-.03-.58 0-.77-.3-.77-.87v-19.63c0-.58.21-.83.79-.85 2.77-.08 3.45.31 3.42 3v7.12h-.01v-.01z"/></g><g fill="#058ff6"><path d="M224.33 56.26c-.28-.72-.08-1.47-.13-2.21.28.72.2 1.46.13 2.21zm-.13 3c.04-.48-.12-.98.13-1.44.08.49.1.97-.13 1.44z"/><path d="M224.33 57.27c-.15-.15-.16-.31 0-.46v.46zm-79.17 22.58v.26c-.02-.06-.06-.12-.07-.19 0-.02.04-.05.06-.08l.01.01zm0-2.01s.04.09 0 .14l-.05-.07.05-.07zm-.01-1s.05.1 0 .14l-.05-.07.05-.07z"/><path d="M145.17 74.71c0 .09-.01.17-.02.26a1.21 1.21 0 0 1-.05-.18c0-.02.04-.05.06-.08h.01zm.05-.88c0 .07 0 .14-.02.21-.01-.05-.03-.1-.04-.15 0-.02.04-.04.06-.06zm9.19-8.12c-.09 0-.19.02-.28.03.09 0 .19-.02.28-.03z"/></g></g><defs><clipPath id="A"><path fill="#fff" d="M0 0h224.4v124.84H0z"/></clipPath></defs></svg>