<svg xmlns="http://www.w3.org/2000/svg" viewBox="0 0 71.35 41.49"><defs><style>.cls-1{fill:#4488eb;}.cls-2{fill:#75adff;}.cls-3{fill:#fff;}</style></defs><g id="Layer_2" data-name="Layer 2"><g id="Layer_1-2" data-name="Layer 1"><path class="cls-1" d="M0,21.2V0H14.39V4.3H4.9V8.87h7.82v4H4.9V21.2Z"/><path class="cls-1" d="M23.17,21.5a9.35,9.35,0,0,1-3.57-.65A7.78,7.78,0,0,1,17,19.09a7.6,7.6,0,0,1-1.63-2.56,8.7,8.7,0,0,1,0-6.09A7.41,7.41,0,0,1,17,7.88,7.66,7.66,0,0,1,19.6,6.11a9.35,9.35,0,0,1,3.57-.65,9.17,9.17,0,0,1,3.55.65A7.65,7.65,0,0,1,31,10.44a8.42,8.42,0,0,1,0,6.09,7.6,7.6,0,0,1-4.27,4.32A9.17,9.17,0,0,1,23.17,21.5Zm-3.49-8a4.46,4.46,0,0,0,.46,2.08A3.43,3.43,0,0,0,21.38,17a3.26,3.26,0,0,0,1.79.5A3.22,3.22,0,0,0,25,17a3.55,3.55,0,0,0,1.24-1.41,4.64,4.64,0,0,0,.44-2.05,4.73,4.73,0,0,0-.44-2.09A3.43,3.43,0,0,0,25,10a3.29,3.29,0,0,0-1.78-.5,3.26,3.26,0,0,0-1.79.5,3.5,3.5,0,0,0-1.24,1.39A4.47,4.47,0,0,0,19.68,13.5Z"/><path class="cls-1" d="M43.86,9.61a8.43,8.43,0,0,0-3.13.56,3.82,3.82,0,0,0-2,1.62V21.2H33.92V5.7h4.39v3A6.49,6.49,0,0,1,40.4,6.21a4.78,4.78,0,0,1,2.69-.93h.49a2,2,0,0,1,.28,0Z"/><path class="cls-1" d="M70.64,21.2H65.87V12.57a3.44,3.44,0,0,0-.57-2.19,1.8,1.8,0,0,0-1.46-.71,3,3,0,0,0-1.89.76,4.18,4.18,0,0,0-1.31,2V21.2H55.86V12.57a3.53,3.53,0,0,0-.56-2.21,1.82,1.82,0,0,0-1.47-.69,3,3,0,0,0-1.85.75,4.22,4.22,0,0,0-1.34,1.93V21.2H45.86V5.7h4.3V8.35A5.82,5.82,0,0,1,52.5,6.21,7.56,7.56,0,0,1,56,5.46a4.45,4.45,0,0,1,3,.9,4,4,0,0,1,1.34,2.1,6.12,6.12,0,0,1,2.38-2.22A7,7,0,0,1,66,5.46,4.72,4.72,0,0,1,68.4,6a3.7,3.7,0,0,1,1.41,1.42,6.2,6.2,0,0,1,.65,1.9,11.41,11.41,0,0,1,.18,2Z"/><path class="cls-1" d="M0,32.05a7.24,7.24,0,0,1,.49-2.62A7.55,7.55,0,0,1,1.93,27.1a7,7,0,0,1,2.3-1.67,7.17,7.17,0,0,1,3.07-.62,6.89,6.89,0,0,1,3.56.88A5.75,5.75,0,0,1,13.11,28l-2.59,1.81a3,3,0,0,0-.87-1.21A3.29,3.29,0,0,0,8.46,28a5,5,0,0,0-1.24-.17,3.59,3.59,0,0,0-1.68.38,3.43,3.43,0,0,0-1.19,1,4.38,4.38,0,0,0-.7,1.42,5.6,5.6,0,0,0-.22,1.56,5.15,5.15,0,0,0,.26,1.66,4.63,4.63,0,0,0,.77,1.42,3.72,3.72,0,0,0,1.22,1,3.49,3.49,0,0,0,1.58.36,4,4,0,0,0,1.25-.21,3.48,3.48,0,0,0,1.18-.64,2.83,2.83,0,0,0,.83-1.16l2.75,1.62A4.35,4.35,0,0,1,11.86,38a7.07,7.07,0,0,1-2.23,1.16,7.85,7.85,0,0,1-2.45.4,6.52,6.52,0,0,1-2.9-.64A7.22,7.22,0,0,1,2,37.2,7.81,7.81,0,0,1,.52,34.78,7.39,7.39,0,0,1,0,32.05Z"/><path class="cls-1" d="M21.52,31.51a5.93,5.93,0,0,0-2.16.38A2.68,2.68,0,0,0,18,33v6.46H14.69V28.83h3v2.05a4.51,4.51,0,0,1,1.44-1.71A3.27,3.27,0,0,1,21,28.54h.34l.2,0Z"/><path class="cls-1" d="M22.13,36.3a3,3,0,0,1,.6-1.84,4,4,0,0,1,1.64-1.24,6,6,0,0,1,2.4-.46,6.88,6.88,0,0,1,1.29.12,5.23,5.23,0,0,1,1.11.31v-.47a1.61,1.61,0,0,0-.54-1.3A2.39,2.39,0,0,0,27,31a4.53,4.53,0,0,0-1.69.31,9.37,9.37,0,0,0-1.67.88l-1-2.09a8.33,8.33,0,0,1,2.22-1,8.53,8.53,0,0,1,2.45-.35,5.66,5.66,0,0,1,3.77,1.14,4.06,4.06,0,0,1,1.34,3.28v2.76a1.12,1.12,0,0,0,.15.67.76.76,0,0,0,.55.23v2.73a6.06,6.06,0,0,1-.77.12,5.27,5.27,0,0,1-.63,0,2.31,2.31,0,0,1-1.4-.37,1.64,1.64,0,0,1-.61-1l-.06-.47A4.87,4.87,0,0,1,28,39.19a4.64,4.64,0,0,1-2.08.49A4,4,0,0,1,24,39.23,3.44,3.44,0,0,1,22.62,38,3.19,3.19,0,0,1,22.13,36.3Zm6.52.39a1.73,1.73,0,0,0,.37-.4.72.72,0,0,0,.15-.42V35a4.74,4.74,0,0,0-.92-.25,5.21,5.21,0,0,0-.93-.09,2.7,2.7,0,0,0-1.5.39,1.16,1.16,0,0,0-.59,1,1.14,1.14,0,0,0,.2.65,1.5,1.5,0,0,0,.57.48,1.87,1.87,0,0,0,.85.18,2.78,2.78,0,0,0,1-.18A2.65,2.65,0,0,0,28.65,36.69Z"/><path class="cls-1" d="M35.51,39.47v-7.4H34.13V29.58h1.38V28.7A5.46,5.46,0,0,1,36,26.36a3.5,3.5,0,0,1,3.29-2.07,6,6,0,0,1,1.39.17,8.14,8.14,0,0,1,1.42.47l-.6,2.46a3.68,3.68,0,0,0-.71-.24,3.63,3.63,0,0,0-.76-.09,1.09,1.09,0,0,0-.9.38,1.74,1.74,0,0,0-.31,1.14v1h2.5v2.49h-2.5v7.4Z"/><path class="cls-1" d="M49.68,38.9l-1,.37a8.13,8.13,0,0,1-1.13.29,6,6,0,0,1-1.17.12,4.1,4.1,0,0,1-1.51-.28,2.23,2.23,0,0,1-1.09-.9,3.07,3.07,0,0,1-.4-1.65V31.31H42V28.83h1.37V25.4h3.28v3.43h2.2v2.48h-2.2V35.7a.93.93,0,0,0,.27.75,1,1,0,0,0,.68.23,2.65,2.65,0,0,0,.75-.12,4,4,0,0,0,.68-.27Z"/><rect class="cls-2" x="52.66" y="23.23" width="18.13" height="17.56" rx="3.65" transform="translate(-1.68 3.46) rotate(-3.17)"/><rect class="cls-1" x="52.59" y="23.23" width="17.77" height="17.22" rx="2.85" transform="translate(-4.94 12.29) rotate(-10.98)"/><path class="cls-3" d="M64,31.18a3.56,3.56,0,0,1,1.77.68A4.29,4.29,0,0,1,67,33.3a4.69,4.69,0,0,1,.52,2,4.29,4.29,0,0,1-.63,2.62,4.93,4.93,0,0,1-2.11,1.82,8.69,8.69,0,0,1-3.34.78,8.8,8.8,0,0,1-3.2-.35,6.58,6.58,0,0,1-2.49-1.43L57.59,36a4.56,4.56,0,0,0,1.51.9A4.77,4.77,0,0,0,61,37.1a3.29,3.29,0,0,0,2-.61,1.79,1.79,0,0,0,.57-1.56,1.92,1.92,0,0,0-.88-1.62,4.37,4.37,0,0,0-2.5-.42l-.7,0-.15-2.69.77,0a3.31,3.31,0,0,0,2-.68A1.78,1.78,0,0,0,62.8,28a1.48,1.48,0,0,0-1-1.39,2.84,2.84,0,0,0-1-.12,3.51,3.51,0,0,0-3,1.93l-2.52-2.59a4.57,4.57,0,0,1,1.35-1.26,8.06,8.06,0,0,1,2-.9A9.64,9.64,0,0,1,61,23.26a7.65,7.65,0,0,1,3,.36A4.45,4.45,0,0,1,66,25a3.65,3.65,0,0,1,.82,2.19,4.22,4.22,0,0,1-.28,1.77,3.66,3.66,0,0,1-1,1.43A3.45,3.45,0,0,1,64,31.18Z"/></g></g></svg>