<svg xmlns="http://www.w3.org/2000/svg" viewBox="0 0 40.14 40.1"><defs><style>.cls-1{fill:#e35246;}.cls-2{fill:#323232;}.cls-3{fill:#343434;}.cls-4{fill:#303030;}</style></defs><g id="Layer_2" data-name="Layer 2"><g id="Layer_1-2" data-name="Layer 1"><path class="cls-1" d="M36.36,22.47a6.24,6.24,0,0,0-6.29-4.79c-.39,0-.7,0-.94-.4C28,15.12,26.76,13,25.55,10.85a.84.84,0,0,1,.07-1,5.82,5.82,0,0,0,1.09-3.53,9.39,9.39,0,0,0-.1-1.19A6.3,6.3,0,0,0,15.18,2.83a6.17,6.17,0,0,0,0,6.93.84.84,0,0,1,0,1.07c-1.15,1.95-2.3,3.9-3.39,5.89a1.58,1.58,0,0,1-1.61,1,5.86,5.86,0,0,0-5.69,3.72,5.9,5.9,0,0,0,1.14,6.77,6,6,0,0,0,6.67,1.66,6.22,6.22,0,0,0,3.25-9.27c-.2-.32-.43-.61-.19-1,1.3-2.22,2.58-4.45,3.87-6.67.38-.65,1-.19,1.48-.31s.64.06.85.44q1.74,3.2,3.54,6.37a.79.79,0,0,1,0,1,6.06,6.06,0,0,0-.69,5.86,6.29,6.29,0,0,0,12-3.79Zm-26.1,3.6A2.1,2.1,0,0,1,8.13,24a2.13,2.13,0,0,1,2.15-2.15A2.08,2.08,0,0,1,12.39,24,2.06,2.06,0,0,1,10.26,26.07ZM20.44,8.44a2.15,2.15,0,0,1-2.16-2.15,2.14,2.14,0,0,1,4.28,0A2.16,2.16,0,0,1,20.44,8.44ZM30.3,26.07A2.08,2.08,0,0,1,28.12,24a2.11,2.11,0,0,1,2.16-2.13,2.12,2.12,0,0,1,0,4.24Z"/><path class="cls-2" d="M35.45,34.62c-.39,1.7-.77,3.37-1.16,5a.34.34,0,0,1-.38.32,8,8,0,0,0-.85,0c-.37,0-.53-.07-.61-.47-.19-.91-.45-1.81-.72-2.87-.27,1.07-.52,2-.7,2.88-.14.72-.66.39-1,.45s-.66,0-.76-.47c-.34-1.61-.72-3.21-1.1-4.86,1.5-.14,1.48-.13,1.82,1.24a7.83,7.83,0,0,0,.48,1.84c.21-1,.43-1.82.58-2.71.07-.45.33-.46.64-.41s.82-.25,1,.39a13.28,13.28,0,0,0,.76,2.55,14.2,14.2,0,0,0,.46-2.11c.06-.78.45-.93,1.1-.84Z"/><path class="cls-3" d="M10.27,37c-.56-.07-.55.25-.54.63,0,.59,0,1.19,0,1.77S9.45,40,9,40s-.72,0-.67-.58,0-1.32,0-2c0-.49-.26-.44-.58-.44s-.6,0-.57.44c0,.71,0,1.42,0,2.13s-.39.42-.67.4-.77.23-.73-.42c0-.35,0-.7,0-1.06s0-.71,0-1.06c0-.17.05-.33-.21-.45a.52.52,0,0,1,0-1c.26-.12.17-.3.2-.46a1.31,1.31,0,0,1,1.5-1.26c.25,0,.62-.13.65.32s.16.74-.45.71c-.24,0-.34.22-.33.46s.26.2.42.22c.42,0,.73,0,.74-.58a1.46,1.46,0,0,1,1.91-1.16c.35.12.2.38.21.58s.08.46-.28.43a.41.41,0,0,0-.49.45c0,.43.31.26.5.27.35,0,.29.26.27.46S10.66,37,10.27,37Z"/><path class="cls-4" d="M4.16,36.05c-.49-1.56-.48-1.55-2.08-1.48a.51.51,0,0,0-.55.41c-.47,1.53-1,3-1.45,4.56,0,.13-.14.26,0,.39s1.41,0,1.47-.4.35-.6.78-.55a4.07,4.07,0,0,0,.78,0c.28,0,.45.06.49.37.06.56.4.7.92.62a7,7,0,0,1,.92,0C5,38.6,4.55,37.33,4.16,36.05ZM2.82,37.93H2c.18-.65.34-1.22.51-1.79l.14,0c.15.51.31,1,.46,1.54C3.17,37.9,3,37.93,2.82,37.93Z"/><path class="cls-4" d="M38.44,34.6c-.71,0-1.42,0-2.13,0-.34,0-.44.12-.43.44,0,.76,0,1.51,0,2.27s0,1.46,0,2.19c0,.16-.07.43.1.45a3.5,3.5,0,0,0,1.33,0c.28-.08.11-.51.12-.77,0-1,0-1,.94-1a1.63,1.63,0,0,0,1.76-1.7A1.65,1.65,0,0,0,38.44,34.6Zm-.56,2.51c-.41,0-.5-.18-.43-.49s-.28-.82.21-.9c.64,0,1,.17,1,.7S38.34,37.07,37.88,37.11Z"/><path class="cls-3" d="M20.15,36.19a2.5,2.5,0,0,0-2.43.05,1.06,1.06,0,0,0-.53.64c-.1.28-.14.51.29.48s.84.08,1.13-.38a.41.41,0,0,1,.58,0c.16.12.29.28.22.48s-.33.1-.5.13c-.33.06-.66.07-1,.14a1.22,1.22,0,0,0-.9,1.68,1.4,1.4,0,0,0,1.76.61,1.09,1.09,0,0,1,.88-.08c.85.33,1.11.06,1.11-.83V37.81C20.79,37.19,20.8,36.53,20.15,36.19Zm-1.36,2.94c-.25,0-.5,0-.48-.36s.35-.37.64-.39.47-.12.47.22S19.14,39.12,18.79,39.13Z"/><path class="cls-3" d="M27.57,38.68a1,1,0,0,0-.94.28c-.26.31-.69.23-1,0a.45.45,0,0,1-.19-.43c.06-.24.27-.14.41-.15.31,0,.62,0,.92,0h.57c.85,0,.92-.09.77-.92a1.6,1.6,0,0,0-.11-.33A1.94,1.94,0,0,0,25.64,36,2,2,0,0,0,24,37.8a2,2,0,0,0,1.26,2.14,2.32,2.32,0,0,0,2.69-.63c.09-.16.25-.33.16-.52S27.74,38.68,27.57,38.68Zm-1.23-1.82a.49.49,0,0,1,.42.49c0,.34-.32.17-.49.19a8.55,8.55,0,0,1-.89,0C25.52,36.91,25.86,36.77,26.34,36.86Z"/><path class="cls-2" d="M23.69,39.72c0,.44-.42.37-.7.38a1.25,1.25,0,0,1-1.41-1.32c0-.4,0-.81,0-1.21,0-.23.18-.61-.32-.61,0,0-.12-.15-.12-.22,0-.23-.09-.65.07-.66.61,0,.14-1.4,1-.87.44,0,.84-.1.75.49,0,.2.05.33.27.3.4-.06.46.14.46.48s0,.56-.45.5c-.22,0-.29.09-.29.29,0,.45,0,.9,0,1.34,0,.19.07.38.26.36C23.92,38.91,23.71,39.41,23.69,39.72Z"/><path class="cls-4" d="M14.36,39.55c0,.6-.39.41-.67.4s-.7.21-.68-.39c0-.83,0-1.66,0-2.48s0-1.56,0-2.34c0-.57.33-.46.64-.44s.72-.21.71.44C14.33,36.34,14.33,38,14.36,39.55Z"/><path class="cls-3" d="M12.32,36.65c0,.94,0,1.89,0,2.83,0,.69-.43.46-.76.48s-.72.1-.65-.5a12.18,12.18,0,0,0,0-1.48,9.1,9.1,0,0,0,0-1.28c-.08-.62.18-.73.75-.72S12.35,36.11,12.32,36.65Z"/><path class="cls-3" d="M16.46,39.54c0,.71-.5.37-.79.42s-.67.09-.63-.46,0-1,0-1.55,0-1,0-1.48.29-.51.62-.46.8-.28.79.42C16.44,37.47,16.44,38.5,16.46,39.54Z"/><path class="cls-3" d="M11.59,35.66a.7.7,0,1,1,0-1.4c.39,0,.71.19.73.66S12,35.65,11.59,35.66Z"/><path class="cls-3" d="M15.76,35.65a.7.7,0,0,1-.1-1.39c.5,0,.81.19.84.65A.67.67,0,0,1,15.76,35.65Z"/></g></g></svg>