<svg width="64" height="63" viewBox="0 0 64 63" fill="none" xmlns="http://www.w3.org/2000/svg">
<path d="M62.3366 38.7577C61.9925 40.8457 61.7383 42.9158 61.2928 44.9441C60.6737 47.7633 59.5617 50.4028 57.9204 52.7962C56.6659 54.625 55.1433 56.1978 53.3582 57.5236C50.6416 59.5416 47.583 60.7579 44.2996 61.4785C41.4864 62.0957 38.6364 62.4302 35.77 62.6539C33.0454 62.8664 30.3151 62.8871 27.5912 62.7207C24.5887 62.5375 21.6066 62.1569 18.6597 61.5216C16.8256 61.1264 15.0369 60.5902 13.3286 59.8265C11.0587 58.8114 9.01252 57.4581 7.2399 55.6905C5.48834 53.9445 4.12538 51.9377 3.08067 49.7145C2.19886 47.8383 1.59669 45.8634 1.16325 43.8355C0.567164 41.0464 0.32521 38.2153 0.137568 35.3785C-0.0769759 32.135 -0.0382024 28.8908 0.23727 25.6529C0.470421 22.9123 0.837948 20.1889 1.53589 17.5217C2.17 15.0984 3.09277 12.7911 4.42961 10.6642C5.56557 8.85684 6.95843 7.27029 8.6053 5.90364C11.473 3.52384 14.7853 2.10239 18.405 1.34014C23.294 0.3106 28.2436 -0.103121 33.2315 0.0215258C37.6941 0.133042 42.1081 0.671045 46.4119 1.90845C49.5576 2.81281 52.4081 4.28533 54.8454 6.4902C56.8679 8.31967 58.4259 10.4918 59.5889 12.961C60.8408 15.6186 61.5186 18.4295 61.9826 21.3097C62.7903 26.3204 62.8831 31.3543 62.5227 36.4053C62.4674 37.1776 62.4018 37.9492 62.3366 38.7577ZM5.63844 21.2193C5.07452 24.3949 4.80674 27.5991 4.8263 30.8202C4.8386 32.8473 4.93167 34.8767 5.07094 36.8994C5.24413 39.4155 5.5635 41.9127 6.23547 44.3583C6.94427 46.9384 8.03395 49.3128 9.76928 51.3705C11.3226 53.2117 13.2495 54.5431 15.4415 55.5133C17.5483 56.4456 19.7877 56.893 22.0388 57.2787C24.69 57.7335 27.3656 57.9593 30.0557 58.0046C33.9687 58.071 37.8529 57.7748 41.7108 57.1098C44.3751 56.6503 46.9307 55.9068 49.2684 54.5C51.4182 53.2066 53.1277 51.4834 54.4288 49.3538C55.7395 47.209 56.4971 44.851 56.9689 42.4034C57.6609 38.8147 57.8858 35.1778 57.9286 31.5311C57.9588 28.967 57.8142 26.4089 57.4852 23.8624C57.1394 21.1868 56.703 18.5342 55.6933 16.0102C54.9274 14.0959 53.8897 12.3441 52.4616 10.8526C50.2919 8.58586 47.6202 7.16616 44.6 6.37564C40.4129 5.27958 36.1469 4.79655 31.8251 4.80107C29.1235 4.80392 26.4226 4.9043 23.7472 5.30725C21.9924 5.57155 20.2354 5.85339 18.5055 6.24328C16.0793 6.79014 13.8675 7.85396 11.9002 9.37905C9.98659 10.8625 8.57987 12.7638 7.54325 14.9354C6.60086 16.9097 6.02533 19.002 5.63844 21.2193Z" fill="#151A45"/>
<path d="M5.64535 21.1856C6.02559 19.0018 6.60117 16.9095 7.54355 14.9352C8.58014 12.7636 9.9869 10.8623 11.9004 9.37885C13.8677 7.85377 16.0796 6.78995 18.5058 6.24308C20.2356 5.85319 21.9927 5.57135 23.7475 5.30705C26.423 4.9041 29.1237 4.80372 31.8254 4.80087C36.1472 4.79639 40.4132 5.27938 44.6003 6.37544C47.6204 7.16596 50.2921 8.58567 52.4623 10.8524C53.8899 12.3439 54.9277 14.0957 55.6935 16.01C56.7032 18.534 57.1397 21.1866 57.4855 23.8622C57.8144 26.4087 57.959 28.9668 57.9292 31.5309C57.8861 35.1776 57.6612 38.8145 56.9691 42.4032C56.4973 44.8505 55.7397 47.209 54.4291 49.3537C53.1284 51.4829 51.4184 53.2061 49.2686 54.5C46.931 55.9068 44.3753 56.6499 41.7111 57.1093C37.8531 57.7748 33.969 58.0705 30.056 58.0045C27.3659 57.9589 24.6903 57.733 22.0391 57.2787C19.788 56.893 17.5486 56.4456 15.4417 55.5129C13.2498 54.5427 11.3228 53.2117 9.76958 51.37C8.03422 49.3128 6.94454 46.9379 6.23574 44.3583C5.56376 41.9125 5.24444 39.4153 5.0712 36.8992C4.93194 34.8765 4.83886 32.8471 4.82656 30.82C4.807 27.5989 5.07483 24.3947 5.64535 21.1856ZM20.4022 31.9087C20.4241 31.9857 20.4442 32.0632 20.4683 32.1395C20.8449 33.332 22.1009 34.0911 23.3246 33.8663C24.5988 33.6323 25.5169 32.4618 25.4241 31.1895C25.3176 29.7293 24.0135 28.6759 22.5335 28.8546C21.1156 29.0259 20.1334 30.3938 20.4022 31.9087ZM37.3629 30.5448C37.3321 30.6745 37.2958 30.8031 37.2713 30.9339C37.0358 32.1922 37.8358 33.4636 39.0745 33.8026C40.3285 34.1456 41.6841 33.4844 42.134 32.3102C42.6329 31.0085 42.0048 29.5263 40.7377 29.015C39.4064 28.4778 37.93 29.1248 37.3629 30.5448ZM32.4849 33.677C33.4745 33.2222 34.0515 32.137 33.9107 31.3807C32.2495 31.3807 30.5855 31.3807 28.9241 31.3807C28.7728 32.921 30.5419 34.4814 32.4849 33.677Z" fill="#00FFA3"/>
<path d="M20.3946 31.8766C20.1333 30.3941 21.1155 29.0262 22.5334 28.855C24.0133 28.6762 25.3175 29.7296 25.4239 31.1898C25.5167 32.4621 24.5986 33.6327 23.3244 33.8666C22.1008 34.0914 20.8448 33.3323 20.4681 32.1398C20.444 32.0635 20.424 31.986 20.3946 31.8766Z" fill="#141B45"/>
<path d="M37.3737 30.5146C37.9298 29.1249 39.4062 28.4779 40.7375 29.0151C42.0046 29.5264 42.6326 31.0085 42.1338 32.3102C41.6838 33.4845 40.3282 34.1457 39.0743 33.8026C37.8356 33.4637 37.0356 32.1922 37.2711 30.9339C37.2956 30.8031 37.3318 30.6745 37.3737 30.5146Z" fill="#141B45"/>
<path d="M32.4569 33.691C30.5415 34.4817 28.7724 32.9212 28.9236 31.3809C30.585 31.3809 32.249 31.3809 33.9103 31.3809C34.051 32.1373 33.474 33.2225 32.4569 33.691Z" fill="#131F47"/>
</svg>
