<svg xmlns="http://www.w3.org/2000/svg" xmlns:xlink="http://www.w3.org/1999/xlink" viewBox="0 0 25.67 40.53"><defs><style>.cls-1{fill:url(#linear-gradient);}.cls-2{fill:url(#linear-gradient-2);}</style><linearGradient id="linear-gradient" x1="14.12" y1="-1.6" x2="12.08" y2="8.89" gradientUnits="userSpaceOnUse"><stop offset="0" stop-color="#f1479d"/><stop offset="1" stop-color="#9434d3"/></linearGradient><linearGradient id="linear-gradient-2" x1="9.6" y1="9.55" x2="16.45" y2="36.22" xlink:href="#linear-gradient"/></defs><g id="Layer_2" data-name="Layer 2"><g id="Layer_1-2" data-name="Layer 1"><path class="cls-1" d="M17.83,5.28V4.73a.51.51,0,0,0,0-.34h0l0-.27-.06-.27a.3.3,0,0,0-.12-.27v-.2h0c0-.11-.09-.22-.13-.34a.53.53,0,0,0-.13-.27A1.18,1.18,0,0,0,17,2.3.76.76,0,0,0,16.78,2a1.12,1.12,0,0,0-.35-.4,1.1,1.1,0,0,0-.35-.33,1.23,1.23,0,0,0-.46-.35,2.23,2.23,0,0,0-.74-.41h0A7.51,7.51,0,0,0,13.52,0H12.16a8.15,8.15,0,0,0-1.35.43,2.52,2.52,0,0,0-.76.44h0a1.2,1.2,0,0,0-.46.34,1.27,1.27,0,0,0-.38.35h0l-.29.34a1.43,1.43,0,0,0-.33.47.63.63,0,0,0-.16.26A.76.76,0,0,0,8.26,3a.81.81,0,0,0-.14.33,1.18,1.18,0,0,1-.07.2l0,.14H8a2,2,0,0,1-.08.26h0l0,.08-.07.47c0,.09,0,.18,0,.27v.68a.75.75,0,0,0,.06.42h0V6A1,1,0,0,0,8,6.44H8a.24.24,0,0,0,.06.2c0,.07,0,.15.06.2a.65.65,0,0,0,.14.29h0a.6.6,0,0,0,.15.31.38.38,0,0,0,.12.21,1.36,1.36,0,0,0,.34.48l.15.19a.64.64,0,0,0,.26.28,1.15,1.15,0,0,0,.33.29,1.43,1.43,0,0,0,.42.31,1.33,1.33,0,0,0,.41.25,2.08,2.08,0,0,0,.72.3,4.5,4.5,0,0,0,3.27,0,1.09,1.09,0,0,0,.6-.26l.54-.29A1,1,0,0,0,16,8.93a1.06,1.06,0,0,0,.4-.36c.14-.06.2-.2.29-.31h0l.12-.14a1,1,0,0,0,.28-.4.73.73,0,0,0,.2-.34.45.45,0,0,0,.14-.33L17.44,7a1.19,1.19,0,0,0,.15-.41c.06,0,.05-.12.06-.19a.37.37,0,0,0,.06-.27.65.65,0,0,0,.07-.41A.65.65,0,0,0,17.83,5.28Zm-.07-.61v0Z"/><path class="cls-2" d="M25.61,20.9c0-.26,0-.52,0-.77a.42.42,0,0,0-.26-.4.4.4,0,0,0-.46.12l-1,1a8.12,8.12,0,0,0-.88.88,9.27,9.27,0,0,0-.94.94,6.35,6.35,0,0,0-.82.82,2.76,2.76,0,0,0-.54.54,4.25,4.25,0,0,0-.6.6,4.86,4.86,0,0,0-.68.68,10.55,10.55,0,0,0-.89.88,3,3,0,0,0-.53.54,7,7,0,0,0-.82.81,9.24,9.24,0,0,0-.89.88l-.6.6h0l-.34.34h0l-.47.47-.79.76a3,3,0,0,0-.53.54l-.42.41-.25.27c-.19.22-.36.19-.51,0,0-.05-.09-.07-.13-.11h0a2.61,2.61,0,0,0-.47-.47c-.16-.26-.45-.37-.62-.61a6.12,6.12,0,0,0-.8-.81A7.74,7.74,0,0,0,9.59,29,2.56,2.56,0,0,0,9,28.41a7.31,7.31,0,0,0-.88-.88l-.65-.75-.36-.54-.25-.41-.28-.54c-.09-.24-.18-.49-.28-.74l-.13-.48-.14-.67L6,22.72c0-.47,0-.94,0-1.4.05-.26.09-.51.13-.76l.21-.74.18-.48a1.19,1.19,0,0,0,.08-.2,1.71,1.71,0,0,0,.27-.54l.48-.74a4.58,4.58,0,0,1,.57-.67h0a.88.88,0,0,0,.31-.35c.2,0,.25-.21.4-.28a8.16,8.16,0,0,1,1.62-.74,8.4,8.4,0,0,1,3.92-.28.74.74,0,0,1,.46.51v.17l-.13.28a5.22,5.22,0,0,0-1,.81,5.16,5.16,0,0,0-1,1.15,5.63,5.63,0,0,0-.65,1.08,4.65,4.65,0,0,0-.45,1,1.55,1.55,0,0,0-.13.61c0,.18-.05.36-.07.54s0,.45,0,.68a3,3,0,0,0,.06,1,1.85,1.85,0,0,0,.13.73,3.36,3.36,0,0,0,.33,1,3.12,3.12,0,0,0,.42.86,4.51,4.51,0,0,0,.69,1c.09.11.16.15.29,0,.3-.34.63-.66.94-1h0c.35-.24.52-.65.85-.9a6.1,6.1,0,0,0,.89-.87,7.11,7.11,0,0,0,.93-1,7.5,7.5,0,0,0,.85-.84,7.48,7.48,0,0,0,.74-.75,1.38,1.38,0,0,0,.38-.42,2.7,2.7,0,0,0,.67-.68,5.64,5.64,0,0,0,.89-.87,15,15,0,0,0,1.18-1.21c.37-.33.72-.7,1.06-1.07a3.62,3.62,0,0,0,.74-.82l.32-.29a.93.93,0,0,0,.35-.33c.33-.18.16-.4,0-.61s-.17-.32-.26-.47l-.27-.41a1.29,1.29,0,0,0-.4-.47,2.86,2.86,0,0,0-.73-.82c-.11-.19-.31-.27-.47-.4s-.17-.12-.22-.2a1.06,1.06,0,0,0-.4-.33h0l-.33-.22-.73-.54a4.61,4.61,0,0,0-1-.6,9.94,9.94,0,0,0-1.5-.82.92.92,0,0,0-.93.08c-.37.24-.72.49-1.08.73a8.55,8.55,0,0,1-1.83.61h0a8.07,8.07,0,0,1-2.3-.12,12.13,12.13,0,0,1-1.75-.62h0c-.36-.21-.71-.44-1.07-.64a1,1,0,0,0-.94,0,8.14,8.14,0,0,0-1.31.68h0a6.23,6.23,0,0,0-1,.62,4.36,4.36,0,0,0-.81.6.7.7,0,0,0-.34.27,1.48,1.48,0,0,0-.4.35.87.87,0,0,0-.28.26,1.22,1.22,0,0,0-.34.34,5.27,5.27,0,0,0-.74.82,1.62,1.62,0,0,0-.34.47,1.09,1.09,0,0,0-.27.4,2.5,2.5,0,0,0-.42.68,2.91,2.91,0,0,0-.37.75l-.2.41L.87,17a2.53,2.53,0,0,0-.26.76,2.25,2.25,0,0,0-.2.67l-.13.48c0,.08,0,.16,0,.25a1.88,1.88,0,0,0-.11.62,2.37,2.37,0,0,0-.08.75,3.64,3.64,0,0,0-.06.87v.48a3.42,3.42,0,0,0,0,1,2.11,2.11,0,0,0,.07.75,1.12,1.12,0,0,0,.07.54.93.93,0,0,0,.07.46,1.79,1.79,0,0,0,.13.68,1.75,1.75,0,0,0,.14.6c0,.15.06.27.08.41s.12.36.19.54a2.27,2.27,0,0,0,.34.94,3,3,0,0,0,.4.75,2.11,2.11,0,0,0,.41.61,3.76,3.76,0,0,0,.6.82h0a3.09,3.09,0,0,0,.52.67,4.55,4.55,0,0,0,.63.75,1.45,1.45,0,0,0,.34.4h0a2.88,2.88,0,0,0,.54.61,7.26,7.26,0,0,0,.88,1,8.67,8.67,0,0,0,.88.94,4.93,4.93,0,0,0,.6.61.61.61,0,0,0,.19.2h0l.41.4.4.41.35.35h0a5.38,5.38,0,0,0,.69.66,6.35,6.35,0,0,0,.95.92c.33.33.67.65,1,1l1,.88.78.74c.09.09.18.15.31,0s.53-.51.8-.76l.94-.9,1-1h0a7.93,7.93,0,0,0,.82-.82,7.09,7.09,0,0,0,.77-.78c.06-.07.07-.18.17-.22a.9.9,0,0,0,.42-.46l.39-.36c.13,0,.19-.17.27-.27a3.92,3.92,0,0,0,.55-.6,6.43,6.43,0,0,0,.95-1,3.93,3.93,0,0,0,.82-1l.48-.47h0l.18-.2c.14-.16.28-.31.41-.47l.41-.46a3.91,3.91,0,0,0,.68-.84l.41-.47a.8.8,0,0,0,.26-.34c.2-.12.23-.38.41-.53a3.13,3.13,0,0,0,.54-.8,2.11,2.11,0,0,0,.4-.89h0l.14-.47h0a3.16,3.16,0,0,0,.2-1,1,1,0,0,0,.07-.52h0a1.55,1.55,0,0,0,.07-.61,2.88,2.88,0,0,0,.05-.83c0-.15,0-.3,0-.45a.38.38,0,0,0,0-.21A11.06,11.06,0,0,0,25.61,20.9Z"/></g></g></svg>