<svg xmlns="http://www.w3.org/2000/svg" viewBox="0 0 40 40"><defs><style>.cls-1{fill:none;}.cls-2{fill:#ff7b01;}.cls-3{fill:#fff;}.cls-4{fill:#cfa756;}</style></defs><g id="Layer_2" data-name="Layer 2"><g id="Layer_1-2" data-name="Layer 1"><g id="Layer_2-2" data-name="Layer 2"><rect class="cls-1" width="40" height="40"/></g><g id="Layer_1-3" data-name="Layer 1"><path class="cls-2" d="M37.71,28.61V11.39a2.65,2.65,0,0,0-1.33-2.3L21.46.47a2.67,2.67,0,0,0-2.65,0L3.89,9.09a2.68,2.68,0,0,0-1.32,2.3V28.62a2.68,2.68,0,0,0,1.32,2.3l14.92,8.61a2.64,2.64,0,0,0,2.66,0l14.91-8.61a2.67,2.67,0,0,0,1.33-2.3h0"/><path class="cls-3" d="M8,28.49a2.3,2.3,0,0,0-.25-.43s-1.15.72-2.19-.83-.72-6.53-.72-6.53a2.69,2.69,0,0,1-2.47-2c-.47-2,1.72-3.77,2.55-4.2a11.77,11.77,0,0,1,.53-2.62S3.18,10.76,3.69,7.49s4.16-5,6.64-3.11a15.37,15.37,0,0,1,17-1.16A4.09,4.09,0,0,1,33,4a4,4,0,0,1-.18,5.35,9,9,0,0,1,1,2.08,6.11,6.11,0,0,1,2.69,2.8,2.25,2.25,0,0,1-1.15,2.65,15.65,15.65,0,0,1,.93,5.28C36.08,25,35,26,34.14,25.87A8.45,8.45,0,0,1,32.46,29a13.21,13.21,0,0,1,2,3.05l-13,7.48a2.62,2.62,0,0,1-2.65,0L4.5,31.26A20.8,20.8,0,0,1,8,28.48Z"/><path class="cls-4" d="M11,28.75A22.82,22.82,0,0,1,8.52,25s-1.63,1.76-1.78-1.2-.08-4.75-.08-4.75-3-.07-2.58-1.29,2.8-3,2.8-3a14.65,14.65,0,0,1,.79-4.09C5.88,10,5.23,8.87,6,7a2.51,2.51,0,0,1,4.38-.64c5.31-4.24,13.27-4.16,17.15-.86,1.44-1.8,3.23-2,4.45-.22s-1.22,3.58-1.22,3.58l1.44,3.24s2.41,1.45,2.46,2.55-1.24.61-1.24.61,1.43,4.37,1.29,6.74-1.51,1.51-1.51,1.51a14.17,14.17,0,0,1-2.94,5.31A19.09,19.09,0,0,1,32.74,33L21.47,39.54a2.67,2.67,0,0,1-2.65,0L6,32.16a26.31,26.31,0,0,1,5-3.4Zm12-23a3.26,3.26,0,1,0,1.63,2.83A3.27,3.27,0,0,0,23,5.79Zm5.7,9.75A2.58,2.58,0,1,0,30,17.69a2.54,2.54,0,0,0-1.24-2.15Zm-11.93,1A2.53,2.53,0,1,0,18,18.69a2.53,2.53,0,0,0-1.22-2.11Zm4.13,11L24,27.1l.21-2.23-1.87-.64-2,1.15.57,2.16Z"/><path class="cls-2" d="M21.52,13.84c-8.08.77-12.73,2.35-17,4.6-1-.34.81-2.35,2.39-3.62a10.19,10.19,0,0,1,.79-4.08,6.19,6.19,0,0,0,2.27-.38A6.68,6.68,0,0,1,11.43,8a7,7,0,0,0-.87-1.53C12,4.33,17.84,2.22,23.77,3.61S32,12.17,32,12.17s2.78,1.24,2.63,2.87c-2-1-7.61-1.72-13.15-1.2Zm1.52-8a3.26,3.26,0,1,0,1.63,2.83A3.27,3.27,0,0,0,23,5.79Z"/><path d="M28.25,19.27a1.44,1.44,0,1,1,1-2.46c0-.07-.07-.14-.1-.22a2.08,2.08,0,1,0-.42,2.59A1.41,1.41,0,0,1,28.25,19.27Zm-9.86-.48a3,3,0,0,1-.4,1.5,2.83,2.83,0,0,1-.44.59,3,3,0,0,1-2.34,1.2c.09,0,.32-.17.56-.32a3,3,0,1,1,2.62-3Zm-1.1-1.09a2.2,2.2,0,1,0-.3,2.59,1.54,1.54,0,1,1,.15-2.66l.19.15Zm10.61,3a3.7,3.7,0,0,1-2.36-.87,2.82,2.82,0,0,1-.67-.79,2.86,2.86,0,1,1,4.95,0h0a2.82,2.82,0,0,1-2.45,1.43c.32.13.71.21.52.23ZM10.24,9A4.18,4.18,0,0,1,11,8.13,3.59,3.59,0,0,0,8.82,6.08C7.2,5.6,5.92,7.86,6.65,9.23c.61,1.15,2.39.95,3.1.83a4.42,4.42,0,0,1,.49-1Zm2.13-1.56c.16.09-.75.56-1.54,1.83a10.57,10.57,0,0,0-1.12,2.29c-.06.13-.17-.12-.14-.6a6,6,0,0,1-1.19.33,17,17,0,0,0-.62,2.43l.43-.23A30.13,30.13,0,0,1,17.93,10a3.71,3.71,0,1,1,6.93-.14,28.61,28.61,0,0,1,6.27,1.43A13.54,13.54,0,0,0,26.6,5.5c-3.78-2.71-10.67-2-14.07.29a9.22,9.22,0,0,0-1.16.9,4.46,4.46,0,0,1,.37.91A1,1,0,0,1,12.37,7.46Zm-6.86,3C3.93,8.76,5,5.68,7,4.93a3.36,3.36,0,0,1,3.43.58,15.47,15.47,0,0,1,9.66-3.26,13.17,13.17,0,0,1,7.44,2.26,2.78,2.78,0,0,1,1.16-1,3.29,3.29,0,0,1,4.2,2.37,3.17,3.17,0,0,1-1.3,3.17A17.94,17.94,0,0,1,32.88,12a4.52,4.52,0,0,1,.5.27c2.44,1.44,2.35,2.73,1.88,3.23a5,5,0,0,1-1.07.6,24.68,24.68,0,0,1,.86,3.24c.79,3.87-.44,5.84-1.44,5.19A9.42,9.42,0,0,1,31,29a10.32,10.32,0,0,1,2.44,3.58l-1.31.75A13.88,13.88,0,0,0,29.76,30c-.82.54-1.5.75-1.73.65-.61-.26.56-.35,2.5-3.22a11,11,0,0,0,2-5.31s.7.8,1,.68.76-1.38,0-4.35A13.72,13.72,0,0,0,32,14.64c-.47-.1-1-.21-1.7-.3.11.32-.34.38-.67.14a2.48,2.48,0,0,0-.56-.29q-1.38-.12-2.76-.15a3.38,3.38,0,0,1-1.16.35c-.22,0-.17-.21-.1-.36-1.07,0-2.24.06-3.54.15s-2.66.25-3.86.43c.24.33.18.69,0,.69a5.94,5.94,0,0,0-1.34-.46c-1,.17-1.88.38-2.81.61-.66.41-.76.82-1,.76s-.23-.23-.21-.42a40.44,40.44,0,0,0-4.41,1.55c-.1.64-.27,1.93-.39,3.82-.18,2.76,0,4.43,1.23,2.32,1.32,3.17,2.52,5.21,5.13,6.81.35.21-.72.51-2.46-.65a17.55,17.55,0,0,0-4.46,3l-1.31-.76A17.82,17.82,0,0,1,10,28.56a16.66,16.66,0,0,1-1.86-2.17c-.5.79-2.05,1.09-2.29-2.11a29.14,29.14,0,0,1,.07-4.44,3.46,3.46,0,0,1-2-.63c-1-.78-.85-2.34,2-4.37a14.78,14.78,0,0,1,.76-3.59,2.67,2.67,0,0,1-1.26-.77ZM30.13,4.63a1.81,1.81,0,0,0-1.6.65,13.09,13.09,0,0,1,2.35,2.63c1.7-1.08.41-3.17-.75-3.29h0ZM32.24,13a22.14,22.14,0,0,0-8-2.09,3.72,3.72,0,0,1-5.7.17,25.9,25.9,0,0,0-8,2.42C7.51,15,5,16.74,4.91,17.78,6,17.12,9,15.59,15.38,14.21c7.87-1.7,14.77-1,18.56.19-.11-.43-.68-.89-1.7-1.42ZM24,8.6a2.56,2.56,0,0,0-.35-1.3A2.59,2.59,0,1,0,24,8.6Zm2.52,17.2c-.77,1.41-2.08,3.67-4.28,3.84s-3.85-1.5-6.07-4.22c-.65-.8.35-.63.61-.56a8.65,8.65,0,0,0,2.32.26c1.47,0,2.76-1.38,3.22-1.38s1.47.68,2.09.68A12.2,12.2,0,0,0,27,23.83c.36-.14.21.56-.55,2ZM23.68,25c-.6-.17-1-.48-1.26-.44a9.81,9.81,0,0,0-1.39.8s.33,1.41.53,1.49a4.87,4.87,0,0,0,1.63-.13A3.43,3.43,0,0,0,23.67,25ZM12.47,33.62c-.17.42-.41,1.15-.64,1.87l-1-.59C11.91,33.32,12.76,32.9,12.47,33.62ZM28,34.74c-.29-.53,0-.81,1.08.41l-.68.39c-.15-.3-.29-.58-.41-.8h0ZM22.29,23.07a1.62,1.62,0,0,1-1.72-.82c-1-.1-1.51-.48-1.59-.94-.12-.65,1-1.38,2.88-1.56,2.1-.2,2.9.41,2.9,1,0,.38-.27.82-1.1,1.14a1.6,1.6,0,0,1-1.37,1.2Z"/><path class="cls-1" d="M37.71,29.07V10.93c0-.66-.19-8.08-.77-8.42L21.07.25a1.87,1.87,0,0,0-1.86,0L3.08,2c-.58.33-.51,8.3-.51,9V29.07a1.87,1.87,0,0,0,.93,1.61l15.71,9.07a1.87,1.87,0,0,0,1.86,0l15.7-9.07A1.86,1.86,0,0,0,37.71,29.07Z"/></g></g></g></svg>