<svg xmlns="http://www.w3.org/2000/svg" viewBox="0 0 40 39.37"><defs><style>.cls-1{fill:#fefefe;}.cls-2{fill:#4ace27;}.cls-3{fill:#51b246;}.cls-4{fill:#fdd240;}.cls-5{fill:#2895fa;}.cls-6{fill:#fcc300;}.cls-7{fill:#d9a800;}.cls-8{fill:#1f81da;}</style></defs><g id="Layer_2" data-name="Layer 2"><g id="Layer_1-2" data-name="Layer 1"><path class="cls-1" d="M17.1,8.86H11.19c0,1.68,0,3.35,0,5q0,12.74,0,25.48a.63.63,0,0,1-.12-.28c0-.1,0-.2,0-.3V9.41a1.51,1.51,0,0,1,.05-.47h0a.24.24,0,0,1,.06-.08h0c.16-.17.4-.12.61-.12h4.5a1.27,1.27,0,0,0,.5,0c-.64-.68-1.29-1.34-1.92-2-.95-1-1.88-2-2.86-3S9.92,1.53,8.86.46C8.6.19,8.42.18,8.18.45,6.07,2.76,3.84,5,1.73,7.26c-.45.48-.93.93-1.4,1.42a.91.91,0,0,0,.46,0h4.5c.68,0,.76.08.76.76V38.77a1.32,1.32,0,0,1,0,.44v0a.08.08,0,0,0,0,0l-.07.1s0-.07,0-.1c0-.19,0-.38,0-.56q0-14.67,0-29.32c0-.42-.09-.55-.53-.55-1.77,0-3.53,0-5.4,0,.5-.54,1-1,1.39-1.47C3.68,5,6,2.6,8.25.2c.24-.25.34-.24.57,0Q11.88,3.41,15,6.6Z"/><path class="cls-1" d="M28.6,21.43H23V39.37a.64.64,0,0,1-.12-.27c0-.1,0-.21,0-.31V22a1.58,1.58,0,0,1,0-.38v0a.35.35,0,0,1,.07-.12h0c.15-.16.37-.12.57-.12h4.22c.17,0,.35.05.5-.05s-.05-.18-.11-.24c-.93-.87-1.75-1.83-2.64-2.74-1.7-1.72-3.33-3.51-5-5.23-.36-.36-.42-.38-.77,0-2,2.12-4,4.22-6,6.31-.58.61-1.17,1.21-1.75,1.85.16.16.34.1.5.1h3.94c.66,0,.73.07.73.72q0,8.37,0,16.74a1.6,1.6,0,0,1,0,.44v.06l-.07.1s0-.07,0-.1c0-1.2,0-2.41,0-3.61q0-6.88,0-13.75c0-.38-.08-.5-.48-.5-1.6,0-3.21,0-4.95,0L13,19.94l6.87-7.19c.15-.16.25-.36.51-.09,2.69,2.83,5.4,5.65,8.1,8.48A.34.34,0,0,1,28.6,21.43Z"/><path class="cls-1" d="M34.1,8.87c0,.42,0,.84,0,1.26V38.85c0,.17,0,.35,0,.52L34,39.28l0-.07a1.83,1.83,0,0,1,0-.66v-25c0-.11,0-.23,0-.35,0-1.19,0-2.39,0-3.58a2.08,2.08,0,0,1,.06-.7h0a.09.09,0,0,1,0-.06c.16-.19.4-.14.61-.14h4.51a1.78,1.78,0,0,0,.46,0,.23.23,0,0,0-.1-.17c-1.85-1.84-3.61-3.77-5.43-5.64-.79-.81-1.58-1.61-2.34-2.43-.27-.28-.45-.26-.69,0C29,2.79,26.72,5,24.59,7.31c-.43.47-.91.9-1.39,1.41a5.59,5.59,0,0,0,.58,0h4.27c.89,0,.91,0,.91.93v28.9a1.23,1.23,0,0,1-.13.82q0-15,0-29.94c0-.45-.09-.58-.56-.57-1.61,0-3.22,0-4.83,0H22.9l2.41-2.54c2-2.06,3.94-4.11,5.9-6.17.17-.19.25-.23.45,0q4.06,4.28,8.15,8.51l.19.22Z"/><path class="cls-2" d="M29.64,9.08c.67.59,1.22,1.25,1.87,1.81s1.43,1.44,2.23,2.08a.59.59,0,0,1,.2.25,1.29,1.29,0,0,1,.1.59q0,9.53,0,19c0,2,0,4,0,6a1.48,1.48,0,0,1,0,.42.32.32,0,0,1,0,.09H28.83q0-15,0-29.94c0-.45-.09-.58-.56-.57-1.61,0-3.22,0-4.83,0H22.9l2.41-2.54c2-2.06,3.94-4.11,5.9-6.17.17-.19.25-.23.45,0q4.06,4.28,8.15,8.51l.19.22H34.1L34,8.93a1.47,1.47,0,0,1-.59.07H30.19A1,1,0,0,0,29.64,9.08Z"/><path class="cls-3" d="M34.07,38.85c0,.17,0,.35,0,.52H34v-.16Q34,26.61,34,14a2.06,2.06,0,0,0,0-.45,1.42,1.42,0,0,0-.44-.64c-1.15-1-2.25-2.07-3.34-3.14-.21-.21-.45-.39-.66-.59s-.21-.14-.16-.26.19-.08.29-.08H34.1c0,.42,0,.84,0,1.26Z"/><path class="cls-4" d="M11.19,8.86c0,1.68,0,3.35,0,5q0,12.74,0,25.48H5.92s0-.07,0-.1L6,39.21a1.08,1.08,0,0,1,.59-.09h3.52c.81,0,.81,0,.81-.8V20.88c0-2.5,0-5,0-7.5V9.59A1.37,1.37,0,0,1,11,8.9h0l0,0a.08.08,0,0,1,.08,0Z"/><path class="cls-5" d="M23,39.37H17s0-.07,0-.1l.08-.06a1.25,1.25,0,0,1,.64-.09h4.12c.91,0,.91,0,.91-.88V26.75c0-.11,0-.22,0-.33V22.18a1.48,1.48,0,0,1,.09-.69v0h0l0,0H23Z"/><path class="cls-6" d="M17.1,8.86h-6L11,8.9a1,1,0,0,1-.57.08H6.59c.68.58,1.21,1.23,1.84,1.76.83.69,1.51,1.54,2.36,2.21a.54.54,0,0,1,.14.16,1.28,1.28,0,0,1,.11.2l0,.06q0,12.72,0,25.43a.81.81,0,0,1,0,.29c-.05.14-.17.2-.43.19-1.54,0-3.09,0-4.63,0H5.93c0-.19,0-.38,0-.56q0-14.67,0-29.32c0-.42-.09-.55-.53-.55-1.77,0-3.53,0-5.4,0,.5-.54,1-1,1.39-1.47C3.68,5,6,2.6,8.25.2c.24-.25.34-.24.57,0Q11.88,3.41,15,6.6Z"/><path class="cls-5" d="M28.6,21.43H22.9l0,0h0a.83.83,0,0,1-.58.1H17.51c.66.62,1.3,1.15,1.94,1.7,1,.88,2,1.78,3.08,2.66a.92.92,0,0,1,.23.25.72.72,0,0,1,.11.19s0,0,0,0q0,6.24,0,12.48a.69.69,0,0,1,0,.22c0,.14-.16.18-.38.18H17c0-1.2,0-2.41,0-3.61q0-6.88,0-13.75c0-.38-.08-.5-.48-.5-1.6,0-3.21,0-4.95,0L13,19.94l6.87-7.19c.15-.16.25-.36.51-.09,2.69,2.83,5.4,5.65,8.1,8.48A.34.34,0,0,1,28.6,21.43Z"/><path class="cls-7" d="M11.17,13.37,6.25,8.86h4.93C11.18,10.36,11.17,11.86,11.17,13.37Z"/><path class="cls-8" d="M23,26.4l-5.83-5H23C23,23.09,23,24.75,23,26.4Z"/></g></g></svg>