<svg xmlns="http://www.w3.org/2000/svg" width="101" height="49" fill="none"><g clip-path="url(#A)" fill="#873eff"><path d="M15.083 25.27c2.765 0 4.983-1.365 6.656-4.505l3.72-6.963v5.905c0 3.481 2.253 5.563 5.734 5.563 2.731 0 4.744-1.195 6.69-4.505l8.567-14.472C48.326 3.119 46.995.73 42.865.73c-2.218 0-3.652.717-4.949 3.14l-5.905 11.093V5.099c0-2.935-1.399-4.369-3.993-4.369-2.048 0-3.686.887-4.949 3.345l-5.563 10.888V5.201c0-3.14-1.297-4.471-4.437-4.471H6.652C4.229.73 3 1.856 3 3.938s1.297 3.277 3.652 3.277H9.28v12.458c0 3.516 2.355 5.598 5.802 5.598z"/><g fill-rule="evenodd"><path d="M58.977.73c-6.997 0-12.355 5.222-12.355 12.287S52.014 25.27 58.977 25.27s12.287-5.222 12.321-12.253C71.299 5.952 65.94.73 58.977.73zm0 16.997c-2.628 0-4.437-1.98-4.437-4.71s1.809-4.744 4.437-4.744 4.437 2.014 4.437 4.744-1.775 4.71-4.437 4.71zm14.06-4.71C73.037 5.952 78.396.73 85.359.73S97.68 5.986 97.68 13.017 92.321 25.27 85.359 25.27s-12.321-5.188-12.321-12.253zm7.919 0c0 2.73 1.741 4.71 4.403 4.71 2.628 0 4.437-1.98 4.437-4.71s-1.809-4.744-4.437-4.744-4.403 2.014-4.403 4.744z"/></g></g><path d="M2.227 31.625h2.234L7 39.539l2.539-7.914h2.234L7.906 43H6.094L2.227 31.625zm-1.359 0H3.18l.43 8.719V43H.867V31.625zm9.953 0h2.32V43h-2.75v-2.656l.43-8.719zm8.047 11.531c-.687 0-1.302-.107-1.844-.32-.542-.219-1-.518-1.375-.898a3.99 3.99 0 0 1-.851-1.312 4.29 4.29 0 0 1-.289-1.57v-.297c0-.62.086-1.193.258-1.719.172-.531.427-.995.766-1.391s.763-.703 1.274-.922c.51-.224 1.104-.336 1.781-.336.599 0 1.136.096 1.609.289s.875.469 1.203.828c.333.359.586.794.758 1.305.177.51.266 1.083.266 1.719v1.07h-6.906v-1.648h4.336v-.203c.005-.281-.044-.521-.149-.719a1.02 1.02 0 0 0-.437-.453c-.193-.104-.427-.156-.703-.156-.287 0-.523.063-.711.188a1.27 1.27 0 0 0-.43.516c-.099.214-.169.461-.211.742s-.062.578-.062.891v.297c0 .313.042.596.125.852.089.255.214.474.375.656a1.77 1.77 0 0 0 .594.414c.234.099.5.148.797.148.359 0 .713-.068 1.063-.203s.648-.359.898-.672l1.195 1.422c-.172.245-.417.482-.734.711-.312.229-.687.417-1.125.563-.437.141-.927.211-1.469.211zm7.281-6.82V43h-2.633v-8.453h2.469l.164 1.789zm-.32 2.148l-.601.016c0-.594.07-1.141.211-1.641s.349-.935.625-1.305.615-.656 1.016-.859c.406-.203.875-.305 1.406-.305.37 0 .706.057 1.008.172.302.109.563.284.781.523.219.234.386.542.5.922.12.375.18.825.18 1.352V43H28.32v-5.305c0-.359-.042-.63-.125-.812-.078-.182-.193-.305-.344-.367s-.336-.094-.555-.094c-.229 0-.435.052-.617.156a1.44 1.44 0 0 0-.469.438c-.125.182-.221.398-.289.648a3.38 3.38 0 0 0-.094.82zm4.828 0l-.734.016a6.5 6.5 0 0 1 .195-1.641c.135-.5.336-.935.602-1.305.271-.37.607-.656 1.008-.859s.867-.305 1.398-.305c.385 0 .74.057 1.063.172a2.05 2.05 0 0 1 .836.555c.234.255.417.594.547 1.016.13.417.195.932.195 1.547V43h-2.641v-5.32c0-.349-.042-.612-.125-.789-.078-.182-.193-.305-.344-.367a1.31 1.31 0 0 0-.539-.102c-.25 0-.466.052-.648.156s-.336.25-.461.438c-.12.182-.208.398-.266.648a3.67 3.67 0 0 0-.086.82zM37.297 31h2.633v9.922L39.656 43h-2.359V31zm7.82 7.68v.164c0 .641-.065 1.224-.195 1.75s-.331.982-.602 1.367c-.271.38-.612.674-1.023.883s-.898.312-1.461.312c-.51 0-.948-.109-1.312-.328-.364-.224-.669-.531-.914-.922-.245-.396-.443-.852-.594-1.367a12.78 12.78 0 0 1-.359-1.672v-.195a12.53 12.53 0 0 1 .359-1.656c.151-.521.349-.977.594-1.367.245-.396.547-.703.906-.922.365-.224.8-.336 1.305-.336.568 0 1.057.107 1.469.32a2.81 2.81 0 0 1 1.031.898c.271.385.471.838.602 1.359s.195 1.091.195 1.711zm-2.633.164v-.164c0-.307-.018-.596-.055-.867a2.59 2.59 0 0 0-.195-.719 1.17 1.17 0 0 0-.398-.492c-.172-.12-.396-.18-.672-.18-.281 0-.518.047-.711.141-.187.094-.338.229-.453.406-.109.172-.187.385-.234.641-.047.25-.068.534-.062.852v.617c-.01.432.029.802.117 1.109s.242.542.461.703.518.242.898.242c.281 0 .508-.055.68-.164.177-.109.31-.266.398-.469s.148-.445.18-.727.047-.591.047-.93zm7.898 4.312c-.687 0-1.302-.107-1.844-.32-.542-.219-1-.518-1.375-.898a3.99 3.99 0 0 1-.852-1.312 4.29 4.29 0 0 1-.289-1.57v-.297c0-.62.086-1.193.258-1.719.172-.531.427-.995.766-1.391s.763-.703 1.273-.922c.51-.224 1.104-.336 1.781-.336.599 0 1.135.096 1.609.289s.875.469 1.203.828a3.56 3.56 0 0 1 .758 1.305c.177.51.266 1.083.266 1.719v1.07h-6.906v-1.648h4.336v-.203c.005-.281-.044-.521-.148-.719a1.02 1.02 0 0 0-.438-.453c-.193-.104-.427-.156-.703-.156-.286 0-.523.063-.711.188-.182.125-.325.297-.43.516a2.7 2.7 0 0 0-.211.742c-.042.281-.062.578-.062.891v.297a2.73 2.73 0 0 0 .125.852 1.93 1.93 0 0 0 .375.656c.167.177.364.315.594.414.234.099.5.148.797.148.359 0 .714-.068 1.063-.203s.648-.359.898-.672l1.195 1.422c-.172.245-.417.482-.734.711-.312.229-.687.417-1.125.563-.437.141-.927.211-1.469.211zm7.281-6.516V43h-2.633v-8.453h2.461l.172 2.094zm2.5-2.156l-.047 2.445-.422-.039-.445-.023c-.307 0-.573.036-.797.109-.219.068-.401.172-.547.313-.141.135-.245.307-.312.516-.063.208-.091.451-.086.727l-.477-.312c0-.568.055-1.083.164-1.547.115-.469.276-.872.484-1.211a2.3 2.3 0 0 1 .758-.789c.297-.187.63-.281 1-.281a3.07 3.07 0 0 1 .383.023c.13.016.245.039.344.07zm5.336 6.141c0-.146-.049-.271-.148-.375-.094-.109-.261-.208-.5-.297-.24-.094-.576-.187-1.008-.281-.412-.089-.8-.206-1.164-.352-.359-.146-.674-.323-.945-.531a2.35 2.35 0 0 1-.641-.742c-.151-.287-.227-.615-.227-.984 0-.359.076-.698.227-1.016.156-.323.383-.607.68-.852.302-.25.669-.445 1.102-.586.432-.146.925-.219 1.477-.219.76 0 1.417.117 1.969.352.552.229.977.552 1.273.969.302.411.453.888.453 1.43h-2.633c0-.213-.037-.396-.109-.547-.068-.151-.18-.266-.336-.344-.156-.083-.365-.125-.625-.125a1.21 1.21 0 0 0-.5.102c-.146.068-.263.161-.352.281a.69.69 0 0 0-.133.422c0 .115.026.219.078.313.057.089.143.172.258.25.115.073.26.141.438.203.177.057.391.109.641.156.568.104 1.099.253 1.594.445s.896.466 1.203.82c.313.354.469.831.469 1.43a2.15 2.15 0 0 1-.258 1.039c-.172.313-.419.589-.742.828-.323.234-.711.417-1.164.547s-.963.195-1.531.195c-.807 0-1.49-.143-2.047-.43-.557-.292-.979-.656-1.266-1.094-.281-.443-.422-.891-.422-1.344h2.453c.01.26.073.474.188.641.12.167.279.289.477.367s.427.117.688.117c.239 0 .438-.034.594-.102.162-.068.284-.159.367-.273.083-.12.125-.258.125-.414zM71.852 31v12h-2.633V31h2.633zm-.312 7.484l-.617.016c0-.594.073-1.141.219-1.641s.354-.935.625-1.305.596-.656.977-.859.802-.305 1.266-.305c.417 0 .797.06 1.141.18.349.12.648.313.898.578.255.266.451.612.586 1.039.141.427.211.948.211 1.563V43h-2.648v-5.266c0-.344-.05-.609-.148-.797-.094-.193-.229-.325-.406-.398-.177-.078-.393-.117-.648-.117-.307 0-.557.052-.75.156a1.09 1.09 0 0 0-.445.438c-.099.182-.167.398-.203.648s-.055.523-.055.82zm9.547-3.937V43h-2.641v-8.453h2.641zm-2.797-2.18c0-.375.135-.682.406-.922s.622-.359 1.055-.359.784.12 1.055.359.406.547.406.922-.135.682-.406.922-.622.359-1.055.359-.784-.12-1.055-.359-.406-.547-.406-.922zm7.078 3.805V46.25h-2.633V34.547h2.453l.18 1.625zm5.188 2.5v.164a6.61 6.61 0 0 1-.211 1.711c-.141.526-.349.984-.625 1.375a2.94 2.94 0 0 1-1.031.914c-.406.214-.878.32-1.414.32-.505 0-.94-.112-1.305-.336s-.669-.534-.914-.93-.443-.849-.594-1.359-.271-1.049-.359-1.617v-.211c.088-.609.208-1.175.359-1.695.151-.526.349-.984.594-1.375s.547-.695.906-.914c.365-.219.8-.328 1.305-.328.536 0 1.008.102 1.414.305a2.78 2.78 0 0 1 1.031.875c.281.375.492.825.633 1.352s.211 1.109.211 1.75zm-2.633.164v-.164c0-.328-.023-.628-.07-.898a2.48 2.48 0 0 0-.227-.719c-.099-.203-.232-.359-.398-.469s-.372-.164-.617-.164c-.281 0-.518.044-.711.133-.187.083-.338.214-.453.391-.109.172-.187.388-.234.648-.042.255-.06.555-.055.898v.641c-.01.396.029.745.117 1.047.089.297.242.529.461.695s.516.25.891.25c.25 0 .458-.057.625-.172.167-.12.299-.284.398-.492a2.7 2.7 0 0 0 .211-.734c.042-.276.063-.573.063-.891zm8.234 1.789c0-.146-.049-.271-.148-.375-.094-.109-.26-.208-.5-.297-.24-.094-.576-.187-1.008-.281-.412-.089-.799-.206-1.164-.352-.359-.146-.674-.323-.945-.531a2.35 2.35 0 0 1-.641-.742 2.08 2.08 0 0 1-.227-.984c0-.359.076-.698.227-1.016.156-.323.383-.607.68-.852.302-.25.669-.445 1.102-.586.432-.146.924-.219 1.477-.219.76 0 1.417.117 1.969.352.552.229.977.552 1.273.969.302.411.453.888.453 1.43H96.07c0-.213-.036-.396-.109-.547-.068-.151-.18-.266-.336-.344-.156-.083-.365-.125-.625-.125a1.21 1.21 0 0 0-.5.102.9.9 0 0 0-.352.281.69.69 0 0 0-.133.422c0 .115.026.219.078.313a.91.91 0 0 0 .258.25 2.16 2.16 0 0 0 .438.203 5.26 5.26 0 0 0 .641.156c.568.104 1.099.253 1.594.445s.896.466 1.203.82c.313.354.469.831.469 1.43a2.15 2.15 0 0 1-.258 1.039c-.172.313-.419.589-.742.828-.323.234-.711.417-1.164.547s-.963.195-1.531.195c-.807 0-1.49-.143-2.047-.43-.557-.292-.979-.656-1.266-1.094-.281-.443-.422-.891-.422-1.344h2.453c.01.26.073.474.187.641.12.167.279.289.477.367s.427.117.688.117c.24 0 .438-.034.594-.102.161-.068.284-.159.367-.273.083-.12.125-.258.125-.414z" fill="#873eff"/><defs><clipPath id="A"><path fill="#fff" transform="translate(3)" d="M0 0h95v26H0z"/></clipPath></defs></svg>
