<svg xmlns="http://www.w3.org/2000/svg" width="95" height="55" fill="none"><g clip-path="url(#A)" fill="#873eff"><path d="M12.083 25.27c2.765 0 4.983-1.365 6.656-4.505l3.72-6.963v5.905c0 3.481 2.253 5.563 5.734 5.563 2.73 0 4.744-1.195 6.69-4.505l8.567-14.472C45.326 3.119 43.995.73 39.865.73c-2.218 0-3.652.717-4.949 3.14l-5.905 11.093V5.099c0-2.935-1.399-4.369-3.993-4.369-2.048 0-3.686.887-4.949 3.345l-5.563 10.888V5.201c0-3.14-1.297-4.471-4.437-4.471H3.652C1.229.73 0 1.856 0 3.938s1.297 3.277 3.652 3.277H6.28v12.458c0 3.516 2.355 5.598 5.802 5.598z"/><g fill-rule="evenodd"><path d="M55.977.73c-6.997 0-12.355 5.222-12.355 12.287S49.014 25.27 55.977 25.27s12.287-5.222 12.321-12.253C68.299 5.952 62.94.73 55.977.73zm0 16.997c-2.628 0-4.437-1.98-4.437-4.71s1.809-4.744 4.437-4.744 4.437 2.014 4.437 4.744-1.775 4.71-4.437 4.71zm14.06-4.71C70.037 5.952 75.396.73 82.359.73S94.68 5.986 94.68 13.017 89.321 25.27 82.359 25.27s-12.321-5.188-12.321-12.253zm7.919 0c0 2.73 1.741 4.71 4.403 4.71 2.628 0 4.437-1.98 4.437-4.71s-1.809-4.744-4.437-4.744-4.403 2.014-4.403 4.744z"/></g></g><path d="M8.606 41.444H4.028l-.024-2.808h3.711c.667 0 1.2-.073 1.599-.22.399-.155.688-.378.867-.671.187-.293.281-.659.281-1.099 0-.505-.094-.912-.281-1.221s-.484-.533-.891-.671c-.399-.146-.916-.22-1.55-.22h-2.1V49H1.355V31.227h6.384c1.099 0 2.079.102 2.942.305.863.195 1.595.496 2.197.903.61.407 1.074.92 1.392 1.538.317.61.476 1.331.476 2.161 0 .724-.155 1.404-.464 2.039s-.826 1.151-1.55 1.55c-.716.391-1.697.594-2.942.61l-1.184 1.111zM8.435 49H2.991l1.465-3.296h3.979c.586 0 1.054-.089 1.404-.269.358-.187.614-.431.769-.732.163-.309.244-.651.244-1.025 0-.456-.077-.85-.232-1.184-.147-.334-.383-.59-.708-.769-.326-.187-.761-.281-1.306-.281H5.005l.024-2.808h4.309l1.001 1.123c1.188-.049 2.128.118 2.82.5.7.383 1.2.887 1.501 1.514s.452 1.282.452 1.965c0 1.164-.252 2.136-.757 2.917-.496.781-1.241 1.367-2.234 1.758S9.9 49 8.435 49zm8.35-6.47v-.256c0-.968.138-1.859.415-2.673.277-.822.684-1.534 1.221-2.136s1.2-1.07 1.99-1.404c.789-.342 1.701-.513 2.734-.513 1.042 0 1.957.171 2.747.513.797.334 1.465.802 2.002 1.404s.944 1.314 1.221 2.136c.277.814.415 1.705.415 2.673v.256c0 .96-.138 1.851-.415 2.673a6.23 6.23 0 0 1-1.221 2.136c-.537.602-1.2 1.07-1.99 1.404s-1.701.5-2.734.5-1.949-.167-2.747-.5-1.465-.802-2.002-1.404a6.23 6.23 0 0 1-1.221-2.136c-.277-.822-.415-1.713-.415-2.673zm4.114-.256v.256c0 .496.037.96.11 1.392s.195.81.366 1.135a1.92 1.92 0 0 0 .696.745c.293.179.659.269 1.099.269.431 0 .789-.09 1.074-.269a1.92 1.92 0 0 0 .696-.745c.171-.325.293-.704.366-1.135s.11-.895.11-1.392v-.256a7.95 7.95 0 0 0-.11-1.355c-.073-.431-.195-.81-.366-1.135a1.97 1.97 0 0 0-.696-.781c-.293-.187-.659-.281-1.099-.281-.431 0-.793.094-1.086.281-.285.187-.513.448-.684.781-.171.325-.293.704-.366 1.135a7.95 7.95 0 0 0-.11 1.355zm9.949.256v-.256c0-.968.138-1.859.415-2.673.277-.822.684-1.534 1.221-2.136s1.2-1.07 1.99-1.404c.789-.342 1.701-.513 2.734-.513 1.042 0 1.957.171 2.747.513.797.334 1.465.802 2.002 1.404s.944 1.314 1.221 2.136c.277.814.415 1.705.415 2.673v.256c0 .96-.138 1.851-.415 2.673a6.23 6.23 0 0 1-1.221 2.136c-.537.602-1.2 1.07-1.99 1.404s-1.701.5-2.734.5-1.949-.167-2.746-.5-1.465-.802-2.002-1.404a6.23 6.23 0 0 1-1.221-2.136c-.277-.822-.415-1.713-.415-2.673zm4.114-.256v.256c0 .496.037.96.11 1.392s.195.81.366 1.135a1.92 1.92 0 0 0 .696.745c.293.179.659.269 1.099.269.431 0 .789-.09 1.074-.269a1.92 1.92 0 0 0 .696-.745c.171-.325.293-.704.366-1.135s.11-.895.11-1.392v-.256a7.95 7.95 0 0 0-.11-1.355c-.073-.431-.195-.81-.366-1.135a1.97 1.97 0 0 0-.696-.781c-.293-.187-.659-.281-1.099-.281-.431 0-.793.094-1.086.281-.285.187-.513.448-.684.781-.171.325-.293.704-.366 1.135a7.95 7.95 0 0 0-.11 1.355zm14.612-12.036V49h-4.114V30.238h4.114zm8.447 5.554l-5.737 6.726-3.003 3.003-1.794-2.612 2.502-3.259 3.101-3.857h4.932zM53.613 49l-3.528-6.018 3.04-2.161 5.2 8.179h-4.712zm9.827-13.208V49h-4.126V35.792h4.126zm-4.37-3.406c0-.586.212-1.066.635-1.44s.973-.561 1.648-.561 1.225.187 1.648.561.635.855.635 1.44-.212 1.066-.635 1.441-.973.561-1.648.561-1.225-.187-1.648-.561-.635-.855-.635-1.44zm10.95 6.226V49h-4.114V35.792h3.857l.256 2.82zm-.488 3.332l-.964.025c0-1.009.122-1.908.366-2.698.244-.797.59-1.473 1.038-2.026s.981-.972 1.599-1.257c.627-.293 1.323-.439 2.087-.439.61 0 1.168.09 1.672.269a3.19 3.19 0 0 1 1.318.867c.374.399.659.928.854 1.587.204.651.305 1.457.305 2.417V49h-4.138v-8.325c0-.529-.073-.932-.22-1.209-.147-.285-.358-.48-.635-.586s-.614-.159-1.013-.159c-.423 0-.781.081-1.074.244a1.9 1.9 0 0 0-.708.684c-.171.285-.297.623-.378 1.013a6.97 6.97 0 0 0-.11 1.282zm18.86-6.152h3.735v12.695c0 1.221-.281 2.254-.842 3.101-.561.855-1.347 1.502-2.356 1.941-1.001.448-2.173.671-3.516.671-.594 0-1.2-.077-1.819-.232a6.94 6.94 0 0 1-1.733-.659c-.537-.293-.989-.655-1.355-1.086l1.721-2.417c.334.374.753.692 1.257.952.504.269 1.099.403 1.782.403.594 0 1.091-.106 1.489-.317a2.13 2.13 0 0 0 .928-.928c.212-.399.317-.883.317-1.453v-9.546l.391-3.125zm-8.777 6.763v-.256c0-1.001.122-1.912.366-2.734.252-.83.61-1.542 1.074-2.136.472-.602 1.042-1.066 1.709-1.392s1.42-.488 2.258-.488c.903 0 1.644.175 2.222.525.586.342 1.054.822 1.404 1.44.358.619.635 1.343.83 2.173.203.822.374 1.709.513 2.661v.305c-.138.895-.33 1.742-.574 2.539-.236.789-.545 1.489-.928 2.1a4.35 4.35 0 0 1-1.44 1.44c-.57.342-1.253.513-2.051.513-.83 0-1.579-.167-2.246-.5-.659-.334-1.225-.802-1.697-1.404-.464-.602-.822-1.31-1.074-2.124-.244-.814-.366-1.701-.366-2.661zm4.114-.256v.256c0 .496.045.956.134 1.379.098.423.244.797.439 1.123.195.317.435.566.72.745.293.179.635.269 1.025.269.594 0 1.074-.126 1.44-.378s.631-.61.793-1.074.232-1.009.208-1.636v-.964c.016-.537-.02-1.009-.11-1.416-.09-.415-.232-.761-.427-1.038-.187-.277-.439-.484-.757-.623-.309-.147-.684-.22-1.123-.22-.382 0-.72.09-1.013.269a2.18 2.18 0 0 0-.732.757c-.195.317-.346.696-.452 1.135-.098.431-.147.903-.147 1.416z" fill="#873eff"/><defs><clipPath id="A"><path fill="#fff" d="M0 0h95v26H0z"/></clipPath></defs></svg>
