<svg xmlns="http://www.w3.org/2000/svg" viewBox="0 0 51.37 40"><defs><style>.cls-1{fill:#7eaaba;}.cls-2{fill:#d3e8ef;}.cls-3{fill:#fff;}.cls-4{fill:#7f3e13;}.cls-5{fill:#b85a1b;}.cls-6{fill:#e1762f;}.cls-7{fill:#63300f;}.cls-8{fill:#4f2800;}.cls-9{fill:#e5895b;}.cls-10{fill:#fad395;}.cls-11{fill:#ad6151;}.cls-12{fill:#1b1d23;}.cls-13{fill:#036aab;}.cls-14{fill:#0399ed;}</style></defs><g id="Layer_2" data-name="Layer 2"><g id="Layer_1-2" data-name="Layer 1"><path class="cls-1" d="M5.81,24.74a8.8,8.8,0,0,0,7.37-2.08l3.41.19-1.86,5.42c-2.06,3.28-5,4-8.09,3.77l-.83-7.28v0Z"/><path class="cls-2" d="M7.07,26l.57,5a6.73,6.73,0,0,0,6.09-3.16l1.34-3.89-1.49-.08A9.55,9.55,0,0,1,7.09,26Z"/><path class="cls-3" d="M7.07,26l.34,3c3.5-.42,6.23-1.86,7.65-5l-1.5-.08A9.55,9.55,0,0,1,7.07,26"/><path class="cls-1" d="M6.64,20.46A5.79,5.79,0,1,1,.85,26.25a5.79,5.79,0,0,1,5.79-5.79"/><path class="cls-2" d="M6.64,21.6a4.64,4.64,0,1,0,4.63,4.63A4.63,4.63,0,0,0,6.64,21.6"/><path class="cls-3" d="M6.64,21.6a4.59,4.59,0,0,0-3.8,2,4.65,4.65,0,0,0,4.63,4.35,4.59,4.59,0,0,0,3.8-2A4.65,4.65,0,0,0,6.64,21.6"/><path class="cls-1" d="M6,21.3a4.31,4.31,0,1,1-4.31,4.31A4.31,4.31,0,0,1,6,21.3"/><path class="cls-4" d="M5.73,20.14A4.33,4.33,0,1,1,1.4,24.47a4.34,4.34,0,0,1,4.33-4.33"/><path class="cls-5" d="M6.15,21.81a3.44,3.44,0,1,0,3.44,3.44,3.44,3.44,0,0,0-3.44-3.44"/><path class="cls-4" d="M3.56,16.64a1.89,1.89,0,0,1,3.78,0,1.94,1.94,0,0,1,3.33,2c.06.23.09.43.13.66,1.8.1,2.38,2.91-.07,3.78a5.36,5.36,0,0,1-1,2c-2.12,1.81-2.8.32-3.93-.91-1.1,0-4.13-.76-3.28,2.08C.63,25-.62,22.52.32,18.86c-1.3-2.95,2.14-4,3.24-2.24v0Z"/><path class="cls-5" d="M1.48,19.27a5.6,5.6,0,0,0,.79,5.22A4.19,4.19,0,0,0,9,23.87a6.91,6.91,0,0,0,.38-4.62,19.84,19.84,0,0,0-7.94,0l0,0Z"/><path class="cls-6" d="M1.48,19.27a5.6,5.6,0,0,0,.79,5.22,4.29,4.29,0,0,0,3.18,1.42v-7a23.15,23.15,0,0,0-4,.41"/><path class="cls-4" d="M3.22,20.63a3.13,3.13,0,0,0,.45,2.92,2.33,2.33,0,0,0,3.76-.36,3.75,3.75,0,0,0,.21-2.58,11,11,0,0,0-4.42,0"/><path class="cls-5" d="M5.43,17.91a1,1,0,0,0,0-2v2Zm3.63-1.27a1,1,0,1,1-1,1,1,1,0,0,1,1-1"/><path class="cls-6" d="M2,16.76a1,1,0,1,1-1,1,1,1,0,0,1,1-1m3.42,1.15v-2a1,1,0,0,0,0,2v0Z"/><path class="cls-5" d="M10.18,20.27a1,1,0,1,1-1,1,1,1,0,0,1,1-1"/><path class="cls-1" d="M44.58,32.11a6.93,6.93,0,0,0-4.28-6.33l.53-2.08,4.32-1.16c3.76,1.14,5.23,3.54,6,6.57l-6.5,3,0,0Z"/><path class="cls-3" d="M45.47,30.47l4.29-2c-.76-2.51-2-4.14-4.65-4.78l-3.37.91-.15.56a7.78,7.78,0,0,1,3.86,5.3l0,0Z"/><path class="cls-1" d="M40.42,32.62a5.61,5.61,0,1,1,7.09,3.58,5.61,5.61,0,0,1-7.09-3.58"/><path class="cls-2" d="M41.34,32.3a4.64,4.64,0,1,0,2.95-5.86,4.63,4.63,0,0,0-2.95,5.86"/><path class="cls-3" d="M50.35,30.22a5,5,0,0,0-.19-.83,4.63,4.63,0,0,0-5.87-2.95,4.5,4.5,0,0,0-1.89,1.19,5,5,0,0,0,.19.83,4.63,4.63,0,0,0,5.87,2.95,4.46,4.46,0,0,0,1.89-1.19"/><path class="cls-4" d="M39.36,34.06a5.3,5.3,0,1,1,6.69,3.37,5.27,5.27,0,0,1-6.69-3.37"/><path class="cls-5" d="M40.44,33.72a4.16,4.16,0,1,1,5.25,2.65,4.17,4.17,0,0,1-5.25-2.65"/><path class="cls-6" d="M40.27,31.75a4.17,4.17,0,0,1,8.07-.66,3.85,3.85,0,0,1,.21,1,7.29,7.29,0,0,1-8.28-.39Z"/><path class="cls-4" d="M21,0a3.94,3.94,0,0,1,3.82,4.05,3.93,3.93,0,0,1-3.82,4,3.93,3.93,0,0,1-3.82-4A3.94,3.94,0,0,1,21,0"/><path class="cls-5" d="M21,1.12a2.83,2.83,0,0,0-2.7,2.93A2.84,2.84,0,0,0,21,7a2.83,2.83,0,0,0,2.71-2.93A2.84,2.84,0,0,0,21,1.12"/><path class="cls-7" d="M21,2.23a1.72,1.72,0,0,0-1.59,1.82A1.74,1.74,0,0,0,21,5.86a1.7,1.7,0,0,0,1.59-1.81A1.74,1.74,0,0,0,21,2.23"/><path class="cls-4" d="M37.28,0A3.94,3.94,0,0,1,41.1,4.05a3.83,3.83,0,1,1-7.64,0,3.94,3.94,0,0,1,3.82-4"/><path class="cls-5" d="M37.28,1.12a2.83,2.83,0,0,0-2.71,2.93,2.71,2.71,0,1,0,5.41,0,2.83,2.83,0,0,0-2.7-2.93"/><path class="cls-8" d="M37.28,2.23a1.71,1.71,0,0,0-1.59,1.82,1.73,1.73,0,0,0,1.59,1.81,1.71,1.71,0,0,0,1.59-1.81,1.75,1.75,0,0,0-1.59-1.82"/><path class="cls-4" d="M30.7,1.89A1.21,1.21,0,1,1,29.49,3.1,1.22,1.22,0,0,1,30.7,1.89m-3.09,0A1.21,1.21,0,1,1,26.4,3.1a1.21,1.21,0,0,1,1.21-1.21"/><path class="cls-4" d="M43.27,6.94v7.53l.08,0a2.77,2.77,0,0,1,1.8,2.63v5.4l-16,5.28-16-5.14V17.12A2.77,2.77,0,0,1,15,14.49l.08,0V6.92c0-5.2,28.21-5.2,28.21,0v0Z"/><path class="cls-5" d="M16.32,7.22v8.12l-.66.26a1.85,1.85,0,0,0-1.19,1.76v5.71L29.16,27.8,43.86,23v-5.6a1.87,1.87,0,0,0-1.19-1.76L42,15.34V7.22c0-3.85-25.67-3.85-25.67,0Z"/><path class="cls-6" d="M16.32,7.22v8.12l-.66.26a1.85,1.85,0,0,0-1.19,1.76v5.71L29.16,27.8V24.7c-5.08,0-10.17-3.31-8.83-9.91h8.83V4.35c-6.41,0-12.84,1-12.84,2.89v0Z"/><path class="cls-9" d="M19.63,13.07h19.1c2.71,14.33-22,14.22-19.1,0"/><path class="cls-9" d="M20.58,14.18a7,7,0,0,0,1.85,6,9.63,9.63,0,0,0,6.79,2.48,9.62,9.62,0,0,0,6.53-2.41,7.1,7.1,0,0,0,2-6.09Z"/><path class="cls-10" d="M32.36,20.88c1.29,1.66,5,1,3.92-2.54l-3.92,2.54Z"/><path class="cls-8" d="M31.19,20.52c1.44,1.85,6.13.76,5.05-3.25l-5.05,3.25Z"/><path class="cls-3" d="M35.5,17.44a.55.55,0,0,1,.66.41.53.53,0,1,1-1,.29.56.56,0,0,1,.36-.7m-3.06,2.12a.56.56,0,0,1,.66.41.57.57,0,0,1-.36.7.58.58,0,0,1-.3-1.11"/><path class="cls-11" d="M34.33,21.22a2.9,2.9,0,0,0,2.06-2.46,2.28,2.28,0,0,0-2.06,2.46"/><path class="cls-10" d="M21.6,13.07H36.75c2.14,10.23-17.46,10.14-15.15,0"/><path class="cls-8" d="M29.16,18.89a3.72,3.72,0,0,1,.72-1.7,3.28,3.28,0,0,0,2.9-4.14,10.82,10.82,0,0,0-3.6-.62l-.73,2.34.73,4.14,0,0Z"/><path class="cls-7" d="M29.16,18.89a3.6,3.6,0,0,0-.71-1.7,3.28,3.28,0,0,1-2.9-4.14,10.78,10.78,0,0,1,3.6-.62v6.46Z"/><path class="cls-11" d="M26.48,13.41a10.4,10.4,0,0,1,5.37,0c.76,1.87-6.18,1.85-5.37,0"/><path class="cls-3" d="M26.27,8.21a2,2,0,1,1-2,2,2,2,0,0,1,2-2"/><path class="cls-12" d="M26.42,8.91a1.51,1.51,0,1,1-1.51,1.51,1.52,1.52,0,0,1,1.51-1.51"/><path class="cls-3" d="M32.1,8.21a2,2,0,1,0,2,2,2,2,0,0,0-2-2"/><path class="cls-12" d="M31.94,8.91a1.51,1.51,0,1,0,1.52,1.51,1.52,1.52,0,0,0-1.52-1.51"/><path class="cls-7" d="M27.75,7.55a5.65,5.65,0,0,0-4.2.73c-.44-2.47,3.74-3.21,4.2-.73"/><path class="cls-8" d="M30.2,6.3A5.65,5.65,0,0,1,34.4,7c.44-2.48-3.74-3.22-4.2-.74"/><path class="cls-1" d="M45.13,22.54V38.11A1.89,1.89,0,0,1,43.24,40H15.06a1.9,1.9,0,0,1-1.9-1.89V22.68l16,3.82,16-4Z"/><path class="cls-2" d="M43.86,24.17,29.16,27.8,14.45,24.28V37.77a.93.93,0,0,0,1,.94H42.91a.93.93,0,0,0,1-.94V24.17Z"/><path class="cls-3" d="M29.16,27.8,14.47,24.28V37.77a.93.93,0,0,0,.95.94H29.16V27.8Z"/><path class="cls-13" d="M29.16,35.05H41.51v1.66H29.16V35.05Zm0-3.43H41.51v1.67H29.16V31.62Z"/><path class="cls-14" d="M29.16,36.71V35H16.81v1.67ZM16.81,31.62H29.16v1.67H16.81V31.62Z"/><polygon class="cls-3" points="21.83 30.54 23.38 30.54 23.38 38.09 21.83 38.09 21.83 30.54 21.83 30.54"/><path class="cls-1" d="M17.48,23.7c3.89.92,7.79,1.87,11.67,2.8L25,30.43a20,20,0,0,1-7.5-6.73"/><path class="cls-3" d="M20.79,25.8a22.09,22.09,0,0,0,4,3l1.76-1.66c-1.93-.46-3.85-.93-5.78-1.38"/><path class="cls-1" d="M40.83,23.7c-3.89.92-7.79,1.87-11.67,2.8l4.17,3.93a20,20,0,0,0,7.5-6.73"/><path class="cls-3" d="M37.52,25.8a22.09,22.09,0,0,1-4,3l-1.76-1.66c1.93-.46,3.85-.93,5.78-1.38"/></g></g></svg>