<svg xmlns="http://www.w3.org/2000/svg" width="56" height="27" fill="none"><mask id="a" width="56" height="16" x="0" y="0" maskUnits="userSpaceOnUse" style="mask-type:luminance"><path fill="#fff" d="M.84.437H56v15.096H.84z"/></mask><g fill="#873EFF" mask="url(#a)"><path d="M7.856 15.112c1.605 0 2.893-.792 3.864-2.616l2.16-4.043v3.428c0 2.021 1.308 3.231 3.33 3.231 1.586 0 2.756-.694 3.885-2.616l4.974-8.403c1.09-1.844.316-3.23-2.081-3.23-1.288 0-2.122.416-2.875 1.822L17.688 9.13v-5.73c0-1.703-.813-2.536-2.32-2.536-1.188 0-2.138.514-2.873 1.942l-3.23 6.324v-5.67c0-1.823-.752-2.596-2.575-2.596h-3.73C1.553.863.84 1.517.84 2.725s.753 1.903 2.12 1.903h1.527v7.233c0 2.042 1.369 3.251 3.37 3.251"/><path fill-rule="evenodd" d="M33.342.863c-4.061 0-7.173 3.032-7.173 7.134 0 4.101 3.13 7.115 7.172 7.115 4.045 0 7.135-3.032 7.155-7.115 0-4.102-3.11-7.134-7.154-7.134m0 9.87c-1.526 0-2.576-1.151-2.576-2.736s1.051-2.755 2.576-2.755 2.577 1.17 2.577 2.755-1.031 2.735-2.577 2.735m8.164-2.736c0-4.102 3.111-7.134 7.154-7.134 4.044 0 7.154 3.052 7.154 7.134s-3.11 7.115-7.154 7.115c-4.043 0-7.154-3.012-7.154-7.115m4.598 0c0 1.585 1.011 2.735 2.557 2.735 1.525 0 2.576-1.15 2.576-2.735s-1.051-2.755-2.577-2.755c-1.525 0-2.556 1.17-2.556 2.755" clip-rule="evenodd"/></g><path fill="#873EFF" d="M4.266 20.53a.66.66 0 0 0-.25-.48q-.217-.171-.625-.173a1.2 1.2 0 0 0-.449.07.6.6 0 0 0-.268.193.46.46 0 0 0-.092.277.4.4 0 0 0 .05.227q.06.099.17.175.11.071.267.128.158.055.353.099l.494.11q.424.094.75.248.327.154.549.367.225.21.34.49.114.276.117.622a1.6 1.6 0 0 1-.275.932 1.7 1.7 0 0 1-.781.597 3.3 3.3 0 0 1-1.225.207q-.72 0-1.254-.215a1.77 1.77 0 0 1-.832-.657q-.297-.44-.305-1.111h1.327a.87.87 0 0 0 .15.462c.09.127.215.225.36.281q.232.094.537.095.282 0 .477-.076a.66.66 0 0 0 .305-.21.5.5 0 0 0 .11-.308c0-.102-.035-.2-.1-.277a.8.8 0 0 0-.304-.203 3 3 0 0 0-.515-.158l-.6-.141q-.744-.171-1.174-.552-.428-.383-.425-1.037a1.54 1.54 0 0 1 .285-.932q.29-.4.799-.625a2.85 2.85 0 0 1 1.162-.224q.669 0 1.157.227.494.225.766.63.27.408.277.941zm4.882 2.16v-2.446h1.368v4.302H9.21v-.801h-.045c-.09.257-.262.477-.489.628a1.45 1.45 0 0 1-.825.229q-.44 0-.772-.201a1.37 1.37 0 0 1-.52-.564 1.85 1.85 0 0 1-.187-.852v-2.74h1.37v2.472c-.011.201.055.399.184.552a.63.63 0 0 0 .497.201.75.75 0 0 0 .367-.088.66.66 0 0 0 .26-.267.9.9 0 0 0 .097-.425m2.24 1.856V18.81h1.369v2.17h.027q.09-.207.238-.378c.11-.126.246-.226.399-.296q.244-.12.58-.119.45 0 .84.237.39.234.633.725.24.49.24 1.249 0 .732-.232 1.224c-.13.302-.347.56-.622.74-.258.164-.559.25-.865.246a1.4 1.4 0 0 1-.564-.105 1.2 1.2 0 0 1-.4-.282 1.3 1.3 0 0 1-.247-.372h-.042v.697zm1.34-2.152q0 .348.093.607.095.256.27.4.18.139.43.14a.66.66 0 0 0 .43-.14.87.87 0 0 0 .265-.401q.092-.258.092-.605t-.092-.602a.85.85 0 0 0-.266-.396.66.66 0 0 0-.429-.139.66.66 0 0 0-.43.138.87.87 0 0 0-.27.392q-.092.253-.092.606m7.46-.835-1.257.033a.5.5 0 0 0-.107-.237.6.6 0 0 0-.227-.165.8.8 0 0 0-.32-.062.8.8 0 0 0-.405.095q-.166.095-.162.257a.26.26 0 0 0 .1.22q.107.09.379.147l.828.157q.645.123.959.41a.98.98 0 0 1 .32.755c.003.28-.09.552-.265.771-.186.23-.43.405-.705.51q-.45.18-1.026.18-.922 0-1.453-.38a1.41 1.41 0 0 1-.606-1.019l1.354-.033a.53.53 0 0 0 .232.358c.144.087.311.13.48.123a.83.83 0 0 0 .427-.098q.165-.1.168-.26a.28.28 0 0 0-.128-.233 1.1 1.1 0 0 0-.396-.14l-.75-.142q-.648-.12-.964-.436a1.1 1.1 0 0 1-.313-.81 1.2 1.2 0 0 1 .23-.737 1.44 1.44 0 0 1 .66-.472 2.9 2.9 0 0 1 1.011-.162q.875 0 1.379.367a1.32 1.32 0 0 1 .557 1.003m2.79 3.07q-.68 0-1.168-.28a1.9 1.9 0 0 1-.746-.78 2.5 2.5 0 0 1-.26-1.16q0-.66.26-1.159.264-.501.749-.78.488-.282 1.162-.281.596 0 1.039.216.445.216.694.61.253.393.267.922h-1.28a.86.86 0 0 0-.225-.518.64.64 0 0 0-.476-.189.66.66 0 0 0-.417.135.86.86 0 0 0-.28.392 1.8 1.8 0 0 0-.099.64q0 .38.1.644a.87.87 0 0 0 .279.395q.18.132.417.132a.7.7 0 0 0 .337-.082.66.66 0 0 0 .243-.238.9.9 0 0 0 .12-.387h1.281a1.85 1.85 0 0 1-.267.93 1.65 1.65 0 0 1-.686.62 2.3 2.3 0 0 1-1.043.218m2.696-.083v-4.302h1.331v.785h.045q.12-.426.383-.634a.96.96 0 0 1 .62-.21q.196-.003.383.051v1.19a1.3 1.3 0 0 0-.257-.053 3 3 0 0 0-.28-.02.9.9 0 0 0-.44.109.8.8 0 0 0-.306.3.9.9 0 0 0-.108.448v2.336zm3.321 0v-4.302h1.37v4.302zm.687-4.804a.71.71 0 0 1-.651-.4.6.6 0 0 1-.053-.255q0-.269.207-.46a.7.7 0 0 1 .495-.193q.292 0 .497.194a.61.61 0 0 1 .153.714.697.697 0 0 1-.649.4m1.553 6.418v-5.916h1.356v.737h.042q.084-.198.238-.379.167-.19.397-.296.243-.12.583-.119.448 0 .838.237.39.234.633.725.24.49.24 1.249 0 .732-.233 1.224c-.13.302-.345.56-.62.74-.259.164-.56.25-.866.246q-.325 0-.563-.105a1.2 1.2 0 0 1-.401-.282 1.3 1.3 0 0 1-.246-.372h-.029v2.311zm1.341-3.765q0 .348.093.605a.9.9 0 0 0 .272.4q.178.14.429.14a.66.66 0 0 0 .428-.14.87.87 0 0 0 .265-.4 1.8 1.8 0 0 0 .093-.605q0-.347-.093-.602a.85.85 0 0 0-.265-.396.66.66 0 0 0-.43-.139.66.66 0 0 0-.427.138.87.87 0 0 0-.272.392 1.8 1.8 0 0 0-.093.607m6.133-2.152v1.01h-2.714v-1.009zm-2.146-1.03h1.37v3.981a.45.45 0 0 0 .039.204c.027.048.07.086.12.11q.079.03.188.03.151 0 .3-.043l.207.99q-.1.027-.278.07-.176.042-.422.052a2 2 0 0 1-.827-.11 1.06 1.06 0 0 1-.523-.427 1.3 1.3 0 0 1-.174-.725zm2.846 5.333v-4.302h1.37v4.302zm.686-4.804a.71.71 0 0 1-.648-.4.62.62 0 0 1 .153-.714.7.7 0 0 1 .495-.194q.291 0 .495.194a.61.61 0 0 1 .208.46.6.6 0 0 1-.208.464.7.7 0 0 1-.495.19m3.564 4.886q-.678 0-1.166-.277a1.9 1.9 0 0 1-.747-.78 2.5 2.5 0 0 1-.26-1.161q0-.667.26-1.162.264-.502.747-.78.488-.28 1.166-.28t1.162.28q.489.278.748.78.264.495.264 1.162 0 .66-.264 1.162a1.9 1.9 0 0 1-.748.779q-.484.277-1.162.277m.008-1.034a.6.6 0 0 0 .417-.152.9.9 0 0 0 .26-.42 1.9 1.9 0 0 0 .093-.62q0-.36-.092-.629a.9.9 0 0 0-.26-.42.6.6 0 0 0-.418-.152.65.65 0 0 0-.432.152.9.9 0 0 0-.265.42 2 2 0 0 0-.09.628q0 .352.09.621c.048.162.14.307.265.42a.64.64 0 0 0 .432.152m4.236-1.501v2.453h-1.369v-4.302h1.302v.79h.047c.088-.256.26-.475.49-.62q.342-.225.82-.227.453 0 .786.205.338.202.522.567.186.36.185.845v2.742h-1.371v-2.473q.004-.358-.181-.56a.65.65 0 0 0-.507-.202.75.75 0 0 0-.382.095.66.66 0 0 0-.25.267.9.9 0 0 0-.092.42m7.387-.535-1.258.033a.5.5 0 0 0-.106-.238.6.6 0 0 0-.227-.165.8.8 0 0 0-.32-.062.8.8 0 0 0-.406.095q-.165.096-.163.258a.26.26 0 0 0 .102.219q.105.092.378.148l.829.157q.645.122.957.41a.98.98 0 0 1 .32.755c.003.28-.09.552-.264.77-.186.23-.43.406-.705.51q-.45.18-1.025.18-.923 0-1.454-.379a1.41 1.41 0 0 1-.605-1.02l1.352-.032a.53.53 0 0 0 .233.358c.144.087.31.13.48.122a.83.83 0 0 0 .428-.097q.165-.1.168-.26a.28.28 0 0 0-.13-.233 1.1 1.1 0 0 0-.394-.14l-.75-.142q-.648-.12-.964-.436a1.1 1.1 0 0 1-.315-.811 1.2 1.2 0 0 1 .23-.737q.234-.309.662-.471a2.9 2.9 0 0 1 1.011-.163q.874 0 1.378.367a1.32 1.32 0 0 1 .558 1.004"/></svg>