<svg xmlns="http://www.w3.org/2000/svg" xmlns:xlink="http://www.w3.org/1999/xlink" viewBox="0 0 40 40.03"><defs><style>.cls-1{fill:none;}.cls-2{fill:#658b3c;}.cls-3,.cls-7{opacity:0.5;}.cls-4{clip-path:url(#clip-path);}.cls-5{fill:#465f2c;}.cls-6{fill:#2896c7;}.cls-7{fill:#1b698b;}.cls-8{fill:#474748;}</style><clipPath id="clip-path"><path class="cls-1" d="M30.64,17l-1.32.17-.4.26c-.14.08-.27.17-.4.26l-.4.26-.4.27-.54.36-.53.37-.53.38-.52.38-.46.34-.46.34-.46.35-.45.35-.29.23-.29.24-.3.23-.28.24-.11.09-.11.09-.11.09-.11.09-.37.31-.36.31-.36.32-.36.31-1.14,1-1.11,1-1.09,1.08c-.36.36-.72.72-1.06,1.1s-.6.61-1.07,1.15-.55.6-1,1.13l-1,1.14c-.54.65-.91,1.12-.91,1.12l2.73.05A83.54,83.54,0,0,1,30.64,17Z"/></clipPath></defs><g id="Layer_2" data-name="Layer 2"><g id="Layer_1-2" data-name="Layer 1"><g id="Icon"><g id="Money"><path class="cls-2" d="M35,21.33l1.45,10.13-23.13-.11-.12.14-.12.15-.12.14-.12.15-.11.13-.1.14-.11.13-.11.14,25,.45L35.63,21.27Z"/><path class="cls-2" d="M15,29.36l-.25.28-.25.29c-.09.09-.17.19-.25.28l20.5-.15-1.31-9.83-.16-1.18-.85.09,1.21,9.56-18.39.38C15.17,29.17,15.08,29.26,15,29.36Z"/><path class="cls-2" d="M30.64,17l-1.32.17-.4.26c-.14.08-.27.17-.4.26l-.4.26-.4.27-.54.36-.53.37-.53.38-.52.38-.46.34-.46.34-.46.35-.45.35-.29.23-.29.24-.3.23-.28.24-.11.09-.11.09-.11.09-.11.09-.37.31-.36.31-.36.32-.36.31-1.14,1-1.11,1-1.09,1.08c-.36.36-.71.73-1.06,1.1l15.51-.51-1.06-9.26Z"/><g id="Money_Shadow" data-name="Money Shadow" class="cls-3"><g class="cls-4"><path class="cls-5" d="M35,21.33l1.45,10.13-23.13-.11-.12.14-.12.15-.12.14-.12.15-.11.13-.1.14-.11.13-.11.14,25,.45L35.63,21.27Z"/><path class="cls-5" d="M15,29.36l-.25.28-.25.29c-.09.09-.17.19-.25.28l20.5-.15-1.31-9.83-.16-1.18-.85.09,1.21,9.56-18.39.38C15.17,29.17,15.08,29.26,15,29.36Z"/><path class="cls-5" d="M30.64,17l-1.32.17-.4.26c-.14.08-.27.17-.4.26l-.4.26-.4.27-.54.36-.53.37-.53.38-.52.38-.46.34-.46.34-.46.35-.45.35-.29.23-.29.24-.3.23-.28.24-.11.09-.11.09-.11.09-.11.09-.37.31-.36.31-.36.32-.36.31-1.14,1-1.11,1-1.09,1.08c-.36.36-.71.73-1.06,1.1l15.51-.51-1.06-9.26Z"/></g></g></g><g id="Check"><path class="cls-6" d="M37.7,10.89c-.76.29-1.52.58-2.29.89s-1.51.61-2.26.93-1.49.65-2.23,1l-.06,0-.06,0-.05,0-.06,0-1.8.85-1.77.88c-.58.29-1.15.6-1.73.9l-1.69.94-.6.34-.59.34-.58.35-.58.35-.5.3-.49.31-.5.31-.48.32-.32.21-.33.21-.31.21a3.62,3.62,0,0,0-.32.22l-.11.07-.11.08-.11.07-.11.08-.38.27-.39.27-.38.27c-.12.1-.25.19-.38.28-.83.61-1.64,1.24-2.42,1.88s-1.55,1.29-2.28,2S10,27.43,9.31,28.13s-1.34,1.41-2,2.15l-.17.21a1.63,1.63,0,0,0-.17.2c-.06.07-.12.13-.17.2l-.17.2-.12.16a1.83,1.83,0,0,0-.13.16l-.13.15-.12.16-.07-.08L6,31.56,6,31.49l-.06-.08-.6-.7-.54-.6-.48-.53-.45-.49L3.71,29l-.11-.12-.11-.12-.12-.13L2.88,28l-.51-.6-.54-.67c-.19-.24-.38-.5-.59-.78L1,25.6l-.3-.42-.32-.44L0,24.26c.22.72.44,1.41.64,2.06s.41,1.28.61,1.87.38,1.17.57,1.72.37,1.09.56,1.6l.12.36c0,.11.09.23.13.35l.13.35.12.35.06.16.06.16.06.16.06.16.06.16a1.22,1.22,0,0,1,.07.17l.06.16.06.17,0,.12.05.12,0,.12.05.12,0,0,0,0,0,.05s0,0,0,.06l.06.16.07.16.06.17c0,.05,0,.11.07.17l0,0h0c.12.33.26.66.39,1l.43,1,.47,1.13c.16.4.33.81.51,1.24.3-.54.6-1.08.91-1.6s.63-1,1-1.57.65-1,1-1.52.67-1,1-1.48l0,0,0,0,0,0,0,0,.2-.28.2-.27.2-.28.2-.28.18-.23.17-.24.18-.23.18-.23,0,0,0-.05,0,0,0,0,.21-.28.22-.27.21-.28.22-.27.22-.27.23-.27.22-.27.22-.27c.54-.64,1.08-1.26,1.63-1.86s1.11-1.21,1.68-1.8S17.51,24.52,18.1,24s1.2-1.12,1.8-1.67c.12-.1.24-.2.35-.31l.36-.31.35-.31.36-.3.11-.09.1-.09.11-.09.11-.09.28-.24.28-.23L22.6,20l.28-.23.45-.35.44-.34.45-.34.45-.34.51-.38.51-.37.52-.37.52-.36,1-.67,1-.64,1-.63,1-.61c.75-.44,1.5-.86,2.26-1.25s1.53-.79,2.3-1.15,1.55-.7,2.33-1,1.57-.61,2.35-.88C39.24,10.33,38.47,10.6,37.7,10.89Z"/><path class="cls-7" d="M5.21,38.79,5.72,40c.3-.54.6-1.08.91-1.6s.63-1,1-1.57.65-1,1-1.52.67-1,1-1.48l0,0,0,0,0,0,0,0,.2-.28.2-.27.2-.28.2-.28.18-.23.17-.24.18-.23.18-.23,0,0,0-.05,0,0,0,0,.21-.28.22-.27.21-.28.22-.27.22-.27.23-.27.22-.27.22-.27c.54-.64,1.08-1.26,1.63-1.86s1.11-1.21,1.68-1.8S17.51,24.52,18.1,24s1.2-1.12,1.8-1.67c.12-.1.24-.2.35-.31l.36-.31.35-.31.36-.3.11-.09.1-.09.11-.09.11-.09.28-.24.28-.23L22.6,20l.28-.23.45-.35.44-.34.45-.34.45-.34.51-.38.51-.37.52-.37.52-.36,1-.67,1-.64,1-.63,1-.61c.75-.44,1.5-.86,2.26-1.25s1.53-.79,2.3-1.15,1.55-.7,2.33-1,1.57-.61,2.35-.88c-.76.26-1.53.53-2.3.82s-1.52.58-2.29.89-1.51.61-2.26.93-1.49.65-2.23,1l-.06,0-.06,0-.05,0-.06,0-1.8.85-1.77.88c-4.33,2.86-15,9.82-22.44,22Z"/></g><g id="Lock"><path class="cls-8" d="M29.17,8.79a1.55,1.55,0,0,0-.25-.68,1.5,1.5,0,0,0-.52-.48,1.86,1.86,0,0,0-.7-.23,2.23,2.23,0,0,0-.81,0l-2,.46V7.85L24.25,8,24,5a5.47,5.47,0,0,0-.85-2.65A4.84,4.84,0,0,0,21.35.65,5.85,5.85,0,0,0,18.9,0a7.52,7.52,0,0,0-2.74.41,9.69,9.69,0,0,0-2.59,1.35,10.79,10.79,0,0,0-2.06,2,10.21,10.21,0,0,0-1.41,2.4,8.18,8.18,0,0,0-.61,2.65l-.13,2.65-.41.1v0L7.36,12a1.64,1.64,0,0,0-.52.24,1.9,1.9,0,0,0-.44.41,2.08,2.08,0,0,0-.32.54,2,2,0,0,0-.14.6l-1.09,14L6,29.11l.27-5a5.13,5.13,0,0,1,.31-1.48,5,5,0,0,1,.7-1.24,3.86,3.86,0,0,1,1-.9A3,3,0,0,1,9.54,20l.54-.07a1.77,1.77,0,0,1-.59-.32A1.84,1.84,0,0,1,9,19.12a2.48,2.48,0,0,1-.27-.67,2.83,2.83,0,0,1-.08-.78,3.32,3.32,0,0,1,.21-1,3.55,3.55,0,0,1,.51-.89,2.73,2.73,0,0,1,.73-.67,2.23,2.23,0,0,1,.89-.36h0a1.94,1.94,0,0,1,.9,0,1.88,1.88,0,0,1,.75.43,2.16,2.16,0,0,1,.51.76,2.73,2.73,0,0,1,.18,1,3,3,0,0,1-.12.85,3.46,3.46,0,0,1-.33.79,3.74,3.74,0,0,1-.51.66,3,3,0,0,1-.64.49l.47-.06a2.68,2.68,0,0,1,.94,0,2.74,2.74,0,0,1,.86.33,3.1,3.1,0,0,1,.73.59,4.11,4.11,0,0,1,.51.75l.36-.27,0-1.66a3.28,3.28,0,0,1,.72-2.06,3.23,3.23,0,0,1,.81-.71,2.65,2.65,0,0,1,1-.36l.44-.07a1.79,1.79,0,0,1-.51-.22,1.81,1.81,0,0,1-.41-.37,1.77,1.77,0,0,1-.26-.49,1.87,1.87,0,0,1-.11-.59,2.06,2.06,0,0,1,.13-.78,2.27,2.27,0,0,1,1.71-1.51,1.76,1.76,0,0,1,.76,0,1.68,1.68,0,0,1,.65.3,1.63,1.63,0,0,1,.46.55,1.75,1.75,0,0,1,.2.76,2.28,2.28,0,0,1-.06.64,2.36,2.36,0,0,1-.24.59,2.2,2.2,0,0,1-.4.51A2.12,2.12,0,0,1,20,16L20.4,16A3.14,3.14,0,0,1,21,16a2.62,2.62,0,0,1,.57.11,3.14,3.14,0,0,1,.53.23,2.66,2.66,0,0,1,.46.35l-.12.08h.16l.59-.34-.05-.74a2.21,2.21,0,0,1,.11-.85,2.34,2.34,0,0,1,.41-.74,2.5,2.5,0,0,1,.65-.56,2.35,2.35,0,0,1,.84-.31l.36-.06a1.57,1.57,0,0,1-.43-.15,1.39,1.39,0,0,1-.35-.28,1.15,1.15,0,0,1-.25-.37,1.35,1.35,0,0,1-.11-.45,1.41,1.41,0,0,1,.08-.61,1.81,1.81,0,0,1,.3-.54,1.85,1.85,0,0,1,.47-.41,1.9,1.9,0,0,1,.61-.24,1.72,1.72,0,0,1,.64,0,1.67,1.67,0,0,1,.55.22,1.45,1.45,0,0,1,.4.42,1.41,1.41,0,0,1,.18.58,1.35,1.35,0,0,1,0,.49,1.92,1.92,0,0,1-.18.45,1.66,1.66,0,0,1-.31.39,1.55,1.55,0,0,1-.41.3l.32,0a2.48,2.48,0,0,1,.54,0,2.09,2.09,0,0,1,.51.09,2.37,2.37,0,0,1,.46.2l.13.08h0l.19-.09.38-.19.38-.19ZM11.83,10.93l.09-2.76a5,5,0,0,1,.37-1.69,6,6,0,0,1,.9-1.54,6.63,6.63,0,0,1,1.33-1.26,5.66,5.66,0,0,1,1.65-.82,4.54,4.54,0,0,1,1.71-.21,3.3,3.3,0,0,1,1.48.46,3,3,0,0,1,1.07,1.07,3.53,3.53,0,0,1,.46,1.63l.13,3Z"/></g></g></g></g></svg>