<svg xmlns="http://www.w3.org/2000/svg" width="445" height="445" fill="none"><path d="M.25 259.5v-67c0-38.628 0-67.58 2.316-90.344s6.943-39.306 16.18-53.13a109.75 109.75 0 0 1 30.28-30.28c13.824-9.237 30.37-13.865 53.13-16.18S153.872.25 192.5.25h67c37.224 0 65.122 0 87.058 2.232s37.874 6.69 51.194 15.59c11.546 7.715 21.461 17.63 29.176 29.176 8.9 13.32 13.359 29.262 15.59 51.194s2.232 49.835 2.232 87.058v74c0 37.224 0 65.122-2.232 87.058s-6.69 37.874-15.59 51.194a105.76 105.76 0 0 1-29.176 29.176c-13.32 8.9-29.263 13.359-51.194 15.59s-49.835 2.232-87.058 2.232h-74c-37.223 0-65.122 0-87.058-2.232s-37.874-6.69-51.194-15.59c-11.547-7.715-21.461-17.63-29.176-29.176-8.9-13.32-13.359-29.263-15.59-51.194S.25 296.723.25 259.5z" fill="#ff4f00" stroke="#e13e07" stroke-width=".5"/><g filter="url(#A)"><path fill-rule="evenodd" d="M111.7 160.436l106.86-97.779c24.479-22.399 62.481-20.712 84.879 3.767s20.713 62.481-3.766 84.88L287.2 162.716c9.68 3.079 18.71 8.657 26.059 16.689 22.399 24.479 20.712 62.481-3.767 84.879l-17.486 16.001c9.681 3.078 18.711 8.656 26.06 16.689 22.399 24.479 20.713 62.481-3.766 84.879s-62.481 20.712-84.88-3.767c-12.089-13.211-17.162-30.362-15.422-46.872-16.6.269-33.233-6.303-45.321-19.514s-17.161-30.36-15.423-46.87c-16.599.27-33.233-6.303-45.321-19.514-22.399-24.479-20.712-62.481 3.767-84.88zm22.277 24.347c-11.033 10.095-11.793 27.223-1.698 38.256s27.223 11.793 38.256 1.698l106.861-97.779c11.033-10.096 11.793-27.224 1.697-38.257s-27.223-11.793-38.256-1.698l-106.86 97.779zm60.744 66.383c-11.033 10.096-11.793 27.224-1.698 38.257s27.223 11.793 38.256 1.697l55.936-51.182c11.033-10.095 11.793-27.223 1.698-38.256s-27.223-11.793-38.256-1.698l-55.936 51.182zm59.045 104.643c-10.095-11.033-9.335-28.161 1.698-38.256s28.161-9.335 38.256 1.698 9.336 28.161-1.697 38.256-28.161 9.335-38.257-1.698z" fill="#fff"/></g><defs><filter id="A" x="88.178" y="46.902" width="249.644" height="358.706" filterUnits="userSpaceOnUse" color-interpolation-filters="sRGB"><feFlood flood-opacity="0" result="A"/><feColorMatrix in="SourceAlpha" values="0 0 0 0 0 0 0 0 0 0 0 0 0 0 0 0 0 0 127 0" result="B"/><feOffset dy="4"/><feGaussianBlur stdDeviation="2"/><feComposite in2="B" operator="out"/><feColorMatrix values="0 0 0 0 0 0 0 0 0 0 0 0 0 0 0 0 0 0 0.25 0"/><feBlend in2="A"/><feBlend in="SourceGraphic"/></filter></defs></svg>