<svg id='Copy_24' width='24' height='24' viewBox='0 0 24 24' xmlns='http://www.w3.org/2000/svg' xmlns:xlink='http://www.w3.org/1999/xlink'><rect width='24' height='24' stroke='none' fill='#000000' opacity='0'/>


<g transform="matrix(0.5 0 0 0.5 12 12)" >
<g style="" >
<g transform="matrix(1 0 0 1 6.5 -2.5)" >
<path style="stroke: none; stroke-width: 1; stroke-dasharray: none; stroke-linecap: butt; stroke-dashoffset: 0; stroke-linejoin: miter; stroke-miterlimit: 4; fill: rgb(223,240,254); fill-rule: nonzero; opacity: 1;" transform=" translate(-26.5, -17.5)" d="M 14.5 33.5 L 14.5 1.5 L 30.793 1.5 L 38.5 9.207 L 38.5 33.5 z" stroke-linecap="round" />
</g>
<g transform="matrix(1 0 0 1 6.5 -2.5)" >
<path style="stroke: none; stroke-width: 1; stroke-dasharray: none; stroke-linecap: butt; stroke-dashoffset: 0; stroke-linejoin: miter; stroke-miterlimit: 4; fill: rgb(71,136,199); fill-rule: nonzero; opacity: 1;" transform=" translate(-26.5, -17.5)" d="M 30.586 2 L 38 9.414 L 38 33 L 15 33 L 15 2 L 30.586 2 M 31 1 L 14 1 L 14 34 L 39 34 L 39 9 L 31 1 L 31 1 z" stroke-linecap="round" />
</g>
<g transform="matrix(1 0 0 1 14.5 -14.5)" >
<path style="stroke: none; stroke-width: 1; stroke-dasharray: none; stroke-linecap: butt; stroke-dashoffset: 0; stroke-linejoin: miter; stroke-miterlimit: 4; fill: rgb(182,220,254); fill-rule: nonzero; opacity: 1;" transform=" translate(-34.5, -5.5)" d="M 30.5 9.5 L 30.5 1.5 L 30.793 1.5 L 38.5 9.207 L 38.5 9.5 z" stroke-linecap="round" />
</g>
<g transform="matrix(1 0 0 1 14.5 -14.5)" >
<path style="stroke: none; stroke-width: 1; stroke-dasharray: none; stroke-linecap: butt; stroke-dashoffset: 0; stroke-linejoin: miter; stroke-miterlimit: 4; fill: rgb(71,136,199); fill-rule: nonzero; opacity: 1;" transform=" translate(-34.5, -5.5)" d="M 31 2.414 L 37.586 9 L 31 9 L 31 2.414 M 31 1 L 30 1 L 30 10 L 39 10 L 39 9 L 31 1 L 31 1 z" stroke-linecap="round" />
</g>
<g transform="matrix(1 0 0 1 -6.5 2.5)" >
<path style="stroke: none; stroke-width: 1; stroke-dasharray: none; stroke-linecap: butt; stroke-dashoffset: 0; stroke-linejoin: miter; stroke-miterlimit: 4; fill: rgb(255,255,255); fill-rule: nonzero; opacity: 1;" transform=" translate(-13.5, -22.5)" d="M 1.5 38.5 L 1.5 6.5 L 17.793 6.5 L 25.5 14.207 L 25.5 38.5 z" stroke-linecap="round" />
</g>
<g transform="matrix(1 0 0 1 -6.5 2.5)" >
<path style="stroke: none; stroke-width: 1; stroke-dasharray: none; stroke-linecap: butt; stroke-dashoffset: 0; stroke-linejoin: miter; stroke-miterlimit: 4; fill: rgb(71,136,199); fill-rule: nonzero; opacity: 1;" transform=" translate(-13.5, -22.5)" d="M 17.586 7 L 25 14.414 L 25 38 L 2 38 L 2 7 L 17.586 7 M 18 6 L 1 6 L 1 39 L 26 39 L 26 14 L 18 6 L 18 6 z" stroke-linecap="round" />
</g>
<g transform="matrix(1 0 0 1 1.5 -9.5)" >
<path style="stroke: none; stroke-width: 1; stroke-dasharray: none; stroke-linecap: butt; stroke-dashoffset: 0; stroke-linejoin: miter; stroke-miterlimit: 4; fill: rgb(223,240,254); fill-rule: nonzero; opacity: 1;" transform=" translate(-21.5, -10.5)" d="M 17.5 14.5 L 17.5 6.5 L 17.793 6.5 L 25.5 14.207 L 25.5 14.5 z" stroke-linecap="round" />
</g>
<g transform="matrix(1 0 0 1 1.5 -9.5)" >
<path style="stroke: none; stroke-width: 1; stroke-dasharray: none; stroke-linecap: butt; stroke-dashoffset: 0; stroke-linejoin: miter; stroke-miterlimit: 4; fill: rgb(71,136,199); fill-rule: nonzero; opacity: 1;" transform=" translate(-21.5, -10.5)" d="M 18 7.414 L 24.586 14 L 18 14 L 18 7.414 M 18 6 L 17 6 L 17 15 L 26 15 L 26 14 L 18 6 L 18 6 z" stroke-linecap="round" />
</g>
</g>
</g>
</svg>