<?xml version="1.0" encoding="UTF-8"?><svg id="Layer_1" xmlns="http://www.w3.org/2000/svg" viewBox="0 0 100 100"><rect width="100" height="100" rx="4.11" ry="4.11" style="fill:#323232;"/><path d="M47.44,35.15h12.12c4.79,0,8.71,3.91,8.71,8.69h0c0,3.48-2.08,6.51-5.06,7.89l5.06,8.76h-6.81l-8-13.84h6.11c1.54,0,2.81-1.26,2.81-2.8h0c0-1.54-1.26-2.8-2.81-2.8h-9.35l-3.4-5.89h.63Z" style="fill:#fff; fill-rule:evenodd;"/><polygon points="45.07 38.58 46.56 41.16 57.74 60.49 50.93 60.49 43.15 47.04 35.38 60.49 28.57 60.49 43.15 35.27 45.07 38.58" style="fill:#fff; fill-rule:evenodd;"/><polygon points="45.07 57.28 46.56 59.86 46.92 60.49 39.38 60.49 43.15 53.97 45.07 57.28" style="fill:#fff; fill-rule:evenodd;"/><polyline points="26.25 16.07 16 16.07 16 26.3" style="fill:none; stroke:#fff; stroke-linecap:round; stroke-linejoin:round; stroke-width:2px;"/><polyline points="73.75 16.07 84 16.07 84 26.3" style="fill:none; stroke:#fff; stroke-linecap:round; stroke-linejoin:round; stroke-width:2px;"/><polyline points="73.75 83.93 84 83.93 84 73.7" style="fill:none; stroke:#fff; stroke-linecap:round; stroke-linejoin:round; stroke-width:2px;"/><polyline points="26.25 83.93 16 83.93 16 73.7" style="fill:none; stroke:#fff; stroke-linecap:round; stroke-linejoin:round; stroke-width:2px;"/><polygon points="77.03 65.58 77.03 34.42 50 18.84 22.97 34.42 22.97 65.58 50 81.16 77.03 65.58" style="fill:none; stroke:#fff; stroke-linecap:round; stroke-linejoin:round; stroke-width:2px;"/></svg>