<?xml version="1.0" encoding="UTF-8"?><svg id="Layer_1" xmlns="http://www.w3.org/2000/svg" viewBox="0 0 100 100"><rect width="100" height="100" rx="4.11" ry="4.11"/><path d="M78.57,59.17c-.72-.62-1.77-.71-2.59-.2-1.15.72-2.37,1.34-3.67,1.87-12.26,4.96-26.23-.98-31.21-13.27-3.37-8.32-1.75-17.41,3.44-23.96.59-.76.63-1.8.09-2.58s-1.53-1.13-2.45-.85c-.82.26-1.64.54-2.44.87h0c-15.62,6.31-23.13,24.12-16.79,39.77,6.34,15.65,24.12,23.21,39.74,16.88,7.66-3.1,13.37-8.98,16.46-16,.38-.88.16-1.9-.57-2.52Z" style="fill:#fff;"/></svg>