<?xml version="1.0" encoding="UTF-8"?><svg id="Layer_1" xmlns="http://www.w3.org/2000/svg" xmlns:xlink="http://www.w3.org/1999/xlink" viewBox="0 0 100 100"><defs><linearGradient id="linear-gradient" x1="103.27" y1="103.27" x2="-.26" y2="-.26" gradientUnits="userSpaceOnUse"><stop offset="0" stop-color="#08aeec"/><stop offset="1" stop-color="#20e2ad"/></linearGradient></defs><rect width="100" height="100" rx="4.1" ry="4.1" style="fill:url(#linear-gradient);"/><path d="M35.34,78.73h-8.69c-.84,0-1.57-.72-1.57-1.57V23c0-.84.72-1.57,1.57-1.57h8.69c.84,0,1.57.72,1.57,1.57v54.04c0,.97-.72,1.69-1.57,1.69Z" style="fill:#fff;"/><path d="M75.03,23v9.05c0,.84-.72,1.57-1.57,1.57h-30.28c-.84,0-1.57-.72-1.57-1.57v-9.05c0-.84.72-1.57,1.57-1.57h30.28c.84,0,1.57.72,1.57,1.57Z" style="fill:#fff;"/><path d="M75.03,45.56v9.05c0,.84-.72,1.57-1.57,1.57h-30.28c-.84,0-1.57-.72-1.57-1.57v-9.05c0-.84.72-1.57,1.57-1.57h30.28c.84-.12,1.57.6,1.57,1.57Z" style="fill:#fff;"/><path d="M75.03,67.99v9.05c0,.84-.72,1.57-1.57,1.57h-30.28c-.84,0-1.57-.72-1.57-1.57v-9.05c0-.84.72-1.57,1.57-1.57h30.28c.84,0,1.57.72,1.57,1.57Z" style="fill:#fff;"/><path d="M64.78,21.43h8.69c.84,0,1.57.72,1.57,1.57v31.6c0,.84-.72,1.57-1.57,1.57h-8.69c-.84,0-1.57-.72-1.57-1.57v-31.6c0-.84.6-1.57,1.57-1.57Z" style="fill:#fff;"/></svg>