<?xml version="1.0" encoding="UTF-8"?><svg id="Layer_1" xmlns="http://www.w3.org/2000/svg" viewBox="0 0 100 100"><rect width="100" height="100" rx="4.11" ry="4.11" style="fill:#131d29;"/><circle cx="33.96" cy="43.93" r="7.01" transform="translate(-14.85 70.41) rotate(-80.78)" style="fill:#fff;"/><path d="M30.85,78.44h0c-3.39,1.94-7.7.77-9.64-2.62l-2.27-3.96c-1.94-3.39-.77-7.7,2.62-9.64,3.39-1.94,7.7-.77,9.64,2.62l2.27,3.96c1.94,3.39.77,7.7-2.62,9.64Z" style="fill:#fff;"/><path d="M55.09,78.03h0c-3.32,2.06-7.67,1.03-9.73-2.28l-7.93-12.8c-2.06-3.32-1.03-7.67,2.28-9.73,3.32-2.06,7.67-1.03,9.73,2.28l7.93,12.8c2.06,3.32,1.03,7.67-2.28,9.73Z" style="fill:#fff;"/><path d="M57.46,55.58l-14.64-24.24c-2.02-3.34-.94-7.68,2.4-9.7h0c3.34-2.02,7.68-.94,9.7,2.4l14.64,24.24c2.02,3.34.94,7.68-2.4,9.7-3.34,2.02-7.68.94-9.7-2.4Z" style="fill:#fff;"/><circle cx="74.99" cy="72.13" r="7.01" transform="translate(-21.89 34.19) rotate(-22.5)" style="fill:#fff;"/></svg>