<?xml version="1.0" encoding="UTF-8"?><svg id="Layer_1" xmlns="http://www.w3.org/2000/svg" xmlns:xlink="http://www.w3.org/1999/xlink" viewBox="0 0 100 100"><defs><radialGradient id="radial-gradient" cx="92" cy="93.28" fx="84.12" fy="93.28" r="132.04" gradientUnits="userSpaceOnUse"><stop offset=".11" stop-color="#6100ff"/><stop offset=".38" stop-color="#c63187"/><stop offset=".62" stop-color="#ff0797"/><stop offset=".95" stop-color="#ff5000"/></radialGradient></defs><rect width="100" height="100" rx="4.1" ry="4.1" style="fill:url(#radial-gradient);"/><path d="M59.27,69.86c-1.4,0-2.55,1.14-2.55,2.55v1.31h-25.19v-37.09h2.36c1.4,0,2.55-1.14,2.55-2.55s-1.14-2.55-2.55-2.55h-4.9c-1.4,0-2.55,1.14-2.55,2.55v42.18c0,1.4,1.14,2.55,2.55,2.55h30.28c1.4,0,2.55-1.14,2.55-2.55v-3.85c0-1.4-1.14-2.55-2.55-2.55Z" style="fill:#fff;"/><path d="M72.86,29.37l-7.03-7.25c-.47-.49-1.13-.77-1.81-.77l-23.12-.18c-.67,0-1.33.27-1.8.74-.48.47-.75,1.13-.75,1.81v41.46c0,1.4,1.14,2.55,2.55,2.55h30.14c1.4,0,2.55-1.14,2.55-2.55V31.14c0-.67-.25-1.29-.72-1.77ZM64.32,32.82h4.17v29.81h-25.05V26.28l19.24.15v4.75c0,.9.73,1.64,1.64,1.64Z" style="fill:#fff;"/><path d="M47.55,40.28c0,1.03.73,1.88,1.62,1.88h13.73c.89,0,1.62-.84,1.62-1.88s-.73-1.88-1.62-1.88h-13.73c-.89,0-1.62.84-1.62,1.88Z" style="fill:#fff;"/><path d="M62.9,44.65h-13.73c-.89,0-1.62.84-1.62,1.88s.73,1.88,1.62,1.88h13.73c.89,0,1.62-.84,1.62-1.88s-.73-1.88-1.62-1.88Z" style="fill:#fff;"/><path d="M62.9,50.9h-13.73c-.89,0-1.62.84-1.62,1.88s.73,1.88,1.62,1.88h13.73c.89,0,1.62-.84,1.62-1.88s-.73-1.88-1.62-1.88Z" style="fill:#fff;"/></svg>