<?xml version="1.0" encoding="UTF-8"?><svg id="Layer_1" xmlns="http://www.w3.org/2000/svg" viewBox="0 0 100 100"><rect x="0" y="0" width="100" height="100" rx="4.1" ry="4.1" style="fill:#0d3b54;"/><rect x="29.49" y="29.93" width="4.68" height="4.68" style="fill:#19bac3;"/><rect x="24.71" y="24.3" width="2.99" height="2.99" style="fill:#0ea4e1;"/><rect x="27.06" y="16.67" width="1.36" height="1.36" style="fill:#fff;"/><rect x="30.97" y="21.19" width="2.03" height="2.03" style="fill:#fff;"/><rect x="30.83" y="43.01" width="2.02" height="2.02" style="fill:#fff;"/><rect x="42.39" y="18.09" width="1.69" height="1.69" style="fill:#fff;"/><rect x="36.65" y="36.05" width="8.3" height="8.3" style="fill:#09d3c9;"/><rect x="36.95" y="22.74" width="4.86" height="4.86" style="fill:#0e7cb7;"/><rect x="25.46" y="37.09" width="3.02" height="3.02" style="fill:#0aa5d2;"/><path d="M71.97,24.9c-4.53-4.47-10.09-6.7-16.66-6.7h-6v4.43h-4.06v9.94h10.06c2.36,0,4.31.83,5.84,2.49,1.53,1.66,2.3,3.7,2.3,6.13s-.77,4.47-2.3,6.13c-1.53,1.66-3.48,2.49-5.84,2.49h-10.06s-8.45,0-8.45,0v8.91h-6.87v26.52h15.32v-21.07h10.06c6.58,0,12.13-2.23,16.66-6.7,4.53-4.47,6.8-9.9,6.8-16.28s-2.27-11.81-6.8-16.28Z" style="fill:#fff;"/><rect x="27.74" y="49.75" width="6.11" height="6.11" style="fill:#fff;"/></svg>