<?xml version="1.0" encoding="UTF-8"?><svg id="Layer_1" xmlns="http://www.w3.org/2000/svg" xmlns:xlink="http://www.w3.org/1999/xlink" viewBox="0 0 100 100"><defs><linearGradient id="linear-gradient" x1="-3.02" y1="-4.09" x2="101.45" y2="102.5" gradientUnits="userSpaceOnUse"><stop offset="0" stop-color="#fc6a2c"/><stop offset="1" stop-color="#fe516b"/></linearGradient></defs><rect width="100" height="100" rx="4.1" ry="4.1" style="fill:url(#linear-gradient);"/><path d="M54.8,79.59l-26.82-.05c-1.08,0-2.17-1.08-2.17-2.17l-.05-8.24c0-1.08,1.08-2.17,2.17-2.17h26.51c1.08,0,2.17,1.08,2.17,2.17v8.3c0,1.08-.72,2.17-1.81,2.17Z" style="fill:#fff;"/><path d="M71.98,56.7l-44-.05c-1.08,0-2.17-1.08-2.17-2.17l-.05-8.24c0-1.08,1.08-2.17,2.17-2.17h43.69c1.08,0,2.17,1.08,2.17,2.17v8.3c0,1.08-.72,2.17-1.81,2.17Z" style="fill:#fff;"/><path d="M36.28,55.45h-8.29c-1.08,0-2.17-1.08-2.17-2.17l-.08-27.72c0-1.08,1.08-2.17,2.17-2.17h8.29c1.08,0,2.17,1.08,2.17,2.17l.08,27.72c0,1.08-1.08,2.17-2.17,2.17Z" style="fill:#fff;"/><path d="M71.72,79.6h-8.29c-1.08,0-2.17-1.08-2.17-2.17l-.08-31.21c0-1.08,1.08-2.17,2.17-2.17h8.29c1.08,0,2.17,1.08,2.17,2.17l.08,31.21c0,1.08-1.08,2.17-2.17,2.17Z" style="fill:#fff;"/><path d="M71.98,33.88l-44-.05c-1.08,0-2.17-1.08-2.17-2.17l-.05-8.24c0-1.08,1.08-2.17,2.17-2.17h43.69c1.08,0,2.17,1.08,2.17,2.17v8.3c0,1.08-.72,2.17-1.81,2.17Z" style="fill:#fff;"/></svg>