<?xml version="1.0" encoding="UTF-8"?><svg id="Layer_1" xmlns="http://www.w3.org/2000/svg" viewBox="0 0 100 100"><rect width="100" height="100" rx="4.11" ry="4.11" style="fill:#353a3d;"/><path d="M28.15,44.58c.16.13.36.19.55.27,3.59,1.49,7.19,2.99,10.78,4.48.1.04.2.1.31.13.24.07.32.21.27.46-.14.75-.14,1.51-.09,2.26.02.24.05.47.08.7.05.36.05.37-.31.52-1.59.66-3.17,1.32-4.76,1.98-4.92,2.04-9.84,4.09-14.75,6.13-.14.06-.28.13-.43.2-.17-.08-.18-.25-.23-.39-.68-2.07-1.14-4.2-1.39-6.37-.2-1.73-.24-3.46-.15-5.2.14-2.8.66-5.54,1.53-8.21.02-.07.05-.15.08-.22.05-.12.13-.18.26-.12.1.04.2.08.31.13,2.42,1,4.83,2.01,7.25,3.01.16.07.31.16.49.16,0,0,0,0,0,0,.04.08.12.09.2.09Z" style="fill:#fff;"/><path d="M59.79,22.04c-.63,1.51-1.27,3.02-1.89,4.53-2.11,5.11-4.22,10.22-6.34,15.33-.19.45-.19.46-.64.4-.93-.13-1.85-.13-2.78,0-.43.06-.43.05-.61-.37-1.6-3.87-3.2-7.75-4.8-11.62-.08-.2-.15-.42-.28-.6,0-.08-.02-.15-.09-.2,0,0,0,0,0,0,0-.16-.08-.3-.14-.45-.91-2.22-1.83-4.43-2.75-6.65-.21-.5-.21-.5.31-.67,2.32-.75,4.69-1.24,7.12-1.43,4.24-.34,8.37.12,12.41,1.45.17.06.39.05.46.27Z" style="fill:#fff;"/><path d="M35.9,23.37c.37.91.73,1.81,1.1,2.72,2.31,5.6,4.62,11.19,6.94,16.79q.22.54-.24.9c-.7.54-1.32,1.17-1.85,1.88-.29.39-.22.37-.68.18-4.78-1.98-9.55-3.97-14.33-5.95-1.66-.69-3.32-1.38-4.98-2.07-.1-.04-.21-.07-.31-.1,0,0,0,.03,0,.03-.03-.09-.11-.1-.19-.1-.17-.17-.04-.32.04-.47.47-.93.98-1.84,1.54-2.71,3.03-4.74,7.03-8.43,11.99-11.07.13-.07.25-.13.38-.19q.38-.19.61.17Z" style="fill:#ff6706;"/><path d="M22.58,64.65c.16,0,.3-.09.45-.15,6-2.49,11.99-4.98,17.99-7.47q.56-.23.91.23c.54.7,1.17,1.32,1.88,1.86.39.29.38.2.19.68-1.67,4.04-3.33,8.07-5,12.11-1.02,2.48-2.05,4.95-3.07,7.43-.23.55-.17.52-.69.25-1.89-.97-3.66-2.11-5.32-3.43-.13-.11-.25-.25-.43-.29,0,0-.02.02-.02.02v.02c.03-.08-.02-.11-.09-.1,0,0,0,0,0,0,0-.08-.03-.1-.1-.1,0,0,0,0,0,0,0-.07-.04-.1-.1-.1,0,0,0,0,0,0,0-.06-.04-.09-.1-.1,0,0,0,.01,0,.01-.01-.06-.05-.09-.1-.11-.48-.45-.97-.9-1.44-1.36-2.49-2.41-4.51-5.18-6.1-8.25-.03-.06-.06-.11-.09-.17-.18-.36-.17-.36.18-.52.34-.16.71-.25,1.03-.46Z" style="fill:#ff6706;"/><path d="M66.06,24.6c-1.03,2.87-1.87,5.79-2.67,8.72-.58,2.13.81,3.97,2.63,4.3.54.1,1.07.06,1.59-.08,1.85-.51,3.7-1.03,5.54-1.62.95-.3,1.89-.62,2.83-.94.42-.14.42-.15.63.21.39.65.76,1.31,1.09,1.99.18.37.19.38-.19.54-1.82.76-3.64,1.51-5.46,2.27-4.66,1.94-9.32,3.87-13.98,5.81-.09.04-.18.06-.26.11-.22.13-.36.07-.51-.14-.58-.82-1.28-1.51-2.09-2.11-.29-.21-.29-.22-.14-.58.88-2.14,1.77-4.28,2.65-6.43,1.57-3.79,3.13-7.58,4.7-11.37.08-.19.18-.37.2-.58.25-.42.38-.89.58-1.33.16-.35.17-.36.51-.19.72.35,1.41.75,2.1,1.16.11.06.22.12.25.26Z" style="fill:#ff6706;"/><path d="M21.34,37.65c.08,0,.16,0,.19.1-.08-.01-.14-.05-.19-.1Z" style="fill:#c747a3;"/><path d="M80.31,22.71c-.07,0-.09-.05-.11-.1.04.03.08.07.11.1Z" style="fill:#c747a3;"/><path d="M80.4,22.81c-.08.02-.1-.04-.1-.1.03.03.07.07.1.1Z" style="fill:#c747a3;"/><path d="M29,75.42c.05.02.09.05.1.11-.03-.04-.07-.07-.1-.11Z" style="fill:#c747a3;"/><path d="M29.1,75.52c.06.01.1.04.1.1-.03-.03-.07-.07-.1-.1Z" style="fill:#c747a3;"/><path d="M29.19,75.61c.06,0,.1.03.1.1-.03-.03-.07-.07-.1-.1Z" style="fill:#c747a3;"/><path d="M29.29,75.71c.07,0,.11.03.1.1-.03-.03-.07-.07-.1-.1Z" style="fill:#c747a3;"/><path d="M29.38,75.8c.07,0,.12.02.1.1-.03-.03-.07-.07-.1-.1Z" style="fill:#c747a3;"/><path d="M81.08,50.94c0,3.82-.52,7.06-1.54,10.22,0,.02,0,.03-.01.05-.16.5-.16.5-.64.3-6.49-2.7-12.98-5.39-19.48-8.09-.44-.18-.44-.19-.37-.66.13-.91.13-1.82,0-2.73-.06-.45-.06-.45.35-.63,6.52-2.71,13.04-5.42,19.57-8.13.4-.17.41-.16.55.26.69,2.12,1.16,4.29,1.39,6.51.12,1.13.19,2.26.18,2.9Z" style="fill:#fff;"/><path d="M49.61,83.02c-3.41.01-6.67-.52-9.84-1.55-.56-.18-.52-.14-.29-.68,2.67-6.47,5.34-12.94,8.02-19.41.04-.09.08-.17.11-.26.06-.19.17-.26.39-.22,1.02.18,2.04.18,3.06,0,.27-.05.36.05.45.27.45,1.1.9,2.19,1.35,3.28,2.25,5.44,4.49,10.87,6.74,16.31.25.61.29.52-.33.73-2.38.77-4.82,1.26-7.31,1.45-.8.06-1.61.07-2.34.09Z" style="fill:#fff;"/><path d="M77.83,65.36c-.05.11-.11.24-.17.36-.86,1.68-1.85,3.27-2.99,4.77-2.91,3.83-6.5,6.85-10.77,9.06-.59.31-.5.36-.77-.29-2.67-6.47-5.34-12.94-8.02-19.41-.03-.07-.05-.15-.09-.22-.09-.17-.06-.28.1-.4.86-.61,1.59-1.34,2.2-2.2.16-.23.32-.18.53-.09,1.08.45,2.15.9,3.23,1.34,5.45,2.26,10.89,4.52,16.34,6.78.1.04.2.09.3.13.06.03.11.06.11.16Z" style="fill:#ff6706;"/><path d="M49.54,57.17c-3.2,0-5.77-2.58-5.76-5.79,0-3.17,2.6-5.76,5.76-5.76,3.17,0,5.79,2.63,5.77,5.8-.01,3.18-2.59,5.75-5.76,5.74ZM47.63,51.43c0,1.07.88,1.93,1.94,1.91,1.06-.02,1.9-.9,1.88-1.97-.02-1.05-.87-1.88-1.92-1.88-1.07,0-1.91.86-1.9,1.94Z" style="fill:#ff6706;"/><path d="M42.36,29.51c.07.05.09.12.09.2-.06-.05-.1-.12-.09-.2Z" style="fill:#ea54c0;"/><path d="M28.15,44.58c-.08,0-.15-.02-.2-.09.08,0,.15.03.2.09Z" style="fill:#ea54c0;"/><path d="M65.54,34.13l3.51-10.59c1.55-4.69,7.5-6.1,10.99-2.62h0c3.5,3.49,2.11,9.43-2.58,11l-10.58,3.55c-.83.28-1.62-.51-1.35-1.34Z" style="fill:#fff;"/></svg>