<?xml version="1.0" encoding="UTF-8"?>
<svg id="Layer_1" data-name="Layer 1" xmlns="http://www.w3.org/2000/svg" xmlns:xlink="http://www.w3.org/1999/xlink" viewBox="0 0 291 217">
  <defs>
    <style>
      .cls-1 {
        fill: #2e2e2e;
      }

      .cls-1, .cls-2, .cls-3, .cls-4, .cls-5, .cls-6, .cls-7, .cls-8, .cls-9, .cls-10, .cls-11, .cls-12, .cls-13 {
        stroke-width: 0px;
      }

      .cls-2 {
        fill: url(#linear-gradient);
      }

      .cls-3 {
        fill: #70ebc3;
      }

      .cls-14 {
        fill: #9fe2a5;
        stroke: #000;
      }

      .cls-14, .cls-15 {
        stroke-miterlimit: 10;
        stroke-width: .5px;
      }

      .cls-4 {
        fill: #61e0b9;
      }

      .cls-5 {
        fill: #16c188;
      }

      .cls-6 {
        fill: #dbe6de;
      }

      .cls-7 {
        fill: #b8ccbd;
      }

      .cls-8 {
        fill: #3c4150;
      }

      .cls-15 {
        stroke: #3f3f3f;
      }

      .cls-15, .cls-9 {
        fill: #fff;
      }

      .cls-10 {
        fill: #d3e5dd;
      }

      .cls-11 {
        fill: #e5ebe7;
      }

      .cls-12 {
        fill: #05324f;
      }

      .cls-13 {
        fill: #67db8a;
      }
    </style>
    <linearGradient id="linear-gradient" x1="102.96" y1="7.85" x2="204.29" y2="241.85" gradientUnits="userSpaceOnUse">
      <stop offset="0" stop-color="#fff4f4"/>
      <stop offset=".32" stop-color="#ecf7f7"/>
      <stop offset="1" stop-color="#cafffe"/>
    </linearGradient>
  </defs>
  <rect class="cls-2" x="-4.83" y="-4.17" width="303.33" height="226.67"/>
  <g>
    <path class="cls-10" d="m-.54,44.17c-35.81-20.64-19.08-37.37,1.56-1.56,20.64-35.81,37.37-19.08,1.56,1.56,35.81,20.64,19.08,37.37-1.56,1.56-20.64,35.81-37.37,19.08-1.56-1.56Z"/>
    <path class="cls-10" d="m-.08,45.27c-39.92,10.73-39.92-12.93,0-2.2C-10.81,3.15,12.85,3.15,2.12,43.07c39.92-10.73,39.92,12.93,0,2.2,10.73,39.92-12.93,39.92-2.2,0Z"/>
  </g>
  <g>
    <path class="cls-10" d="m254.31,0c-17.98-10.36-9.58-18.77.78-.78C265.45-18.77,273.85-10.36,255.87,0c17.98,10.36,9.58,18.77-.78.78C244.72,18.77,236.32,10.36,254.31,0Z"/>
    <path class="cls-10" d="m254.54.55c-20.04,5.39-20.04-6.49,0-1.11-5.39-20.04,6.49-20.04,1.11,0,20.04-5.39,20.04,6.49,0,1.11,5.39,20.04-6.49,20.04-1.11,0Z"/>
  </g>
  <g>
    <path class="cls-9" d="m41.53,140.47c-6.17,0-11.18,5.02-11.18,11.18.61,14.84,21.75,14.83,22.37,0,0-6.17-5.02-11.18-11.18-11.18Zm0,19.5c-4.59,0-8.32-3.73-8.32-8.32.46-11.04,16.19-11.04,16.64,0,0,4.59-3.73,8.32-8.32,8.32Z"/>
    <path class="cls-9" d="m60.45,146.59h-2.14c-.34-1.13-.79-2.21-1.34-3.23l1.51-1.51c.83-.83.83-2.17,0-3l-4.16-4.16c-.83-.83-2.17-.83-3,0l-1.51,1.51c-1.02-.55-2.1-1-3.23-1.34v-2.14c0-1.17-.95-2.12-2.12-2.12h-5.88c-1.17,0-2.12.95-2.12,2.12v2.14c-1.13.34-2.21.79-3.23,1.34l-1.51-1.51c-.83-.83-2.17-.83-3,0l-4.16,4.16c-.83.83-.83,2.17,0,3l1.51,1.51c-.55,1.02-1,2.1-1.34,3.23h-2.14c-1.17,0-2.12.95-2.12,2.12v5.88c0,1.17.95,2.12,2.12,2.12h2.14c.34,1.13.79,2.21,1.34,3.23l-1.51,1.51c-.83.83-.83,2.17,0,3l4.16,4.16c.83.83,2.17.83,3,0l1.51-1.51c1.02.55,2.1,1,3.23,1.34v2.14c0,1.17.95,2.12,2.12,2.12h5.88c1.17,0,2.12-.95,2.12-2.12v-2.14c1.13-.34,2.21-.79,3.23-1.34l1.51,1.51c.83.83,2.17.83,3,0l4.16-4.16c.83-.83.83-2.17,0-3l-1.51-1.51c.55-1.02,1-2.1,1.34-3.23h2.14c1.17,0,2.12-.95,2.12-2.12v-5.88c0-1.17-.95-2.12-2.12-2.12Zm-18.92,17.91c-7.09,0-12.85-5.76-12.85-12.85.71-17.05,25-17.05,25.7,0,0,7.09-5.76,12.85-12.85,12.85Z"/>
  </g>
  <g>
    <circle class="cls-14" cx="167.66" cy="44.17" r="12.06" transform="translate(97.21 202.59) rotate(-80.78)"/>
    <g>
      <path class="cls-15" d="m164.08,40.96c0,1.98,1.61,3.59,3.59,3.59,4.76-.19,4.75-6.98,0-7.17-1.98,0-3.59,1.61-3.59,3.59Z"/>
      <path class="cls-15" d="m173.31,48.4c-.89-1.21-2.15-2.13-3.62-2.57h0c-1.27-.4-2.79-.4-4.07,0h0c-1.47.45-2.73,1.36-3.62,2.57-.52.71-.18,1.72.65,1.98,2.54.78,7.46.78,10,0,.84-.26,1.17-1.27.65-1.98Z"/>
    </g>
  </g>
  <g>
    <path class="cls-12" d="m111.79,121.88l11.38,51.95c.47,2.16-1.07,4.23-3.16,4.23h-62.87c-1.5,0-2.8-1.09-3.15-2.64l-11.75-51.95c-.49-2.17,1.05-4.25,3.15-4.25h63.24c1.51,0,2.81,1.1,3.16,2.66Z"/>
    <path class="cls-3" d="m109.27,124.33l10.88,49.68c.45,2.07-1.02,4.04-3.02,4.04h-60.12c-1.43,0-2.68-1.04-3.01-2.52l-11.24-49.68c-.47-2.07,1.01-4.06,3.01-4.06h60.47c1.44,0,2.69,1.06,3.02,2.55Z"/>
    <circle class="cls-9" cx="76.35" cy="143.15" r="6.36"/>
    <polygon class="cls-12" points="74.02 158.4 88.67 158.4 83.77 189.21 69.12 189.21 74.02 158.4"/>
    <path class="cls-9" d="m98.63,158.75h-36.78c-.19,0-.35-.16-.35-.35s.16-.35.35-.35h35.94l-3.96-21.2c-.04-.19.09-.37.28-.41.19-.04.37.09.41.28l4.12,22.03Z"/>
    <path class="cls-12" d="m63.26,185.47h36.77c1.62,0,2.93,1.31,2.93,2.93h0c0,1.62-1.31,2.93-2.93,2.93h-36.77c-1.62,0-2.93-1.31-2.93-2.93s1.31-2.93,2.93-2.93Z"/>
  </g>
  <rect class="cls-12" x="108.51" y="186.47" width="53.44" height="4.75" rx=".88" ry=".88"/>
  <path class="cls-12" d="m51.92,206.02h-16.71c-.19,0-.35-.16-.35-.35s.16-.35.35-.35h16.71c.19,0,.35.16.35.35s-.16.35-.35.35Z"/>
  <path class="cls-12" d="m233.29,206.02h-16.71c-.19,0-.35-.16-.35-.35s.16-.35.35-.35h16.71c.19,0,.35.16.35.35s-.16.35-.35.35Z"/>
  <path class="cls-9" d="m148.27,137.82s.19-2.58-.54-4.62-3.41-4.31-4.75-5.14c-1.34-.83-4.43-2.71-5.54-3.52-1.11-.81-2.96-2.73-3.96-3.06-.99-.33-2.03-.12-2.64.25-.6.37-.66,1.01-.2,2.28.46,1.27,2.71,4.3,2.71,4.3l.25,1.14s-2.54-.57-3.75-1.16c-1.21-.59-1.76-.78-1.76-.78,0,0-2.8-3.12-3.43-3.63-.64-.5-1.48-.61-1.82-.52-.34.09-.84.4-.66,1.33-1.35-.57-1.51-1.14-2.2-.72s-1.59.78-.86,2.1c-1.64.3-2.03-.39-2.12.94-.09,1.32.11,2.3.48,2.88-.8,1.73.56,3.74,2.08,5.09,1.52,1.36,4.68,2.31,6.8,2.63,2.12.32,5.45.63,6.24,1.23.79.59,1.83,2.84,1.83,2.84l13.84-3.85Z"/>
  <path class="cls-9" d="m216.57,135.33l19.82-.18s3.76.11,6.33,1.92c2.57,1.81,4.12,2.97,5.02,5.05.9,2.08,1.64,3.76,1.53,5.28-.11,1.53-.15,5.55-.15,5.55,0,0-1.43,38.91-1.55,38.91h-26.34l-6.52-53.31,1.86-3.22Z"/>
  <path class="cls-12" d="m242.53,192.33s-.01,0-.02,0c-.26-.01-.46-.23-.45-.49l1.74-43.49c0-7.02-5.72-12.73-12.74-12.73h-9.49c-.26,0-.47-.21-.47-.47s.21-.47.47-.47h9.49c3.65,0,7.09,1.42,9.68,4.01,2.58,2.58,4.01,6.02,4.01,9.68v.02s-1.74,43.5-1.74,43.5c-.01.25-.22.45-.47.45Zm1.74-43.97h0,0Z"/>
  <path class="cls-12" d="m247.57,192.33s-.01,0-.02,0c-.26-.01-.46-.23-.45-.49l1.74-43.49c0-7.02-5.72-12.73-12.74-12.73h-14.53c-.26,0-.47-.21-.47-.47s.21-.47.47-.47h14.53c3.65,0,7.09,1.42,9.68,4.01,2.58,2.58,4.01,6.02,4.01,9.68v.02s-1.74,43.5-1.74,43.5c-.01.25-.22.45-.47.45Zm1.74-43.97h0,0Z"/>
  <path class="cls-12" d="m200.03,79.17c-3.85-1.02-6.93-1.56-11.53-.8-4.6.76-8.38,4.43-9.99,6.62-1.6,2.19-2.59,5-2.75,7.62-.16,2.62-.22,4.52.88,7.65,1.11,3.13,1.71,4.39,1.55,5.98-.16,1.59-1.54,7.3-2.13,9.47-.59,2.18-1.14,3.82-.52,6.67.62,2.84,1.7,7.45,6.7,9.87,5,2.41,38.5,14.57,41.89,14.4,3.39-.17,3.01.39,4.51-2.41,1.5-2.8,2.45-7.63,1.21-11.15-1.24-3.52-2.33-6.86-5.04-10.75-2.71-3.89-4.79-8.93-4.9-11.43-.11-2.5.31-9.76.25-12.39-.05-2.63-1.05-10.12-3.26-12.86-2.21-2.75-8.19-5.68-10.18-6.27-1.99-.59-4.99-.83-6.69-.2Z"/>
  <path class="cls-9" d="m177.36,123.52c-.62-2.84-.07-4.49.52-6.67.59-2.18,1.98-7.89,2.13-9.47.16-1.59-.45-2.85-1.55-5.98-1.11-3.13-1.05-5.04-.88-7.65.16-2.62,1.15-5.43,2.75-7.62,1.6-2.19,5.38-5.86,9.99-6.62,4.6-.76,7.68-.21,11.53.8,1.69-.64,4.7-.39,6.69.2,1.02.3,3.09,1.22,5.16,2.42-2.58-1.73-5.69-3.18-7.02-3.57-1.99-.59-4.99-.83-6.69-.2-3.85-1.02-6.93-1.56-11.53-.8-4.6.76-8.38,4.43-9.99,6.62-1.6,2.19-2.59,5-2.75,7.62-.16,2.62-.22,4.52.88,7.65s1.71,4.39,1.55,5.98c-.16,1.59-1.54,7.3-2.13,9.47-.59,2.18-1.14,3.82-.52,6.67.61,2.82,1.69,7.36,6.56,9.79-3.31-2.54-4.17-6.22-4.7-8.64Z"/>
  <path class="cls-12" d="m227.34,146.44c-.1,0-.21-.03-.3-.11-.2-.16-.23-.46-.07-.66,6.42-7.91,1.04-16.95-3.29-24.22-1.99-3.34-3.7-6.22-4.08-8.58-.53-3.33-.35-6.69-.16-9.94.26-4.66.53-9.48-1.36-14.19-1.82-4.55-6.3-7.02-8.81-8.08-3.57-1.52-7.21-1.97-8.66-1.54-.25.07-.51-.07-.59-.32-.07-.25.07-.51.32-.59,1.63-.49,5.35-.1,9.3,1.58,2.09.89,3.92,2,5.44,3.32,1.79,1.55,3.09,3.32,3.88,5.28,1.96,4.91,1.69,9.83,1.43,14.59-.18,3.2-.36,6.51.15,9.74.35,2.18,2.02,4.99,3.96,8.24,2.2,3.7,4.7,7.89,5.81,12.2,1.3,5.06.45,9.34-2.59,13.1-.09.11-.23.17-.37.17Z"/>
  <path class="cls-4" d="m149.26,137.48l-15.78,4.76s3.68,13.93,4.98,17.14c1.29,3.21,3.24,10.1,5.19,13.9,1.95,3.8,4.76,7.62,8.26,8.76,3.51,1.14,8.73-.08,10.4-1.7s11.18-3.28,11.18-3.28c0,0,3.05,13.07,2.96,14.6.65.37,46.81.2,46.81.2,0,0,7.37-.45,9.36-6.78.47-2.24-.1-14.01-.63-16.73-.53-2.72-2.6-14.98-3.51-17.34-.9-2.36-2.26-8.79-4.12-11.75-1.86-2.96-5.17-6.93-7.72-8.33-2.56-1.41-5.69-2.76-5.69-2.76,0,0-3.15,2.02-4.73,2.63-1.58.61-4.72,1.91-10.08,2.2-5.36.3-8.37-.9-9.27-1.25-.91-.35-4.4-2.24-5.2-3.16-2.26.77-6.18,4.56-6.71,5.09-.53.53-3.57,3.66-5.88,7.4-2.31,3.74-6.08,10.68-6.08,10.68l-2.49,4.68-.99,1.92-10.28-20.89Z"/>
  <g>
    <path class="cls-9" d="m160.33,160.23l3.96-7.11s3.78-6.94,6.08-10.68c2.31-3.74,5.46-7.2,5.99-7.73.5-.5,4.14-4.06,6.43-5.07-.9-.55-.34-.65-.67-1.04-2.26.77-7.48,4.84-8.01,5.37-.53.53-3.1,3.99-5.4,7.73-2.31,3.74-9.17,16.77-9.17,16.77l.79,1.77Z"/>
    <path class="cls-9" d="m177.97,191.77c-.22-4.12-2.03-13.04-2.03-13.04,0,0-.43.04-1.64.28.83,3.61,1.42,11.47,1.35,12.65.08.05.91.08,2.31.11Z"/>
  </g>
  <path class="cls-9" d="m174.3,149.84c-1.52,2.68-2.92,7.2-3.41,9.41-.49,2.21-.47,6.72.1,8.85.56,2.14,2.21,6.65,2.21,6.65l1.41-.34s-1.03-4.11-1.69-6.63c-.83-3.16-.9-7.29-.13-10.48,1.31-5.44,1.5-7.46,1.5-7.46Z"/>
  <path class="cls-9" d="m185.2,90.23s-1.03,3.35-1.36,4.48c-.36,1.23-1.36,4.95-1.36,4.95,0,0-.95,4.49-1.18,6.1-.24,1.61.22,3.87,1.28,6.7.52,1.39,2.25,3.26,4.48,4.17,2.3.94,2.52,1.37,2.52,1.37,0,0,.07,6.11-.49,6.89-.56.79-1.15,1.49-1.92,1.61s-4.08,1.56-4.08,1.56c0,0-.8.57-.86.84-.06.26,3.31,3.09,8.69,3.59s9.14.36,11.46-.26c2.32-.62,4.94-1.41,6.42-2.34,1.48-.93,1.75-1.67,1.75-1.67,0,0-4.85-1.41-5.52-2.48s-.97-2.67-1.04-3.62c-.07-.95-.33-5.73-.26-6.94.06-1.21-.08-9.72-.08-9.72l-.38-3.57s-4.23-2.75-4.86-3.67c-.63-.92-4.04-4.56-4.65-5.48-.61-.91-3.21-5.14-3.18-5.98l-.4.16s-.55,1.21-1.9,1.97c-1.35.75-3.08,1.37-3.08,1.37Z"/>
  <g>
    <path class="cls-6" d="m228.54,48.2h-5.04c-2.32,0-4.21,1.88-4.21,4.21v10.91c0,2.32,1.88,4.21,4.21,4.21h2.62l-2.26,9.39,11.31-9.39h29.08c2.32,0,4.21-1.88,4.21-4.21v-10.91c0-2.32-1.88-4.21-4.21-4.21h-27.35s-8.36,0-8.36,0Z"/>
    <path class="cls-9" d="m221.06,65.11v-12.26c0-1.58,1.28-2.86,2.86-2.86h6.38s8.36,0,8.36,0h27.35c.67,0,1.29.16,1.85.43-.69-1.39-2.11-2.35-3.77-2.35h-40.75c-2.32,0-4.21,1.81-4.21,4.13v10.99c0,1.66.96,3.09,2.35,3.77-.28-.56-.43-1.19-.43-1.85Z"/>
    <path class="cls-1" d="m224.14,77.68c-.12,0-.23-.03-.34-.08-.27-.14-.43-.43-.4-.73v-.03s0-.03,0-.03l2.06-8.81h-1.97c-2.58,0-4.68-2.1-4.68-4.68v-10.91c0-2.58,2.1-4.68,4.68-4.68h5.04c.26,0,.47.21.47.47s-.21.47-.47.47h-5.04c-2.06,0-3.73,1.68-3.73,3.73v10.91c0,2.06,1.68,3.73,3.73,3.73h3.16l-2.18,9.31,10.51-9.31h29.26c2.06,0,3.73-1.68,3.73-3.73v-10.91c0-2.06-1.68-3.73-3.73-3.73h-27.35c-.26,0-.47-.21-.47-.47s.21-.47.47-.47h27.35c2.58,0,4.68,2.1,4.68,4.68v10.91c0,2.58-2.1,4.68-4.68,4.68h-28.9l-10.73,9.5c-.14.12-.31.19-.49.19Z"/>
    <path class="cls-1" d="m262.01,55.91h-35.6c-.26,0-.47-.21-.47-.47s.21-.47.47-.47h35.6c.26,0,.47.21.47.47s-.21.47-.47.47Z"/>
    <path class="cls-1" d="m243.36,60.7h-16.95c-.26,0-.47-.21-.47-.47s.21-.47.47-.47h16.95c.26,0,.47.21.47.47s-.21.47-.47.47Z"/>
    <path class="cls-1" d="m262.01,60.7h-14.74c-.26,0-.47-.21-.47-.47s.21-.47.47-.47h14.74c.26,0,.47.21.47.47s-.21.47-.47.47Z"/>
  </g>
  <path class="cls-12" d="m173.8,178.09c-.21,0-.41-.15-.46-.36-.34-1.45-.77-2.93-1.23-4.51-1.11-3.82-2.26-7.77-2-11.17.4-5.22,1.52-8.39,3.57-12.74.11-.24.39-.34.63-.23.24.11.34.39.23.63-2.29,4.85-3.14,7.86-3.49,12.41-.25,3.23.88,7.1,1.96,10.84.44,1.52.9,3.08,1.24,4.56.06.25-.1.51-.35.57-.04,0-.07.01-.11.01Z"/>
  <path class="cls-12" d="m193.04,118.04c-1.7,0-3.01-.22-3.62-.34-6.2-1.26-9.19-5.84-8.4-12.9.39-3.53,2.55-11.59,3.92-14.62.11-.24.39-.34.62-.24.24.11.34.39.24.62-1.31,2.9-3.47,10.94-3.84,14.33-.51,4.6.4,10.4,7.65,11.87.67.14,3.1.55,6.01.14.26-.04.5.14.53.4.04.26-.14.5-.4.53-.97.14-1.89.19-2.71.19Z"/>
  <path class="cls-1" d="m205.07,109.44c-.27,0-.54-.03-.81-.08-.59-.12-1.13-.36-1.6-.72-.19-.14-.23-.42-.09-.61.14-.19.42-.23.61-.09.37.28.79.47,1.26.56.82.17,1.65,0,2.35-.46.7-.46,1.17-1.17,1.34-1.98.17-.82,0-1.65-.46-2.35-.46-.7-1.17-1.17-1.98-1.34-.42-.09-.85-.09-1.27,0-.23.05-.46-.1-.51-.33-.05-.23.1-.46.33-.51.54-.11,1.08-.11,1.62,0,1.05.21,1.95.82,2.53,1.71.59.89.8,1.96.58,3-.21,1.05-.82,1.95-1.71,2.53-.66.44-1.42.66-2.2.66Z"/>
  <path class="cls-1" d="m206.83,106.12s-.06,0-.09,0c-.23-.05-.38-.28-.33-.52.07-.31.09-.75-.16-1.1-.22-.31-.64-.5-1.2-.56-.24-.03-.41-.24-.39-.48.03-.24.24-.41.48-.39.81.09,1.44.4,1.81.91.35.48.45,1.1.3,1.79-.04.2-.22.34-.42.34Z"/>
  <path class="cls-12" d="m186.34,98.86c-.15.73-.62,1.26-1.05,1.17-.43-.09-.66-.75-.51-1.49s.62-1.26,1.05-1.17c.43.09.66.75.51,1.49Z"/>
  <ellipse class="cls-12" cx="196.19" cy="101.35" rx="1.36" ry=".8" transform="translate(57.68 273.34) rotate(-78.47)"/>
  <path class="cls-12" d="m201.06,98.96c-.12,0-.24-.05-.33-.14-1.64-1.64-4.21-2.48-6.4-2.08-.26.05-.5-.12-.55-.38-.05-.26.12-.5.38-.55,2.52-.46,5.36.47,7.24,2.35.18.18.18.48,0,.67-.09.09-.21.14-.33.14Z"/>
  <path class="cls-12" d="m188.13,105.91s-.04,0-.06,0c-.06,0-.14-.01-.22-.02-.5-.04-1.26-.1-1.67-.65-.23-.31-.31-.7-.22-1.16.13-.71.83-1.16,1.45-1.55.29-.18.56-.36.74-.53l.04-.04c.48-.46,1.37-1.31,1.41-3.05.06-2.25-.47-2.93-1.77-3.67-1.36-.78-3.98-.88-5.32-.45-.25.08-.51-.06-.59-.3s.06-.51.3-.59c1.56-.5,4.44-.41,6.08.53,1.76,1.01,2.31,2.1,2.24,4.51-.06,2.13-1.21,3.24-1.7,3.71l-.04.04c-.25.24-.57.44-.88.64-.46.29-.98.63-1.03.94-.04.19-.02.33.04.41.16.21.68.25,1,.28.1,0,.19.02.27.03.26.03.44.27.4.53-.03.24-.23.41-.47.41Z"/>
  <path class="cls-9" d="m184.22,175.31s-5.32-2.65-9.09-3.79c-.75-.23-6.17-3.16-14.36-2.43-.57.05-3.06.9-3.2,2.05-.29,2.39,10.14.69,9.48,2.14-2.73.29-5.68.69-6.76,1.3-1.09.6-1.81.89-2.86,1.51-.87.52-1.83,2.06-1.21,2.58.61.52,1.43.84,2.67.52-1.38,2.07,1.78,2.32,2.48,2.02-.51.43-.64.95-.23,1.56.47.7,1.89.7,2.45.59,1.47-.31,4.71-1.01,6.16-.79,1.45.22,3.15,1.68,4.51,2.14,1.36.47,2.25,1.11,3.53,1.23,1.28.13,5.34.05,5.32-.07s1.12-10.55,1.12-10.55Z"/>
  <path class="cls-12" d="m184.25,175.52c-.06,0-.13-.01-.19-.04-.09-.04-9.4-4.06-14.12-5.2-3.82-.93-6.95-1.37-9.81-.55-.95.27-1.55.56-1.79.87-.15.19-.15.37-.12.74.01.15.04.49,1.72.56.25,0,.58.02.95.02,1.98.04,5.29.1,7.04.9.24.11.34.39.23.63-.11.24-.39.34-.63.23-1.57-.72-4.76-.78-6.67-.82-.38,0-.71-.01-.97-.02-1.3-.05-2.52-.26-2.62-1.42-.03-.38-.08-.91.32-1.41.38-.47,1.1-.85,2.27-1.19,3.06-.88,6.32-.42,10.29.54,4.79,1.16,13.88,5.08,14.27,5.25.24.1.35.38.25.62-.08.18-.25.28-.43.28Z"/>
  <path class="cls-12" d="m181.55,186.65c-1.49,0-3.63-.04-4.51-.25-2.19-.53-4.4-1.83-5.85-2.69-.41-.24-.77-.46-1.05-.6-.64-.34-2.15-.09-3.74.17-1.09.18-2.33.38-3.53.44-1.08.05-1.55-.33-1.87-.7-.53-.62-.52-1.18-.42-1.54.38-1.32,2.52-2.1,4.49-2.72.14-.04.27-.08.37-.12,2.16-.71,3.76-.91,6.98-.1.25.06.41.32.34.57-.06.25-.32.41-.57.34-3.02-.75-4.43-.58-6.46.08-.11.04-.24.08-.38.12-.98.31-3.6,1.13-3.87,2.08-.04.13-.05.34.23.67.15.17.35.41,1.11.37,1.15-.06,2.31-.24,3.43-.42,1.91-.31,3.42-.55,4.33-.07.29.16.66.37,1.09.62,1.41.83,3.54,2.09,5.59,2.59,1.04.25,4.54.24,5.81.21.26,0,.48.2.48.46,0,.26-.2.48-.46.48-.07,0-.7.01-1.54.01Z"/>
  <path class="cls-12" d="m155,183.07c-2.28,0-4.42-.82-6.35-2.46-1.99-1.68-3.82-4.22-5.58-7.77-3.25-6.54-5.79-15.51-8.48-25.01-.51-1.79-1.03-3.64-1.56-5.47l-.13-.44.44-.14c4.33-1.34,15.67-4.73,15.79-4.77l.4-.12.17.39c3.37,7.85,8.95,19.06,12.7,26.27.12.23.03.52-.2.64-.23.12-.52.03-.64-.2-3.7-7.11-9.17-18.1-12.57-25.95-1.99.6-10.84,3.25-14.93,4.51.49,1.68.97,3.38,1.43,5.03,2.68,9.45,5.21,18.38,8.42,24.84,3.53,7.1,7.36,10.17,12.06,9.65.08,0,.16-.02.25-.03,1.09-.12,2.44-.26,3.74-1.02.22-.13.51-.06.65.17s.06.51-.17.65c-1.48.87-3,1.03-4.12,1.15-.08,0-.17.02-.25.03-.36.04-.72.06-1.08.06Z"/>
  <path class="cls-12" d="m159.54,158.65c-.08,0-.16-.02-.24-.07-.22-.13-.3-.42-.17-.65,1.11-1.87,2.2-3.95,3.35-6.15,2.86-5.48,6.11-11.69,11.13-17.5,4.63-5.36,9.69-7.02,12.71-8.01.29-.1.56-.19.82-.27.91-.31,1.58-1.08,1.75-2.01.37-2,.35-3.96.33-5.85,0-.19,0-.38,0-.57,0-.26.21-.47.47-.48,0,0,0,0,0,0,.26,0,.47.21.47.47,0,.19,0,.38,0,.57.02,1.94.05,3.94-.34,6.04-.24,1.26-1.14,2.31-2.37,2.73-.26.09-.53.18-.83.27-2.93.96-7.83,2.58-12.29,7.74-4.95,5.73-8.17,11.89-11.01,17.32-1.16,2.21-2.25,4.3-3.37,6.19-.09.15-.24.23-.41.23Z"/>
  <path class="cls-12" d="m220.45,191.88c-3.08,0-6.81-.25-10.88-.73l-27.01-3.4,1.35-13.71,33.63,1.14c.26,0,.46.23.46.49,0,.26-.23.46-.49.46l-32.75-1.11-1.17,11.92,26.09,3.29c4.56.54,8.68.79,11.93.71,3.94-.09,6.64-.63,8.02-1.6,1.83-1.29,2.75-4.56,2.74-9.71,0-4.31-.64-9.1-1.33-13.64-1.35-8.92-3.53-17.91-5.7-23.45-3.86-9.87-10.38-12.67-19.18-15.55-1.32-.43-2.29-1.61-2.47-2.99-.63-4.98-.31-10.66.03-15.04.02-.26.25-.45.51-.43.26.02.45.25.43.51-.34,4.34-.66,9.95-.04,14.85.13,1.03.85,1.89,1.83,2.22,4.14,1.35,8.14,2.77,11.57,5.2,3.7,2.61,6.3,6.08,8.19,10.9,2.19,5.6,4.39,14.66,5.75,23.65.69,4.57,1.33,9.41,1.34,13.78.01,5.55-1.02,8.98-3.14,10.48-1.54,1.08-4.41,1.68-8.54,1.77-.38,0-.78.01-1.18.01Z"/>
  <path class="cls-12" d="m213.52,175.78c-.23,0-.43-.17-.47-.4l-1.89-12.04c-.04-.26.14-.5.39-.54.26-.04.5.14.54.39l1.89,12.04c.04.26-.14.5-.39.54-.02,0-.05,0-.07,0Z"/>
  <path class="cls-12" d="m160.03,181.85c-.94,0-1.44-.5-1.65-.79-.68-.93-.39-1.66,1.29-3.22,1.86-1.74,7.89-3.29,12.29-2.63.26.04.43.28.4.54-.04.26-.28.43-.54.4-1.88-.28-4.31-.14-6.68.39-2.18.49-4.02,1.25-4.82,2-.75.7-1.19,1.22-1.3,1.53-.05.14-.04.2.13.45.45.62,1.34.41,2.01.13.24-.1.52,0,.62.25.1.24,0,.52-.25.62-.59.25-1.08.35-1.49.35Z"/>
  <path class="cls-1" d="m134.06,130.06c-1.57,0-2.9-.55-4.53-1.23-.47-.2-.96-.4-1.5-.61l-.05-.02-.04-.03c-1.18-.8-1.89-1.71-2.52-2.52-.56-.72-1.04-1.34-1.73-1.68-.35-.17-.91-.22-1.25.03-.03.04-.11.19-.1.4.01.26-.18.48-.44.5-.26.02-.48-.18-.5-.44-.03-.48.16-.97.46-1.2.68-.52,1.62-.44,2.24-.13.88.44,1.45,1.17,2.06,1.95.6.78,1.22,1.58,2.25,2.29.53.2,1,.4,1.47.6,2.37.99,3.94,1.64,6.62.69.25-.09.51.04.6.29.09.25-.04.51-.29.6-1.04.37-1.94.53-2.77.53Z"/>
  <path class="cls-12" d="m148.56,137.91c-.24,0-.44-.18-.47-.42-.56-4.84-1.29-6.51-5.37-9.03-.48-.3-.93-.57-1.35-.83-3.27-2.02-4.91-3.03-7.54-5.31-.87-.75-1.75-.92-2.42-.46-.5.34-.73.96-.55,1.46.96,2.69,3.12,5.06,3.83,5.84.18.19.16.49-.03.67-.19.18-.49.16-.67-.03-.74-.81-2.99-3.28-4.02-6.15-.32-.9.06-1.98.91-2.56,1.04-.71,2.37-.51,3.57.53,2.57,2.24,4.19,3.23,7.41,5.22.42.26.87.54,1.35.83,2.27,1.4,3.53,2.58,4.35,4.04.84,1.5,1.17,3.22,1.46,5.69.03.26-.16.49-.41.52-.02,0-.04,0-.05,0Z"/>
  <path class="cls-12" d="m134.2,142.24c-.18,0-.35-.1-.43-.28-.12-.27-.23-.55-.33-.82-.28-.73-.54-1.43-1.14-1.95-.36-.23-2.66-.54-4.34-.77-2.1-.28-4.27-.58-5.24-.93l-.04-.02c-3.58-1.75-5.49-4.32-5.81-5.22-.43-1.22-.34-2.1.29-2.7.95-.92,2.5-.12,3.01.14.77.4,1.57,1.1,2.33,1.79.91.81,1.85,1.65,2.59,1.81.46.1,1.34.09,2.36.07,2.37-.03,5.61-.07,7.7,1.13.23.13.3.42.17.64s-.42.3-.64.17c-1.87-1.07-4.96-1.03-7.22-1.01-1.12.01-2.01.02-2.57-.1-.98-.21-1.97-1.09-3.02-2.02-.72-.65-1.47-1.31-2.14-1.65-.67-.34-1.54-.67-1.93-.3-.12.12-.49.48-.06,1.71.23.65,1.98,3.05,5.32,4.68.88.32,3.08.62,5.02.88,3.1.42,4.41.62,4.83.98.79.68,1.1,1.52,1.41,2.34.1.27.2.52.31.77.11.24,0,.52-.24.62-.06.03-.13.04-.19.04Zm-1.9-3.05s0,0,0,0c0,0,0,0,0,0Z"/>
  <path class="cls-12" d="m127.96,132.08s-.09,0-.14-.02c-.17-.05-.33-.1-.5-.16-1.37-.43-2.66-.83-3.3-1.26-.65-.44-1.58-1.3-2.48-2.14-.8-.75-1.63-1.52-2.04-1.76-.45-.27-1.35-.53-1.91.19-.58.75-.15,1.73.27,2.21.17.19.16.49-.04.67-.19.17-.49.16-.67-.04-.76-.85-1.18-2.29-.31-3.41.83-1.08,2.21-.98,3.14-.42.49.3,1.28,1.03,2.2,1.88.87.81,1.77,1.65,2.36,2.04.53.36,1.87.78,3.06,1.15.17.05.34.11.5.16.25.08.39.34.31.59-.06.2-.25.33-.45.33Z"/>
  <path class="cls-12" d="m128.93,130.04s-.08,0-.12-.02c-.32-.09-3.2-.91-4.16-2.24-.44-.61-1.28-1.49-2.1-2.2-1.13-.97-1.76-1.23-1.96-1.24h0c-.43,0-.81.17-1.04.46-.21.26-.29.6-.22.95.06.25-.11.51-.36.56-.25.06-.51-.11-.56-.36-.13-.62.01-1.26.4-1.74.42-.51,1.06-.81,1.78-.81h0c1.34,0,4.02,2.71,4.82,3.82.65.9,2.86,1.67,3.65,1.88.25.07.4.33.33.58-.06.21-.25.35-.45.35Z"/>
  <g>
    <path class="cls-12" d="m189.7,112.33c1.48-.1,2.37-.73,2.88-1.75.39-.78.44-1.22.11-1.47-.42-.32-1.57-.06-3.31.12-1.27.13-3.08-.13-3.29.77-.18.78,1.27,2.48,3.61,2.33Z"/>
    <path class="cls-9" d="m191.85,111.08c-.78-1-3.29-1.33-3.84.68,1.5.5,3.39-.12,3.84-.68Z"/>
    <path class="cls-12" d="m189.42,112.7c-1.31,0-2.51-.52-3.28-1.42-.44-.52-.63-1.08-.53-1.54.25-1.06,1.57-1.09,2.74-1.11.35,0,.69-.02.99-.05.4-.04.78-.09,1.12-.13,1.28-.16,2.06-.26,2.54.11.79.59.27,1.65.04,2.1-.62,1.24-1.73,1.93-3.3,2.03h0c-.11,0-.22.01-.33.01Zm.3-.51h0,0Zm2.34-2.87c-.37,0-.97.07-1.47.14-.34.04-.72.09-1.14.13-.34.04-.71.04-1.07.05-.64.01-1.71.04-1.78.34-.02.07.04.33.32.65.48.57,1.46,1.14,2.77,1.05h0c1.22-.08,2-.55,2.46-1.48.33-.66.27-.82.27-.83h0s0,0-.01-.01c-.06-.04-.18-.05-.34-.05Z"/>
    <path class="cls-12" d="m187.86,112.42s-.04,0-.05,0c-.28-.03-.48-.28-.45-.55.12-1.12.83-1.93,1.9-2.18,1.17-.26,2.47.22,3.03,1.13.14.24.07.55-.17.69-.24.15-.55.07-.69-.17-.33-.54-1.2-.84-1.94-.67-.46.1-1.02.41-1.12,1.3-.03.26-.25.45-.5.45Z"/>
  </g>
  <path class="cls-9" d="m146.02,112.47c-.57-1.22-.17-2.14,1.2-2.78.66-.31,1.24-.39,1.75-.24.5.15.89.51,1.17,1.1.27.57.29,1.1.08,1.59-.22.49-.65.88-1.3,1.18-.59.28-1.15.36-1.67.26-.52-.1-.93-.47-1.23-1.12Zm1.12-5.37l-1.79.84-7.49-13.79,3.53-1.65,5.75,14.6Z"/>
  <path class="cls-12" d="m206.35,103.97s-.1,0-.14-.02c-5.75-1.85-13.18-9.62-15.88-16.52-1.88,2.1-5.02,4.06-7.78,3.97-.26,0-.46-.23-.46-.49,0-.26.23-.46.49-.46,2.64.09,5.71-1.97,7.38-4.05.14-.17.36-.26.58-.22.22.04.4.19.47.39,1.15,3.22,3.54,6.9,6.55,10.1,3,3.19,6.26,5.51,8.93,6.37.25.08.38.35.3.59-.06.2-.25.33-.45.33Z"/>
  <path class="cls-12" d="m178.99,130.44c-.13,0-.25-.05-.35-.15-2.49-2.69-3.71-5.81-3.72-9.54-.01-3.19.85-6.3,1.62-9.04.66-2.37,1.23-4.42,1.11-5.99-.13-1.64-.64-2.99-1.18-4.43-1.07-2.85-2.29-6.08-.47-12.2.7-2.35,1.86-4.42,3.46-6.16,1.46-1.59,3.24-2.87,5.31-3.82,3.78-1.73,8.23-2.2,12.2-1.27.25.06.41.31.35.57-.06.25-.31.41-.57.35-7.67-1.79-17.19,1.69-19.85,10.6-1.73,5.81-.63,8.75.45,11.6.54,1.43,1.1,2.91,1.24,4.69.14,1.73-.46,3.86-1.14,6.31-1.49,5.36-3.35,12.03,1.89,17.69.18.19.17.49-.03.67-.09.08-.21.13-.32.13Z"/>
  <path class="cls-12" d="m195.16,133.44c-2.82,0-5.49-.36-7.74-1.05-2.6-.8-4.55-1.98-5.79-3.52-.15-.19-.12-.46.06-.61.19-.15.46-.12.61.06,2.21,2.73,7.15,4.31,13.21,4.25,5.91-.07,11.64-1.72,14.95-4.31.19-.15.46-.11.61.07.15.19.11.46-.07.61-1.76,1.38-4.17,2.52-6.97,3.31-2.66.75-5.6,1.16-8.5,1.19-.12,0-.25,0-.37,0Z"/>
  <path class="cls-12" d="m157.38,179.66c-.4,0-.79-.07-1.11-.28-.26-.17-.58-.51-.65-1.14-.23-2.2,2.42-3.21,4.17-3.89.55-.21,5.53-2.04,10.89-1.41.26.03.44.27.41.52-.03.26-.27.44-.52.41-5.13-.61-9.91,1.15-10.44,1.35-1.88.72-3.71,1.54-3.57,2.91.03.29.15.4.23.45.52.34,1.78-.07,2.26-.22.1-.03.18-.06.24-.07.25-.07.51.08.58.33.07.25-.08.51-.33.58-.04.01-.12.04-.2.06-.45.15-1.23.39-1.96.39Z"/>
  <path class="cls-12" d="m176.19,192.33c-.25,0-.46-.19-.47-.44-.19-3.22-1.01-6.47-1.02-6.51-.06-.25.09-.51.34-.57.25-.06.51.09.57.34.03.14.86,3.38,1.05,6.69.02.26-.18.48-.44.5,0,0-.02,0-.03,0Z"/>
  <g>
    <path class="cls-6" d="m78.91,85.83l.09,5.48c0,.05.06.07.1.04l9.17-9.86s0-.1-.04-.1l-13.45.79c-.05,0-.08.07-.03.1l4.14,3.51s.02.03.02.04Z"/>
    <polygon class="cls-9" points="75.9 83.15 88.18 81.61 74.74 82.27 75.9 83.15"/>
    <path class="cls-1" d="m79.06,91.67c.1,0,.19-.04.26-.11l4.62-4.61c.12-.12.12-.32,0-.44-.12-.12-.32-.12-.44,0l-4.2,4.19-.08-4.89c0-.11-.06-.21-.14-.27l-3.66-3.1,12.22-.71-1.74,2.01c-.11.13-.1.33.03.44.13.11.33.1.44-.03l2.13-2.46c.1-.11.12-.26.06-.4-.06-.13-.2-.22-.35-.21h0s-13.45.79-13.45.79c-.16,0-.29.11-.33.26-.04.14,0,.3.13.39l4.06,3.43.09,5.37c0,.15.1.28.24.33.04.01.08.02.13.02Z"/>
    <path class="cls-1" d="m78.91,86.11s.09,0,.13-.03l4.92-2.31c.15-.07.22-.26.15-.41-.07-.15-.26-.22-.41-.15l-4.92,2.31c-.15.07-.22.26-.15.41.05.11.16.18.28.18Z"/>
  </g>
  <path class="cls-1" d="m54.64,111.2c-.02-.3-.02-.61-.02-.91,0-.73.05-1.47.14-2.2,0-.07.07-.12.15-.11.07,0,.12.07.11.15-.09.72-.14,1.45-.14,2.17,0,.3,0,.6.02.9,0,.07-.05.13-.12.14,0,0,0,0,0,0-.07,0-.13-.05-.13-.12Zm16.84-5.06c-.07-.01-.12-.08-.11-.15.01-.07.08-.12.15-.11.21.03.42.05.64.05.76,0,1.55-.18,2.3-.52.07-.03.14,0,.17.06.03.07,0,.14-.06.17-.79.36-1.62.54-2.41.54-.23,0-.46-.02-.68-.05Zm-15.96-.94c-.07-.02-.11-.1-.08-.16.32-1,.74-1.97,1.23-2.86.03-.06.11-.09.18-.05.06.03.09.11.05.18-.49.88-.9,1.83-1.21,2.82-.02.06-.07.09-.12.09-.01,0-.03,0-.04,0Zm13.3-.66c-.68-.85-1.16-1.78-1.42-2.79-.02-.07.02-.14.09-.16.07-.02.14.02.16.09.25.97.72,1.87,1.38,2.69.05.06.04.14-.02.18-.02.02-.05.03-.08.03-.04,0-.08-.02-.1-.05Zm8.02-.82c-.06-.04-.07-.12-.03-.18.62-.84.96-1.8.98-2.8,0-.07.06-.13.13-.13.07,0,.13.06.13.13-.02,1.05-.38,2.07-1.03,2.95-.03.03-.06.05-.1.05-.03,0-.05,0-.08-.03Zm-18.37-3.92c-.05-.05-.06-.13-.01-.18.68-.78,1.44-1.51,2.25-2.16.06-.04.14-.04.18.02.04.06.04.14-.02.18-.8.64-1.55,1.36-2.22,2.12-.03.03-.06.04-.1.04-.03,0-.06-.01-.09-.03Zm8.87-1.02c-.07,0-.12-.08-.11-.15.14-.97.43-1.98.89-3,.03-.07.11-.09.17-.07.07.03.09.11.07.17-.44.99-.74,1.97-.87,2.93,0,.07-.06.11-.13.11,0,0-.01,0-.02,0Zm9.69-.95c-.48-.92-1.14-1.69-1.96-2.28-.06-.04-.07-.12-.03-.18.04-.06.12-.07.18-.03.85.62,1.54,1.42,2.04,2.37.03.06,0,.14-.05.18-.02.01-.04.01-.06.01-.05,0-.09-.03-.12-.07Zm-13.78-1.92c-.03-.06-.01-.14.05-.18.93-.5,1.9-.92,2.87-1.22.07-.02.14.02.16.08.02.07-.02.14-.08.16-.96.3-1.91.71-2.82,1.21-.02.01-.04.02-.06.02-.05,0-.09-.02-.11-.07Zm9.05-1.58c-.66-.15-1.37-.22-2.1-.22-.31,0-.62.01-.94.04-.07,0-.13-.05-.14-.12,0-.07.05-.13.12-.14.32-.03.65-.04.96-.04.75,0,1.48.08,2.16.23.07.02.11.08.1.15-.01.06-.07.1-.13.1,0,0-.02,0-.03,0Zm-2.58-1.22c-.06-.04-.07-.12-.03-.18.59-.82,1.27-1.62,2.03-2.37.05-.05.13-.05.18,0,.05.05.05.13,0,.18-.74.74-1.42,1.53-2,2.34-.03.04-.07.05-.11.05-.03,0-.05,0-.08-.02Zm4.34-4.39c-.04-.06-.03-.14.03-.18.85-.63,1.74-1.18,2.65-1.64.06-.03.14,0,.17.06.03.06,0,.14-.06.17-.89.46-1.77,1-2.61,1.62-.02.02-.05.03-.08.03-.04,0-.08-.02-.1-.05Z"/>
  <g>
    <path class="cls-12" d="m117.35,93.32c-.55,0-1.1-.02-1.65-.06-11.77-.9-20.61-11.2-19.71-22.97.41-5.41,2.84-10.42,6.82-14.1,3.97-3.66,9.11-5.67,14.49-5.67.55,0,1.1.02,1.65.06,11.77.9,20.61,11.2,19.71,22.97-.41,5.41-2.84,10.42-6.82,14.1-3.97,3.66-9.11,5.67-14.49,5.67Z"/>
    <path class="cls-9" d="m117.34,91.56c-.5,0-1.01-.02-1.51-.06-5.22-.4-9.98-2.81-13.41-6.8-3.42-3.99-5.08-9.06-4.69-14.28.38-4.96,2.61-9.55,6.27-12.93,3.65-3.36,8.37-5.21,13.3-5.21.5,0,1.01.02,1.51.06,5.22.4,9.98,2.81,13.41,6.8,3.42,3.99,5.08,9.06,4.69,14.28-.38,4.96-2.61,9.55-6.27,12.93-3.65,3.36-8.37,5.21-13.3,5.21Z"/>
    <g>
      <path class="cls-11" d="m109.57,58.13c-.38,0-.72-.21-.9-.54-.26-.5-.07-1.11.43-1.37.14-.08.31-.12.47-.12.38,0,.72.21.9.54.26.5.07,1.11-.43,1.37-.14.08-.31.12-.47.12h0Z"/>
      <path class="cls-11" d="m103.2,63.99c-.19,0-.38-.05-.54-.16-.23-.14-.39-.37-.45-.63-.06-.26-.01-.54.13-.76.19-.3.51-.47.86-.47.19,0,.38.05.54.16.47.3.61.93.31,1.4-.19.3-.51.47-.86.47h0Z"/>
      <path class="cls-11" d="m102.52,80.69c-.38,0-.72-.21-.9-.54-.26-.5-.07-1.11.43-1.37.14-.08.31-.12.47-.12.38,0,.72.21.9.54.26.5.07,1.11-.43,1.37-.14.08-.31.12-.47.12h0Z"/>
      <path class="cls-11" d="m108.38,87.05c-.19,0-.38-.05-.54-.16-.47-.3-.61-.93-.31-1.4.19-.3.51-.47.86-.47.19,0,.38.05.54.16.23.14.39.37.45.63.06.26.01.54-.13.76-.19.3-.51.47-.86.47h0Z"/>
      <path class="cls-11" d="m125.08,87.74c-.38,0-.72-.21-.9-.54-.26-.5-.07-1.11.43-1.37.14-.08.31-.12.47-.12.38,0,.72.21.9.54.26.5.07,1.11-.43,1.37-.14.08-.31.12-.47.12h0Z"/>
      <path class="cls-11" d="m131.44,81.88c-.19,0-.38-.05-.54-.16-.47-.3-.61-.93-.31-1.4.19-.3.51-.47.86-.47.19,0,.38.05.54.16.47.3.61.93.31,1.4-.19.3-.51.47-.86.47h0Z"/>
      <path class="cls-11" d="m132.13,65.18c-.38,0-.72-.21-.9-.54-.26-.5-.07-1.11.43-1.37.14-.08.31-.12.47-.12.38,0,.72.21.9.54.26.5.07,1.11-.43,1.37-.14.08-.31.12-.47.12h0Z"/>
      <path class="cls-11" d="m126.27,58.81c-.19,0-.38-.05-.54-.16-.23-.14-.39-.37-.45-.63-.06-.26-.01-.54.13-.76.19-.3.51-.47.86-.47.19,0,.38.05.54.16.47.3.61.93.31,1.4-.19.3-.51.47-.86.47h0Z"/>
      <g>
        <path class="cls-7" d="m117.32,56.58s-.04,0-.06,0c-.75-.03-1.34-.67-1.31-1.42.03-.73.63-1.31,1.36-1.31.02,0,.04,0,.06,0,.75.03,1.34.67,1.31,1.42-.03.73-.63,1.31-1.36,1.31h0Z"/>
        <path class="cls-7" d="m117.32,89.98s-.04,0-.06,0c-.36-.01-.7-.17-.95-.44-.25-.27-.37-.62-.36-.98.03-.73.63-1.31,1.36-1.31.02,0,.04,0,.06,0,.36.01.7.17.95.44.25.27.37.62.36.98-.03.73-.63,1.31-1.36,1.31h0Z"/>
      </g>
    </g>
    <g>
      <path class="cls-7" d="m100.62,73.28s-.04,0-.06,0c-.75-.03-1.34-.67-1.31-1.42.03-.73.63-1.31,1.36-1.31.02,0,.04,0,.06,0,.75.03,1.34.67,1.31,1.42-.03.73-.63,1.31-1.36,1.31h0Z"/>
      <path class="cls-7" d="m134.02,73.28s-.04,0-.06,0c-.36-.01-.7-.17-.95-.44-.25-.27-.37-.62-.36-.98.03-.73.63-1.31,1.36-1.31.02,0,.04,0,.06,0,.75.03,1.34.67,1.31,1.42-.03.73-.63,1.31-1.36,1.31h0Z"/>
    </g>
    <g>
      <path class="cls-12" d="m107.96,71.3c-.1.15-.21.24-.34.27-.13.03-.26.02-.38-.03-.12-.05-.22-.14-.31-.26-.08-.12-.11-.26-.1-.41,0-.1.03-.22.08-.34.05-.12.1-.24.17-.35.07-.11.14-.22.22-.32.08-.1.16-.19.25-.26.16-.12.33-.23.53-.32.2-.09.4-.16.62-.2.22-.05.43-.06.65-.06.22,0,.42.04.61.1.52.16.92.42,1.2.77.28.35.43.8.43,1.36,0,.27-.02.5-.07.71-.05.21-.13.41-.25.61-.12.19-.28.39-.48.59-.2.2-.44.42-.73.66-.1.08-.2.17-.3.25-.1.08-.21.17-.31.25-.03.03-.09.06-.18.12-.09.05-.17.1-.24.16-.07.05-.11.1-.13.15-.01.05.04.07.16.08.14.01.26.02.34,0,.08,0,.2,0,.34,0,.17,0,.33,0,.49,0,.16,0,.32,0,.48,0,.06,0,.14,0,.21,0,.08,0,.15,0,.23,0,.08,0,.15.01.22.03.07.02.13.05.18.09s.09.11.12.18c.03.08.04.16.04.25,0,.09,0,.17-.02.25-.02.08-.05.14-.1.19-.08.1-.19.14-.31.14-.12,0-.24,0-.35,0h-3.48c-.06,0-.13,0-.21,0-.07,0-.14,0-.2-.02-.12-.03-.17-.09-.17-.18,0-.09,0-.18,0-.28,0-.16.04-.31.12-.45.08-.14.18-.27.3-.39.12-.12.25-.23.38-.33.14-.1.26-.2.38-.3.17-.15.35-.3.54-.45.19-.15.38-.3.55-.45.23-.19.42-.36.58-.51.16-.16.29-.3.38-.44.1-.14.17-.27.21-.4s.07-.27.07-.42c0-.33-.1-.58-.3-.76-.2-.18-.46-.27-.77-.27-.23,0-.44.05-.64.15-.2.1-.36.24-.49.43-.04.07-.08.14-.11.22-.04.07-.08.14-.12.21Z"/>
      <path class="cls-12" d="m116.56,69.25c.05.07.07.16.09.27.03.23.05.46.04.69,0,.24,0,.47,0,.69,0,.27,0,.53,0,.79,0,.26,0,.52,0,.79v.82h.42c.07,0,.15,0,.22.02.08.02.15.04.21.08.06.04.12.09.16.15.05.06.07.13.08.21,0,.21-.06.35-.19.42-.13.07-.28.12-.47.13-.01,0-.04,0-.08,0-.04,0-.09,0-.14,0h-.14s-.07,0-.07-.02v.9c0,.09,0,.18-.02.27-.01.09-.04.17-.07.25-.04.08-.09.14-.16.18-.03.02-.07.03-.12.04-.05,0-.1.02-.16.02-.06,0-.11,0-.17,0-.06,0-.1-.01-.14-.02-.12-.04-.19-.12-.22-.25-.03-.13-.05-.24-.07-.35v-.53c0-.12,0-.23,0-.32,0-.1-.02-.15-.03-.15h-1.71c-.19,0-.38,0-.59,0-.21,0-.38-.06-.53-.17-.12-.08-.18-.18-.2-.29-.02-.11-.01-.21.02-.32.04-.11.09-.21.16-.32.07-.1.14-.2.2-.28.25-.33.48-.67.71-1.01.23-.34.46-.68.69-1.02.13-.17.26-.34.4-.5.14-.16.27-.33.39-.5.09-.14.19-.27.3-.42.11-.14.24-.25.4-.33.15-.07.3-.11.45-.11s.25.06.33.16Zm-.96,1.75l-1.61,2.27h1.61v-2.27Z"/>
      <path class="cls-12" d="m119.17,76.16c-.08,0-.15-.01-.22-.04-.07-.03-.13-.06-.18-.11-.05-.05-.09-.1-.12-.16-.03-.06-.03-.14-.02-.22-.04-.12-.04-.22,0-.32.03-.09.07-.19.13-.29h0c.23-.5.45-1,.66-1.49.22-.49.44-.97.68-1.46.21-.45.41-.88.59-1.28.18-.4.36-.8.53-1.18.03-.07.07-.14.12-.21.05-.07.1-.13.15-.17.06-.04.13-.07.2-.08.08-.01.17,0,.28.05.17.07.29.17.37.3.08.13.11.28.07.45-.09.23-.16.42-.22.57-.06.15-.11.28-.16.4-.06.12-.11.25-.18.38-.06.13-.15.3-.25.5-.1.21-.22.47-.37.78-.15.31-.33.72-.55,1.21-.12.27-.23.52-.35.76-.12.24-.24.48-.35.72-.04.07-.08.16-.13.26-.05.1-.09.21-.15.33-.05.11-.13.19-.22.24-.1.05-.2.08-.31.08Z"/>
      <path class="cls-12" d="m123.44,69.22c.08-.04.16-.06.26-.07.1,0,.2-.01.31-.01h3.51c.09,0,.19,0,.29,0,.1,0,.2.01.28.06.12.06.18.17.2.31.02.14,0,.29-.03.47-.04.17-.11.35-.19.54-.08.19-.17.37-.26.54-.09.17-.18.33-.26.47-.08.14-.14.24-.17.32-.1.19-.2.37-.29.53-.09.16-.17.32-.25.48-.08.16-.16.32-.25.48-.09.16-.18.34-.29.53-.13.27-.28.54-.44.83-.16.29-.32.56-.47.81-.05.08-.1.16-.16.23-.06.08-.12.14-.2.19-.07.05-.16.08-.25.1-.09.01-.2,0-.31-.06-.17-.09-.28-.22-.32-.4-.05-.17-.03-.34.04-.48.12-.22.24-.44.36-.66.12-.22.23-.44.35-.66.17-.33.34-.65.49-.95.15-.3.32-.62.49-.95.05-.1.12-.21.21-.35.09-.14.18-.28.26-.43.08-.15.15-.3.19-.44.05-.15.06-.27.04-.38-.23-.02-.43-.03-.62-.02-.18,0-.39,0-.61,0h-.94c-.12,0-.24,0-.37,0-.13,0-.26,0-.37-.02-.12-.02-.21-.07-.3-.14-.08-.07-.13-.19-.15-.35-.01-.14,0-.24.04-.32.04-.08.09-.14.16-.17Z"/>
    </g>
  </g>
  <path class="cls-12" d="m260.6,192.32H7.63c-.19,0-.35-.3-.35-.67s.16-.67.35-.67h252.97c.19,0,.35.3.35.67s-.16.67-.35.67Z"/>
  <path class="cls-5" d="m193.46,115.08c-.26,0-.47-.21-.47-.47s.21-.47.47-.47c4.06,0,7.47-1.47,9.62-4.14.16-.2.46-.23.66-.07.2.16.23.46.07.66-2.33,2.89-6.01,4.49-10.36,4.49Z"/>
  <ellipse class="cls-5" cx="191.58" cy="114.54" rx="1.28" ry="2.18" transform="translate(72.16 303.12) rotate(-88.53)"/>
  <path class="cls-5" d="m206.32,100.68c.92-5.49,1.92-13.43-4.55-19.57-1.87-1.77-4.07-2.51-7.63-3.21,1.48-.21,2.55-.15,2.55-.15,1.05.05,2.47-.12,3.37.07,2.1.43,3.81,1.25,5.19,2.52,5.38,4.96,5.36,12.54,3.24,20.65l-2.16-.3Z"/>
  <ellipse class="cls-5" cx="205.88" cy="105.9" rx="5.86" ry="4.36" transform="translate(23.78 248.87) rotate(-65.36)"/>
  <g>
    <path class="cls-9" d="m273.14,115.23c.19,6.69-5.11,12.1-11.85,12.1-3.05,0-5.88-1.11-8.07-2.95l-3.92,1.44c-.3.11-.59-.18-.48-.48l1.58-4.3c-.99-1.72-1.59-3.71-1.65-5.8-.2-6.69,5.1-12.1,11.85-12.1s12.35,5.41,12.54,12.1Z"/>
    <path class="cls-13" d="m270.67,115.24c.15,5.33-4.08,9.65-9.45,9.65s-9.86-4.32-10.01-9.65c-.15-5.34,4.08-9.66,9.45-9.66s9.85,4.32,10.01,9.66Z"/>
    <path class="cls-9" d="m262.4,110.88l-.63,6.47c-.04.46-.45.8-.92.75-.41-.04-.72-.36-.75-.75l-.63-6.47c-.08-.81.51-1.53,1.32-1.6.9-.09,1.69.66,1.6,1.6Z"/>
    <path class="cls-9" d="m262.01,120.13c0,.59-.48,1.07-1.06,1.07s-1.06-.48-1.06-1.07.48-1.07,1.06-1.07,1.06.48,1.06,1.07Z"/>
    <path class="cls-8" d="m250.2,121.06l-1.55,4.22c-.17.45.26.88.72.72l3.82-1.41c2.28,1.89,5.15,2.93,8.1,2.93,7.03,0,12.31-5.78,12.02-12.29-.2-6.77-5.91-12.28-12.72-12.28s-12.22,5.49-12.03,12.29c.06,2.03.62,4.03,1.63,5.82Zm10.4-17.74c6.61,0,12.16,5.35,12.36,11.93.19,6.49-4.94,11.92-11.66,11.92-2.9,0-5.72-1.03-7.95-2.91-.06-.05-.14-.05-.18-.03l-3.92,1.44c-.08.03-.15.01-.21-.05-.06-.06-.07-.13-.05-.2l1.58-4.3c.02-.05.02-.11-.01-.16-1.01-1.75-1.57-3.72-1.63-5.72-.19-6.55,4.97-11.92,11.67-11.92Z"/>
    <path class="cls-8" d="m260.85,118.28c.48.08,1.05-.3,1.11-.91l.63-6.47c.11-1.01-.75-1.91-1.8-1.8-.91.09-1.57.9-1.48,1.8l.63,6.47c.05.48.43.87.92.91Zm-.03-8.82c.91,0,1.46.6,1.41,1.41l-.63,6.47c-.04.37-.36.62-.72.59-.31-.03-.56-.28-.59-.59l-.63-6.47c-.07-.71.45-1.33,1.16-1.41Z"/>
    <path class="cls-8" d="m260.94,118.88c-.69,0-1.25.56-1.25,1.25s.56,1.25,1.25,1.25,1.24-.56,1.24-1.25-.56-1.25-1.24-1.25Zm0,2.14c-.49,0-.89-.4-.89-.89s.4-.89.89-.89.88.4.88.89-.39.89-.88.89Z"/>
  </g>
</svg>