<?xml version="1.0" encoding="UTF-8"?><svg id="Layer_1" xmlns="http://www.w3.org/2000/svg" viewBox="0 0 100 100"><rect x="0" width="100" height="100" rx="4.1" ry="4.1" style="fill:#e30c1d; isolation:isolate;"/><path d="M75.23,73.12l-4.28-31.98c-.39-2.9-2.88-5.07-5.8-5.07h-.03l-29.18.14c-2.95.01-5.43,2.23-5.78,5.16l-3.78,31.85c-.2,1.66.33,3.33,1.43,4.57,1.11,1.25,2.7,1.96,4.37,1.96h37.24c1.69,0,3.29-.73,4.4-2,1.11-1.27,1.62-2.96,1.4-4.63ZM37.09,43.3l26.96-.12,1.29,9.66c-6.92.89-12.38,4.75-15.91,11.3-1.73,3.2-2.61,6.4-3.05,8.51h-12.78l3.48-29.34ZM53.68,72.64c.39-1.48,1.02-3.31,2-5.13,2.44-4.53,5.92-7.04,10.6-7.63l1.71,12.76h-14.31Z" style="fill:#fff;"/><path d="M42.37,33.59c1.79,0,3.25-1.45,3.25-3.25,0-2.83,2.3-5.13,5.13-5.13s5.13,2.3,5.13,5.13c0,1.79,1.45,3.25,3.25,3.25s3.25-1.45,3.25-3.25c0-6.41-5.22-11.63-11.63-11.63s-11.63,5.22-11.63,11.63c0,1.79,1.45,3.25,3.25,3.25Z" style="fill:#fff;"/></svg>