<?xml version="1.0" encoding="UTF-8"?><svg id="Layer_1" xmlns="http://www.w3.org/2000/svg" xmlns:xlink="http://www.w3.org/1999/xlink" viewBox="0 0 100 100"><defs><linearGradient id="linear-gradient" x1="98.4" y1="100.33" x2="-2.3" y2="-4.38" gradientUnits="userSpaceOnUse"><stop offset="0" stop-color="#08c972"/><stop offset="1" stop-color="#60df54"/></linearGradient></defs><rect width="100" height="100" rx="4.1" ry="4.1" style="fill:url(#linear-gradient);"/><path d="M20.18,74.1v-40.88c0-1.05.85-1.9,1.9-1.9h8.11c1.05,0,1.9.85,1.9,1.9v28.96c0,1.05.85,1.9,1.9,1.9h8.11c1.05,0,1.9-.85,1.9-1.9V25.78c0-1.05.85-1.9,1.9-1.9h20.02c1.05,0,1.9.85,1.9,1.9v10.01h-10.01c-1.05,0-1.9.85-1.9,1.9v8.11c0,1.05.85,1.9,1.9,1.9h8.11c1.05,0,1.9-.85,1.9-1.9v-10.01h10.01c1.05,0,1.9.85,1.9,1.9v20.02c0,1.05-.85,1.9-1.9,1.9h-20.02c-1.05,0-1.9.85-1.9,1.9v12.58c0,1.05-.85,1.9-1.9,1.9h-31.94c-1.05,0-1.9-.85-1.9-1.9Z" style="fill:#fff;"/><rect x="71.73" y="21.09" width="2.68" height="2.68" style="fill:#fff;"/><rect x="76.29" y="26.27" width="1.85" height="1.85" style="fill:#fff;"/><rect x="77.21" y="21.09" width="1.38" height="1.38" style="fill:#fff;"/><rect x="82.14" y="26.74" width="1.38" height="1.38" style="fill:#fff;"/><rect x="79.22" y="18.13" width=".69" height=".69" style="fill:#fff;"/><rect x="82.96" y="17.64" width=".55" height=".55" style="fill:#fff;"/><rect x="81.04" y="21.43" width=".69" height=".69" style="fill:#fff;"/><rect x="71.99" y="28.82" width="1.52" height="1.52" style="fill:#fff;"/><rect x="79.02" y="30.51" width="1.09" height="1.09" style="fill:#fff;"/></svg>