<?xml version="1.0" encoding="UTF-8"?><svg id="Layer_1" xmlns="http://www.w3.org/2000/svg" viewBox="0 0 100 100"><rect width="100" height="100" rx="4.1" ry="4.1" style="fill:#2667ff;"/><polygon points="20.61 45.22 46.33 19.22 20.49 19.22 20.61 45.22" style="fill:#add7f6;"/><path d="M72.9,36.45l-10.17,10.17c1.5,1.68,3.29,4.38,3.29,6.8,0,2.9-1.16,5.32-3.02,7.25-1.81,1.87-4.16,2.78-6.94,2.78h-22.08l44.96-44.23h-20.77L20.59,56.63v24.15l14.33-.1h21.11c7.43,0,13.6-2.29,18.74-6.88,5.01-4.59,7.55-12.08,7.55-19.2,0-7.53-3.8-13.86-9.42-18.15Z" style="fill:#fff;"/></svg>