<svg width="56" height="56" viewBox="0 0 56 56" fill="none" xmlns="http://www.w3.org/2000/svg">
<path d="M28 56C43.464 56 56 43.464 56 28C56 12.536 43.464 0 28 0C12.536 0 0 12.536 0 28C0 43.464 12.536 56 28 56Z" fill="#FFD93B"/>
<path d="M56.0004 28.0014C56.0004 43.4714 43.4617 56.0014 28.0004 56.0014C19.1979 56.0014 11.3404 51.9414 6.2041 45.5801C11.0079 49.4651 17.1241 51.7839 23.7829 51.7839C39.2441 51.7839 51.7829 39.2539 51.7829 23.7839C51.7829 17.1251 49.4642 11.0088 45.5792 6.20508C51.9317 11.3413 56.0004 19.1988 56.0004 28.0014Z" fill="#F4C534"/>
<path d="M21.3714 16.6016C18.4707 14.8442 14.6949 15.7703 12.938 18.6702C11.1811 21.5701 12.1083 25.3456 15.009 27.103C17.9097 28.8605 21.6855 27.9343 23.4424 25.0344C25.1994 22.1346 24.2721 18.359 21.3714 16.6016Z" fill="white"/>
<path d="M21.3734 16.602C19.9241 15.7244 18.037 16.1892 17.1584 17.6402C16.2798 19.0911 16.7425 20.9787 18.1918 21.8563C19.641 22.7339 21.5281 22.2691 22.4067 20.8182C23.2853 19.3672 22.8227 17.4796 21.3734 16.602Z" fill="#3E4347"/>
<path d="M21.796 17.9239C21.6008 17.4808 21.2052 17.2262 20.9124 17.3552C20.6197 17.4841 20.5406 17.9479 20.7359 18.391C20.9311 18.8341 21.3267 19.0888 21.6194 18.9598C21.9122 18.8308 21.9912 18.367 21.796 17.9239Z" fill="#5A5F63"/>
<path d="M40.9881 16.6016C38.0874 14.8442 34.3116 15.7703 32.5547 18.6702C30.7978 21.5701 31.725 25.3456 34.6257 27.103C37.5264 28.8605 41.3022 27.9343 43.0591 25.0344C44.8161 22.1346 43.8888 18.359 40.9881 16.6016Z" fill="white"/>
<path d="M40.9925 16.6059C39.5432 15.7283 37.6561 16.1931 36.7776 17.6441C35.899 19.095 36.3616 20.9826 37.8109 21.8602C39.2602 22.7378 41.1473 22.273 42.0259 20.8221C42.9044 19.3711 42.4418 17.4835 40.9925 16.6059Z" fill="#3E4347"/>
<path d="M41.4153 17.924C41.2201 17.4809 40.8245 17.2262 40.5317 17.3551C40.239 17.4841 40.1599 17.9479 40.3551 18.391C40.5503 18.8341 40.9458 19.0888 41.2386 18.9599C41.5314 18.8309 41.6105 18.3671 41.4153 17.924Z" fill="#5A5F63"/>
<path d="M40.5302 37.667C40.5302 38.5088 39.8495 39.1895 39.0077 39.1895H16.9927C16.1597 39.1895 15.4702 38.5088 15.4702 37.667C15.4702 36.8253 16.1597 36.1445 16.9927 36.1445H39.0095C39.8512 36.1463 40.5302 36.8253 40.5302 37.667Z" fill="#3E4347"/>
</svg>
