<svg width="56" height="56" viewBox="0 0 56 56" fill="none" xmlns="http://www.w3.org/2000/svg">
<path d="M28 55.9977C43.4639 55.9977 56 43.4624 56 27.9994C56 12.5363 43.4639 0.000976562 28 0.000976562C12.536 0.000976562 0 12.5363 0 27.9994C0 43.4624 12.536 55.9977 28 55.9977Z" fill="#FFD93B"/>
<path d="M56.0001 27.9993C56.0007 33.7923 54.2043 39.4429 50.8585 44.1721C47.5128 48.9013 42.7823 52.4764 37.3193 54.4045C31.8563 56.3326 25.9297 56.5187 20.3564 54.9373C14.7832 53.3559 9.83769 50.0848 6.20166 45.5749C11.5798 49.9169 18.3741 52.1162 25.2767 51.7494C32.1793 51.3826 38.7022 48.4758 43.5899 43.5883C48.4777 38.7008 51.3847 32.1783 51.7515 25.2761C52.1183 18.3739 49.9189 11.58 45.5766 6.20215C51.9313 11.3425 56.0001 19.1951 56.0001 27.9993Z" fill="#F4C534"/>
<path d="M36.8158 44.0972C36.1049 44.9721 35.0658 45.1909 34.0267 44.6659C32.1705 43.6815 30.1013 43.1668 28.0002 43.1668C25.899 43.1668 23.8299 43.6815 21.9736 44.6659C20.9455 45.2018 19.8955 45.0268 19.1736 44.1628C18.4627 43.3207 18.6596 41.8551 20.0924 41.1005C25.0252 38.4756 30.9752 38.4756 35.908 41.1005C37.3299 41.8661 37.5267 43.255 36.8158 44.0972V44.0972Z" fill="#3E4347"/>
<path d="M30.2531 26.719C30.2531 24.4159 31.1681 22.2071 32.7967 20.5786C34.4254 18.9501 36.6343 18.0352 38.9375 18.0352C41.2407 18.0352 43.4496 18.9501 45.0783 20.5786C46.7069 22.2071 47.6219 24.4159 47.6219 26.719C47.681 27.8961 47.5001 29.0728 47.0904 30.1779C46.6806 31.2829 46.0505 32.2931 45.2383 33.147C44.426 34.001 43.4487 34.681 42.3655 35.1456C41.2824 35.6102 40.1161 35.8498 38.9375 35.8498C37.7589 35.8498 36.5926 35.6102 35.5095 35.1456C34.4263 34.681 33.449 34.001 32.6367 33.147C31.8245 32.2931 31.1944 31.2829 30.7846 30.1779C30.3748 29.0728 30.194 27.8961 30.2531 26.719V26.719Z" fill="white"/>
<path d="M37.1874 32.4398C39.3741 32.4398 41.1468 30.6672 41.1468 28.4806C41.1468 26.2941 39.3741 24.5215 37.1874 24.5215C35.0007 24.5215 33.228 26.2941 33.228 28.4806C33.228 30.6672 35.0007 32.4398 37.1874 32.4398Z" fill="#3E4347"/>
<path d="M36.4733 26.1976C36.1957 25.92 35.6243 26.0412 35.1972 26.4683C34.77 26.8954 34.6488 27.4667 34.9265 27.7444C35.2041 28.022 35.7755 27.9008 36.2026 27.4737C36.6298 27.0466 36.751 26.4753 36.4733 26.1976Z" fill="white"/>
<path d="M25.364 26.719C25.364 25.5786 25.1394 24.4494 24.703 23.3959C24.2666 22.3423 23.6269 21.385 22.8205 20.5786C22.014 19.7722 21.0567 19.1326 20.003 18.6962C18.9494 18.2598 17.8201 18.0352 16.6797 18.0352C15.5392 18.0352 14.41 18.2598 13.3563 18.6962C12.3027 19.1326 11.3453 19.7722 10.5389 20.5786C9.73249 21.385 9.0928 22.3423 8.65637 23.3959C8.21994 24.4494 7.99531 25.5786 7.99531 26.719C7.93622 27.8961 8.11704 29.0728 8.52679 30.1779C8.93655 31.2829 9.56668 32.2931 10.3789 33.147C11.1911 34.001 12.1685 34.681 13.2517 35.1456C14.3348 35.6102 15.5011 35.8498 16.6797 35.8498C17.8583 35.8498 19.0246 35.6102 20.1077 35.1456C21.1908 34.681 22.1682 34.001 22.9805 33.147C23.7927 32.2931 24.4228 31.2829 24.8326 30.1779C25.2423 29.0728 25.4231 27.8961 25.364 26.719V26.719Z" fill="white"/>
<path d="M18.4296 32.4398C20.6163 32.4398 22.389 30.6672 22.389 28.4806C22.389 26.2941 20.6163 24.5215 18.4296 24.5215C16.2429 24.5215 14.4702 26.2941 14.4702 28.4806C14.4702 30.6672 16.2429 32.4398 18.4296 32.4398Z" fill="#3E4347"/>
<path d="M20.42 26.48C19.9929 26.0529 19.4215 25.9317 19.1439 26.2093C18.8662 26.487 18.9874 27.0583 19.4146 27.4854C19.8417 27.9125 20.4131 28.0337 20.6907 27.7561C20.9684 27.4785 20.8472 26.9072 20.42 26.48Z" fill="white"/>
</svg>
