<svg width="56" height="56" viewBox="0 0 56 56" fill="none" xmlns="http://www.w3.org/2000/svg">
<path d="M28 55.9977C43.4639 55.9977 56 43.4624 56 27.9994C56 12.5363 43.4639 0.000976562 28 0.000976562C12.536 0.000976562 0 12.5363 0 27.9994C0 43.4624 12.536 55.9977 28 55.9977Z" fill="#FFD93B"/>
<path d="M56.0001 27.9993C56.0007 33.7923 54.2043 39.4429 50.8585 44.1721C47.5128 48.9013 42.7823 52.4764 37.3193 54.4045C31.8563 56.3326 25.9297 56.5187 20.3564 54.9373C14.7832 53.3559 9.83769 50.0848 6.20166 45.5749C11.5798 49.9169 18.3741 52.1162 25.2767 51.7494C32.1793 51.3826 38.7022 48.4758 43.5899 43.5883C48.4777 38.7008 51.3847 32.1783 51.7515 25.2761C52.1183 18.3739 49.9189 11.58 45.5766 6.20215C51.9313 11.3425 56.0001 19.1951 56.0001 27.9993Z" fill="#F4C534"/>
<path d="M35.9186 46.8099C34.9686 45.6193 33.7628 44.6577 32.3905 43.9965C31.0183 43.3354 29.5148 42.9915 27.9916 42.9904C26.4683 42.9894 24.9644 43.3312 23.5912 43.9905C22.2181 44.6498 21.0109 45.6096 20.0592 46.7989C19.9553 46.9355 19.8074 47.0319 19.6406 47.0718C19.4737 47.1118 19.2982 47.0928 19.1437 47.0182C18.9893 46.9435 18.8653 46.8177 18.793 46.6622C18.7206 46.5066 18.7043 46.3308 18.7467 46.1646C19.1882 44.0377 20.3474 42.1272 22.0301 40.7532C23.7128 39.3793 25.8166 38.6255 27.9889 38.6182C30.1773 38.6246 32.296 39.3886 33.9848 40.7802C35.6736 42.1719 36.8285 44.1054 37.253 46.2521C37.3952 47.0067 36.4108 47.4114 35.9186 46.8099Z" fill="#3E4347"/>
<path d="M29.4437 24.3143C30.0234 31.1826 35.1312 36.7714 40.9062 36.7714C46.6265 36.7714 50.8374 31.1826 50.2687 24.3143C50.0499 21.58 49.0874 19.0755 47.6765 17.0194C47.228 16.3522 46.3421 16.1444 45.653 16.56C43.6738 17.7609 41.3943 18.3753 39.0796 18.3318C36.5859 18.3318 34.4749 17.7193 32.7577 16.7131C32.014 16.2757 31.0734 16.5491 30.6905 17.3037C29.7062 19.2942 29.2468 21.7113 29.4437 24.3143Z" fill="#F4C534"/>
<path d="M39.0468 20.7268C41.8686 20.7268 44.1874 19.9503 46.0139 18.6816C47.1077 20.2784 47.8733 22.1924 48.0593 24.3251C48.4968 29.7498 45.2046 34.1354 40.6765 34.1354C36.1265 34.1354 32.1015 29.7498 31.653 24.3251C31.4967 22.5086 31.8211 20.683 32.5936 19.0316C34.3436 20.0925 36.4874 20.7268 39.0468 20.7268Z" fill="white"/>
<path d="M43.3346 26.9166C43.336 27.4723 43.2275 28.0228 43.0151 28.5363C42.8028 29.0499 42.4909 29.5164 42.0974 29.9088C41.7039 30.3013 41.2366 30.6119 40.7225 30.8229C40.2083 31.0339 39.6575 31.1411 39.1018 31.1382C38.5469 31.1396 37.9973 31.0314 37.4844 30.8198C36.9716 30.6081 36.5056 30.2972 36.1132 29.9049C35.7209 29.5126 35.41 29.0467 35.1983 28.5338C34.9867 28.021 34.8785 27.4714 34.8799 26.9166C34.8799 25.7955 35.3253 24.7203 36.1181 23.9275C36.9108 23.1348 37.9861 22.6895 39.1072 22.6895C40.2284 22.6895 41.3036 23.1348 42.0964 23.9275C42.8892 24.7203 43.3346 25.7955 43.3346 26.9166Z" fill="#3E4347"/>
<path d="M41.6063 26.3701C41.2563 26.7201 40.5235 26.556 39.9766 26.0201C39.4516 25.4951 39.2985 24.7624 39.6485 24.4124C40.0094 24.0405 40.7423 24.1936 41.2782 24.7295C41.8141 25.2764 41.9782 26.0092 41.6063 26.3701Z" fill="white"/>
<path d="M26.5561 24.3143C25.9765 31.1826 20.8686 36.7714 15.0936 36.7714C9.37334 36.7714 5.16241 31.1826 5.73116 24.3143C5.94991 21.58 6.9124 19.0755 8.32334 17.0194C8.77178 16.3522 9.65771 16.1444 10.3468 16.56C12.1186 17.6646 14.3061 18.3318 16.9202 18.3318C19.414 18.3318 21.5249 17.7193 23.2421 16.7131C23.9858 16.2757 24.9265 16.5491 25.3093 17.3037C26.2936 19.2942 26.753 21.7113 26.5561 24.3143Z" fill="#F4C534"/>
<path d="M16.9534 20.7268C14.1315 20.7268 11.8127 19.9503 9.98618 18.6816C8.89243 20.2784 8.1268 22.1924 7.94086 24.3251C7.50336 29.7498 10.7955 34.1354 15.3237 34.1354C19.8737 34.1354 23.8987 29.7498 24.3471 24.3251C24.5034 22.5086 24.179 20.683 23.4065 19.0316C21.6565 20.0925 19.5127 20.7268 16.9534 20.7268Z" fill="white"/>
<path d="M12.6655 26.9166C12.6641 27.4723 12.7727 28.0228 12.985 28.5363C13.1973 29.0499 13.5092 29.5164 13.9027 29.9088C14.2962 30.3013 14.7635 30.6119 15.2776 30.8229C15.7918 31.0339 16.3426 31.1411 16.8984 31.1382C17.4532 31.1396 18.0028 31.0314 18.5157 30.8198C19.0286 30.6081 19.4946 30.2972 19.8869 29.9049C20.2792 29.5126 20.5901 29.0467 20.8018 28.5338C21.0134 28.021 21.1217 27.4714 21.1202 26.9166C21.1202 25.7955 20.6748 24.7203 19.8821 23.9275C19.0893 23.1348 18.014 22.6895 16.8929 22.6895C15.7717 22.6895 14.6965 23.1348 13.9037 23.9275C13.1109 24.7203 12.6655 25.7955 12.6655 26.9166Z" fill="#3E4347"/>
<path d="M14.3939 26.3701C14.7439 26.7201 15.4767 26.556 16.0235 26.0201C16.5485 25.4951 16.7017 24.7624 16.3517 24.4124C15.9907 24.0405 15.2579 24.1936 14.722 24.7295C14.186 25.2764 14.022 26.0092 14.3939 26.3701Z" fill="white"/>
</svg>
