<svg width="56" height="56" viewBox="0 0 56 56" fill="none" xmlns="http://www.w3.org/2000/svg">
<path d="M28 55.9978C43.4639 55.9978 56 43.4624 56 27.9994C56 12.5363 43.4639 0.000976562 28 0.000976562C12.536 0.000976562 0 12.5363 0 27.9994C0 43.4624 12.536 55.9978 28 55.9978Z" fill="#FFD93B"/>
<path d="M56.0001 27.9993C56.0007 33.7923 54.2043 39.4429 50.8585 44.1721C47.5128 48.9013 42.7823 52.4764 37.3193 54.4045C31.8563 56.3326 25.9297 56.5187 20.3564 54.9373C14.7832 53.3559 9.83769 50.0848 6.20166 45.5749C11.5798 49.9169 18.3741 52.1162 25.2767 51.7494C32.1793 51.3826 38.7022 48.4758 43.5899 43.5883C48.4777 38.7008 51.3847 32.1783 51.7515 25.2761C52.1183 18.3739 49.9189 11.58 45.5766 6.20215C51.9313 11.3425 56.0001 19.1951 56.0001 27.9993Z" fill="#F4C534"/>
<path d="M25.4077 22.0177C25.4077 27.3987 17.2811 32.3203 17.2811 32.3203C17.2811 32.3203 9.14361 27.3987 9.14361 22.0177C9.13858 21.0182 9.494 20.0503 10.1447 19.2915C10.7954 18.5327 11.6978 18.0338 12.6865 17.8863C13.6752 17.7388 14.6839 17.9526 15.5278 18.4884C16.3717 19.0242 16.9941 19.8462 17.2811 20.8037C17.5749 19.8549 18.1987 19.0427 19.0397 18.5141C19.8807 17.9856 20.8831 17.7757 21.8655 17.9224C22.8479 18.0692 23.7453 18.5629 24.3951 19.3141C25.0448 20.0654 25.404 21.0245 25.4077 22.0177Z" fill="#E24B4B"/>
<path d="M10.511 18.9551C10.0833 19.3422 9.74158 19.8148 9.50796 20.3423C9.27434 20.8698 9.15402 21.4405 9.15479 22.0174C9.15479 27.3983 17.2813 32.3199 17.2813 32.3199C8.77198 25.1344 10.4564 19.1629 10.5001 18.9551H10.511Z" fill="#D03F3F"/>
<path d="M23.5376 21.8751C23.1439 22.2032 22.4658 21.9845 22.0283 21.4267C21.5689 20.858 21.5251 20.1689 21.897 19.8846C22.2908 19.5784 22.9579 19.808 23.4173 20.3658C23.8548 20.9345 23.9204 21.6126 23.5376 21.8751Z" fill="white"/>
<path d="M46.8564 22.0177C46.8564 27.3987 38.7189 32.3203 38.7189 32.3203C38.7189 32.3203 30.5923 27.3987 30.5923 22.0177C30.5873 21.0182 30.9427 20.0503 31.5934 19.2915C32.2441 18.5327 33.1465 18.0338 34.1352 17.8863C35.1239 17.7388 36.1327 17.9526 36.9765 18.4884C37.8204 19.0242 38.4429 19.8462 38.7298 20.8037C39.0236 19.8549 39.6474 19.0427 40.4884 18.5141C41.3294 17.9856 42.3319 17.7757 43.3143 17.9224C44.2967 18.0692 45.194 18.5629 45.8438 19.3141C46.4936 20.0654 46.8528 21.0245 46.8564 22.0177Z" fill="#E24B4B"/>
<path d="M31.9593 18.9551C31.5315 19.3422 31.1898 19.8148 30.9562 20.3423C30.7226 20.8698 30.6023 21.4405 30.603 22.0174C30.603 27.3983 38.7296 32.3199 38.7296 32.3199C30.2202 25.1344 31.9046 19.1629 31.9593 18.9551Z" fill="#D03F3F"/>
<path d="M44.9859 21.8751C44.5921 22.2032 43.914 21.9845 43.4765 21.4267C43.0171 20.858 42.9734 20.1689 43.3453 19.8846C43.739 19.5784 44.4062 19.808 44.8656 20.3658C45.3031 20.9345 45.3687 21.6126 44.9859 21.8751Z" fill="white"/>
<path d="M41.7485 40.9173C38.4453 44.8436 33.5125 47.9606 28 47.9606C22.4875 47.9606 17.5657 44.8436 14.2407 40.9392C13.985 40.637 13.8287 40.2634 13.793 39.8693C13.7573 39.4751 13.844 39.0795 14.0413 38.7364C14.2386 38.3933 14.5368 38.1193 14.8954 37.9518C15.2541 37.7843 15.6556 37.7314 16.0454 37.8003C23.958 39.1963 32.0543 39.1926 39.9656 37.7894C41.7375 37.4941 42.9188 39.5502 41.7485 40.9173Z" fill="#3E4347"/>
<path d="M28 47.9587C30.8109 47.9587 33.4687 47.1385 35.8422 45.826C34.8578 42.1403 31.3906 41.0904 28.9953 42.359C25.7469 44.0871 22.1266 41.845 20.7266 46.1104C22.9469 47.2478 25.4078 47.9697 28 47.9697V47.9587Z" fill="#E24B4B"/>
</svg>
