<svg width="56" height="56" viewBox="0 0 56 56" fill="none" xmlns="http://www.w3.org/2000/svg">
<path d="M28 55.9977C43.4639 55.9977 56 43.4624 56 27.9994C56 12.5363 43.4639 0.000976562 28 0.000976562C12.536 0.000976562 0 12.5363 0 27.9994C0 43.4624 12.536 55.9977 28 55.9977Z" fill="#FFD93B"/>
<path d="M44.5918 38.5855C43.2461 41.8828 40.9487 44.7045 37.9926 46.6908C35.0365 48.6771 31.5557 49.7379 27.9942 49.7379C24.4327 49.7379 20.9519 48.6771 17.9958 46.6908C15.0397 44.7045 12.7423 41.8828 11.3966 38.5855C11.145 37.9839 11.5606 37.273 12.2169 37.1418C22.6402 35.1832 33.3372 35.1832 43.7606 37.1418C44.4168 37.273 44.8434 37.9839 44.5918 38.5855Z" fill="#3E4347"/>
<path d="M56.0001 27.9993C56.0007 33.7923 54.2043 39.4429 50.8585 44.1721C47.5128 48.9013 42.7823 52.4764 37.3193 54.4045C31.8563 56.3326 25.9297 56.5187 20.3564 54.9373C14.7832 53.3559 9.83769 50.0848 6.20166 45.5749C11.5798 49.9169 18.3741 52.1162 25.2767 51.7494C32.1793 51.3826 38.7022 48.4758 43.5899 43.5883C48.4777 38.7008 51.3847 32.1783 51.7515 25.2761C52.1183 18.3739 49.9189 11.58 45.5766 6.20215C51.9313 11.3425 56.0001 19.1951 56.0001 27.9993Z" fill="#F4C534"/>
<path d="M12.6108 37.0777C14.6015 40.315 20.8249 40.665 28.2624 40.665C35.6014 40.665 41.8468 40.315 43.9249 37.2089L43.7608 37.1433C33.4694 35.2115 22.9103 35.1893 12.6108 37.0777Z" fill="white"/>
<path d="M38.9811 31.3134C43.8801 31.3134 47.8515 27.3472 47.8515 22.4546C47.8515 17.562 43.8801 13.5957 38.9811 13.5957C34.0822 13.5957 30.1108 17.562 30.1108 22.4546C30.1108 27.3472 34.0822 31.3134 38.9811 31.3134Z" fill="white"/>
<path d="M38.9813 27.2873C41.6513 27.2873 43.8157 25.123 43.8157 22.4532C43.8157 19.7834 41.6513 17.6191 38.9813 17.6191C36.3114 17.6191 34.147 19.7834 34.147 22.4532C34.147 25.123 36.3114 27.2873 38.9813 27.2873Z" fill="#3E4347"/>
<path d="M41.6744 19.9353C41.1619 19.4227 40.4659 19.2877 40.1199 19.6337C39.7739 19.9796 39.9089 20.6756 40.4215 21.1882C40.9341 21.7007 41.6301 21.8357 41.9761 21.4898C42.3221 21.1438 42.187 20.4478 41.6744 19.9353Z" fill="white"/>
<path d="M17.0187 31.3134C21.9177 31.3134 25.889 27.3472 25.889 22.4546C25.889 17.562 21.9177 13.5957 17.0187 13.5957C12.1198 13.5957 8.14844 17.562 8.14844 22.4546C8.14844 27.3472 12.1198 31.3134 17.0187 31.3134Z" fill="white"/>
<path d="M17.0189 27.2873C19.6889 27.2873 21.8533 25.123 21.8533 22.4532C21.8533 19.7834 19.6889 17.6191 17.0189 17.6191C14.349 17.6191 12.1846 19.7834 12.1846 22.4532C12.1846 25.123 14.349 27.2873 17.0189 27.2873Z" fill="#3E4347"/>
<path d="M19.7096 19.947C19.197 19.4345 18.501 19.2994 18.155 19.6454C17.809 19.9914 17.9441 20.6873 18.4567 21.1999C18.9692 21.7124 19.6652 21.8475 20.0112 21.5015C20.3572 21.1555 20.2222 20.4596 19.7096 19.947Z" fill="white"/>
</svg>
