<svg width="56" height="56" viewBox="0 0 56 56" fill="none" xmlns="http://www.w3.org/2000/svg">
<path d="M28 56.001C43.464 56.001 56 43.465 56 28.001C56 12.537 43.464 0.000976562 28 0.000976562C12.536 0.000976562 0 12.537 0 28.001C0 43.465 12.536 56.001 28 56.001Z" fill="#FFD93B"/>
<path d="M55.9999 28.0006C55.9977 33.7913 54.2002 39.4388 50.855 44.1655C47.5098 48.8921 42.7814 52.4654 37.321 54.3931C31.8606 56.3208 25.9368 56.5081 20.3656 54.9292C14.7943 53.3504 9.84957 50.083 6.2124 45.5772C11.5906 49.9194 18.3849 52.1188 25.2874 51.752C32.19 51.3853 38.713 48.4782 43.6007 43.5905C48.4884 38.7027 51.3955 32.1798 51.7623 25.2772C52.129 18.3746 49.9296 11.5803 45.5874 6.20215C51.9311 11.3428 55.9999 19.1959 55.9999 28.0006Z" fill="#FFD93B"/>
<path d="M56 10.8725V28.9303C56 30.1334 55.0266 31.1068 53.8453 31.1068H33.3922C31.9703 31.1068 30.8219 29.9584 30.8219 28.5365V26.2068C30.8219 24.7959 29.8484 23.4943 28.4594 23.2865C26.6875 23.0131 25.1781 24.3803 25.1781 26.0756V28.5475C25.1781 29.9693 24.0297 31.1178 22.6078 31.1178H2.15471C1.87083 31.1178 1.58975 31.0617 1.32762 30.9527C1.06548 30.8438 0.827465 30.6841 0.627241 30.4828C0.427016 30.2816 0.268531 30.0428 0.160894 29.7801C0.0532558 29.5174 -0.00141325 29.236 2.77627e-05 28.9522V10.8725C2.77627e-05 9.68027 0.962528 8.71777 2.15471 8.71777H53.8453C55.0266 8.71777 56 9.66934 56 10.8725Z" fill="#E9EFF4"/>
<path d="M22.3782 15.0939V24.7408C22.3782 25.408 22.1132 26.0479 21.6414 26.5196C21.1696 26.9914 20.5298 27.2564 19.8626 27.2564H6.36572C5.69854 27.2564 5.05868 26.9914 4.58691 26.5196C4.11514 26.0479 3.8501 25.408 3.8501 24.7408L3.8501 15.083C3.8501 14.4158 4.11514 13.776 4.58691 13.3042C5.05868 12.8324 5.69854 12.5674 6.36572 12.5674H19.8626C20.5298 12.5674 21.1696 12.8324 21.6414 13.3042C22.1132 13.776 22.3782 14.4158 22.3782 15.083V15.0939Z" fill="#45CBEA"/>
<path d="M52.1608 15.0939V24.7408C52.1608 25.408 51.8958 26.0479 51.424 26.5196C50.9523 26.9914 50.3124 27.2564 49.6452 27.2564H36.1265C35.4593 27.2564 34.8194 26.9914 34.3476 26.5196C33.8759 26.0479 33.6108 25.408 33.6108 24.7408V15.083C33.6108 14.4158 33.8759 13.776 34.3476 13.3042C34.8194 12.8324 35.4593 12.5674 36.1265 12.5674H49.6233C50.2905 12.5674 50.9304 12.8324 51.4021 13.3042C51.8739 13.776 52.139 14.4158 52.139 15.083L52.1608 15.0939Z" fill="#E84D88"/>
<path d="M10.4123 12.5664L3.8498 19.1289V20.7914L12.0748 12.5664H10.4123ZM13.4857 12.5664L3.83887 22.2023V24.7398C3.83887 24.9367 3.87168 25.1445 3.91543 25.3305L16.6904 12.5664H13.4857Z" fill="#38C0DC"/>
<path d="M40.8301 12.5686L33.6113 19.7873V21.4389L42.5035 12.5576L40.8301 12.5686ZM43.9144 12.5686L33.6223 22.8498V24.742C33.6223 25.1248 33.7098 25.4857 33.8629 25.8139L47.1082 12.5686H43.9144Z" fill="#D23F77"/>
<path d="M36.0389 43.2256C36.0389 48.1146 32.4295 52.085 28.0107 52.085C23.5592 52.085 19.9717 48.1146 19.9717 43.2256C19.9717 38.3365 23.5592 34.3662 28.0107 34.3662C32.4404 34.3662 36.0389 38.3365 36.0389 43.2256Z" fill="#3E4347"/>
<path d="M28 52.0849C29.1163 52.0732 30.2165 51.8174 31.2235 51.3356C32.2306 50.8539 33.1201 50.1577 33.8297 49.2959C33.8195 48.5657 33.5982 47.854 33.1926 47.2468C32.7869 46.6395 32.2143 46.1626 31.5436 45.8735C30.873 45.5845 30.1331 45.4956 29.4131 45.6177C28.6931 45.7398 28.0238 46.0676 27.4859 46.5615C26.9599 46.3303 26.388 46.2227 25.8139 46.2468C25.2399 46.271 24.679 46.4263 24.1742 46.7008C23.6695 46.9753 23.2344 47.3618 22.9022 47.8306C22.57 48.2994 22.3496 48.8381 22.2578 49.4053C22.9689 50.2378 23.8506 50.908 24.8432 51.3703C25.8357 51.8326 26.916 52.0763 28.0109 52.0849H28Z" fill="#E24B4B"/>
<path opacity="0.2" d="M31.7517 47.5569C31.6423 47.9288 31.1173 48.1257 30.5486 47.9835C29.9798 47.8413 29.6298 47.4257 29.7392 47.0319C29.8267 46.671 30.3626 46.4851 30.9095 46.6163C31.4673 46.7694 31.8392 47.196 31.7517 47.5569Z" fill="white"/>
</svg>
